<svg width="13" height="15" viewBox="0 0 13 15" fill="none" xmlns="http://www.w3.org/2000/svg">
<path d="M12.7001 10.5669C12.6999 12.7759 10.9091 14.5669 8.70007 14.5669H4.70007C2.49104 14.5669 0.700249 12.7759 0.700073 10.5669V6.3999H12.7001V10.5669ZM9.02917 8.18994C8.82135 8.00835 8.50586 8.03006 8.3241 8.23779L6.41101 10.4243C6.35228 10.4914 6.25019 10.4996 6.18054 10.4438L5.01257 9.50928C4.79694 9.33679 4.48195 9.37178 4.30945 9.5874C4.13695 9.80303 4.17196 10.118 4.38757 10.2905L5.55652 11.2251C6.044 11.615 6.75185 11.5522 7.16296 11.0825L9.07605 8.896C9.25789 8.68818 9.23699 8.37178 9.02917 8.18994ZM9.36707 0.73291C9.64295 0.733086 9.86689 0.957026 9.86707 1.23291V2.40967C11.2462 2.83033 12.3097 3.97309 12.6122 5.3999H0.787964C1.0904 3.97309 2.15397 2.83033 3.53308 2.40967V1.23291C3.53326 0.957026 3.7572 0.733086 4.03308 0.73291C4.30911 0.73291 4.53291 0.956917 4.53308 1.23291V2.23584C4.58845 2.23357 4.64414 2.23291 4.70007 2.23291H8.70007C8.75601 2.23291 8.81169 2.23357 8.86707 2.23584V1.23291C8.86724 0.956917 9.09103 0.73291 9.36707 0.73291Z" fill="#91A0B3"/>
</svg>
