<svg width="281" height="271" viewBox="0 0 281 271" fill="none" xmlns="http://www.w3.org/2000/svg">
<rect x="133.979" y="80.4226" width="23.2383" height="23.2383" rx="7.7461" fill="#2B7C7E"/>
<path d="M7.49216 49.9414H8.63289V56.889H7.71342V51.3427L5.3582 55.4287H4.84683L2.4867 51.3427V56.889H1.56231V49.9414H2.72763L5.10743 54.0716L7.49216 49.9414ZM12.591 57.012C12.0797 57.012 11.6142 56.8956 11.1946 56.6629C10.775 56.4268 10.4456 56.104 10.2063 55.6942C9.9703 55.2812 9.85229 54.8239 9.85229 54.3224C9.85229 53.8209 9.9703 53.3652 10.2063 52.9555C10.4456 52.5425 10.775 52.2196 11.1946 51.9868C11.6142 51.7508 12.0797 51.6328 12.591 51.6328C13.3646 51.6328 14.012 51.8901 14.5332 52.4048C15.0577 52.9194 15.3199 53.5586 15.3199 54.3224C15.3199 55.0862 15.0577 55.7254 14.5332 56.24C14.012 56.7546 13.3646 57.012 12.591 57.012ZM12.591 56.1761C13.1155 56.1761 13.5515 55.9991 13.8989 55.645C14.2497 55.291 14.4251 54.8501 14.4251 54.3224C14.4251 53.7946 14.2497 53.3537 13.8989 52.9997C13.5515 52.6457 13.1155 52.4687 12.591 52.4687C12.0633 52.4687 11.624 52.6457 11.2733 52.9997C10.9226 53.3537 10.7472 53.7946 10.7472 54.3224C10.7472 54.8501 10.9226 55.291 11.2733 55.645C11.624 55.9991 12.0633 56.1761 12.591 56.1761ZM19.1748 51.6328C19.8009 51.6328 20.3041 51.8229 20.6843 52.2032C21.0679 52.5834 21.2596 53.0882 21.2596 53.7176V56.889H20.3942V53.988C20.3942 53.5291 20.2582 53.162 19.9861 52.8866C19.7141 52.608 19.3502 52.4687 18.8946 52.4687C18.4193 52.4687 18.039 52.6096 17.7538 52.8916C17.4687 53.1735 17.3261 53.5455 17.3261 54.0077V56.889H16.4607V51.7557H17.3261V52.5375C17.7424 51.9344 18.3586 51.6328 19.1748 51.6328Z" fill="#8F9BB3"/>
<path d="M6.5594 93.3939H7.59196C8.66423 93.3939 9.32802 93.9216 9.32802 94.7669C9.32802 95.5725 8.62452 96.1455 7.626 96.1455C6.63315 96.1455 5.95234 95.6406 5.87292 94.8463H4.65313C4.72689 96.3101 5.90696 97.2689 7.626 97.2689C9.3337 97.2689 10.6272 96.225 10.6272 94.835C10.6272 93.74 9.94642 92.9741 8.82876 92.8436V92.7472C9.73083 92.5429 10.2925 91.8167 10.2925 90.8523C10.2925 89.6211 9.12378 88.685 7.60331 88.685C5.96369 88.685 4.89709 89.5984 4.81199 91.0792H6.02042C6.0885 90.2736 6.67287 89.78 7.56359 89.78C8.45432 89.78 9.03868 90.2792 9.03868 91.0395C9.03868 91.8111 8.43162 92.3444 7.55224 92.3444H6.5594V93.3939ZM14.2015 97.0703H15.4723V88.8836H14.2072L12.0513 90.4041V91.7033L14.105 90.2509H14.2015V97.0703Z" fill="#8F9BB3"/>
<path d="M10.9237 136.774C12.6598 136.774 13.8909 135.582 13.8909 133.914C13.8909 132.332 12.7562 131.186 11.2017 131.186C10.2316 131.186 9.44863 131.634 9.05149 132.422H8.95504C8.98341 130.454 9.7096 129.313 10.9691 129.313C11.7123 129.313 12.291 129.722 12.4952 130.391H13.7718C13.5221 129.052 12.4272 128.19 10.9804 128.19C8.93235 128.19 7.73526 129.813 7.73526 132.587C7.73526 133.585 7.89979 134.419 8.23452 135.078C8.76782 136.173 9.7096 136.774 10.9237 136.774ZM10.9124 135.656C9.93654 135.656 9.19332 134.907 9.19332 133.932C9.19332 132.961 9.91952 132.258 10.918 132.258C11.9222 132.258 12.6314 132.961 12.6314 133.954C12.6314 134.919 11.8882 135.656 10.9124 135.656Z" fill="#222B45"/>
<path d="M6.73527 177.63H8.00612V169.443H6.74095L4.58505 170.963V172.263L6.63883 170.81H6.73527V177.63ZM12.1761 173.953H13.2086C14.2809 173.953 14.9447 174.481 14.9447 175.326C14.9447 176.132 14.2412 176.705 13.2427 176.705C12.2498 176.705 11.569 176.2 11.4896 175.406H10.2698C10.3436 176.869 11.5236 177.828 13.2427 177.828C14.9504 177.828 16.2439 176.784 16.2439 175.394C16.2439 174.299 15.5631 173.533 14.4454 173.403V173.307C15.3475 173.102 15.9092 172.376 15.9092 171.412C15.9092 170.18 14.7405 169.244 13.22 169.244C11.5804 169.244 10.5138 170.158 10.4287 171.639H11.6371C11.7052 170.833 12.2895 170.339 13.1803 170.339C14.071 170.339 14.6554 170.839 14.6554 171.599C14.6554 172.37 14.0483 172.904 13.1689 172.904H12.1761V173.953Z" fill="#222B45"/>
<path d="M52.8821 49.9414V50.8068H50.6547V56.889H49.7401V50.8068H47.5128V49.9414H52.8821ZM57.2975 56.4219C56.8746 56.8153 56.3125 57.012 55.611 57.012C54.9095 57.012 54.3457 56.8153 53.9195 56.4219C53.4967 56.0253 53.2853 55.5025 53.2853 54.8534V51.7557H54.1506V54.7354C54.1506 55.1681 54.2834 55.5172 54.5489 55.7827C54.8177 56.045 55.1717 56.1761 55.611 56.1761C56.0502 56.1761 56.4026 56.045 56.6681 55.7827C56.9369 55.5172 57.0713 55.1681 57.0713 54.7354V51.7557H57.9367V54.8534C57.9367 55.5025 57.7236 56.0253 57.2975 56.4219ZM64.373 54.3224C64.373 54.3716 64.3648 54.4994 64.3484 54.7059H59.9281C60.0166 55.1583 60.2313 55.5238 60.5722 55.8024C60.9164 56.0777 61.336 56.2154 61.8309 56.2154C62.1981 56.2154 62.5357 56.1384 62.8438 55.9843C63.152 55.827 63.3929 55.6254 63.5666 55.3795L64.1616 55.8909C63.9026 56.2384 63.5666 56.5121 63.1536 56.712C62.7438 56.912 62.2931 57.012 61.8014 57.012C60.9983 57.012 60.3296 56.753 59.7953 56.2351C59.261 55.7172 58.9938 55.073 58.9938 54.3027C58.9938 53.8045 59.1102 53.3521 59.343 52.9456C59.579 52.5359 59.9035 52.2147 60.3165 51.9819C60.7295 51.7492 61.1884 51.6328 61.6933 51.6328C62.1948 51.6328 62.6504 51.7492 63.0602 51.9819C63.4699 52.2147 63.7912 52.5375 64.0239 52.9506C64.2566 53.3603 64.373 53.8176 64.373 54.3224ZM61.6834 52.4294C61.2376 52.4294 60.8525 52.5687 60.5279 52.8473C60.2034 53.1227 60.0002 53.4799 59.9182 53.9192H63.4535C63.3716 53.4734 63.1683 53.1145 62.8438 52.8424C62.5193 52.567 62.1325 52.4294 61.6834 52.4294Z" fill="#8F9BB3"/>
<path d="M50.1464 92.6193H51.1789C52.2512 92.6193 52.915 93.1469 52.915 93.9923C52.915 94.7979 52.2115 95.3709 51.213 95.3709C50.2201 95.3709 49.5393 94.866 49.4599 94.0717H48.2401C48.3138 95.5354 49.4939 96.4942 51.213 96.4942C52.9207 96.4942 54.2142 95.4503 54.2142 94.0603C54.2142 92.9654 53.5334 92.1995 52.4157 92.069V91.9725C53.3178 91.7683 53.8795 91.0421 53.8795 90.0776C53.8795 88.8465 52.7107 87.9104 51.1903 87.9104C49.5506 87.9104 48.484 88.8238 48.3989 90.3045H49.6074C49.6755 89.4989 50.2598 89.0053 51.1505 89.0053C52.0413 89.0053 52.6256 89.5046 52.6256 90.2648C52.6256 91.0364 52.0186 91.5697 51.1392 91.5697H50.1464V92.6193ZM58.6962 96.4942C60.6024 96.4942 61.7144 94.9227 61.7144 92.2051C61.7144 89.4932 60.5854 87.9104 58.6962 87.9104C56.7956 87.9104 55.6666 89.4876 55.6666 92.1938C55.6666 94.917 56.7842 96.4942 58.6962 96.4942ZM58.6962 95.3822C57.5842 95.3822 56.9488 94.2646 56.9488 92.1938C56.9488 90.1457 57.5955 89.0223 58.6962 89.0223C59.7968 89.0223 60.4322 90.14 60.4322 92.1938C60.4322 94.2702 59.8082 95.3822 58.6962 95.3822Z" fill="#8F9BB3"/>
<path d="M53.1718 136.575H54.5051L58.068 129.54V128.389H52.6329V129.518H56.7972V129.614L53.1718 136.575Z" fill="#222B45"/>
<path d="M51.1733 176.855H52.4441V168.668H51.179L49.0231 170.189V171.488L51.0768 170.036H51.1733V176.855ZM58.5941 176.855H59.8196V175.272H60.9486V174.137H59.8196V168.668H58.0097C56.5517 170.853 55.3319 172.753 54.6 174.092V175.272H58.5941V176.855ZM55.8198 174.086C56.7843 172.413 57.7261 170.96 58.5374 169.786H58.6111V174.166H55.8198V174.086Z" fill="#222B45"/>
<path d="M98.1036 49.9414H99.0624L96.8449 56.889H95.9107L94.1848 51.2886L92.4639 56.889H91.5297L89.3121 49.9414H90.2906L92.0214 55.6696L93.7865 49.9414H94.6077L96.3729 55.6696L98.1036 49.9414ZM104.294 54.3224C104.294 54.3716 104.286 54.4994 104.269 54.7059H99.8491C99.9377 55.1583 100.152 55.5238 100.493 55.8024C100.837 56.0777 101.257 56.2154 101.752 56.2154C102.119 56.2154 102.457 56.1384 102.765 55.9843C103.073 55.827 103.314 55.6254 103.488 55.3795L104.083 55.8909C103.824 56.2384 103.488 56.5121 103.075 56.712C102.665 56.912 102.214 57.012 101.723 57.012C100.919 57.012 100.251 56.753 99.7164 56.2351C99.1821 55.7172 98.9149 55.073 98.9149 54.3027C98.9149 53.8045 99.0313 53.3521 99.264 52.9456C99.5 52.5359 99.8246 52.2147 100.238 51.9819C100.651 51.7492 101.11 51.6328 101.614 51.6328C102.116 51.6328 102.572 51.7492 102.981 51.9819C103.391 52.2147 103.712 52.5375 103.945 52.9506C104.178 53.3603 104.294 53.8176 104.294 54.3224ZM101.604 52.4294C101.159 52.4294 100.774 52.5687 100.449 52.8473C100.124 53.1227 99.9213 53.4799 99.8393 53.9192H103.375C103.293 53.4734 103.089 53.1145 102.765 52.8424C102.44 52.567 102.054 52.4294 101.604 52.4294ZM109.654 49.6365H110.519V56.889H109.654V55.9647C109.434 56.2924 109.15 56.5498 108.803 56.7366C108.459 56.9202 108.077 57.012 107.657 57.012C107.175 57.012 106.738 56.8956 106.344 56.6629C105.951 56.4268 105.643 56.104 105.42 55.6942C105.2 55.2812 105.091 54.8239 105.091 54.3224C105.091 53.8209 105.2 53.3652 105.42 52.9555C105.643 52.5425 105.951 52.2196 106.344 51.9868C106.738 51.7508 107.175 51.6328 107.657 51.6328C108.077 51.6328 108.459 51.7262 108.803 51.9131C109.15 52.0966 109.434 52.3523 109.654 52.6801V49.6365ZM107.82 56.1761C108.344 56.1761 108.78 55.9991 109.127 55.645C109.478 55.291 109.654 54.8501 109.654 54.3224C109.654 53.7946 109.478 53.3537 109.127 52.9997C108.78 52.6457 108.344 52.4687 107.82 52.4687C107.292 52.4687 106.853 52.6457 106.502 52.9997C106.151 53.3537 105.976 53.7946 105.976 54.3224C105.976 54.8501 106.151 55.291 106.502 55.645C106.853 55.9991 107.292 56.1761 107.82 56.1761Z" fill="#8F9BB3"/>
<path d="M99.1611 96.2957H100.432V88.1089H99.1668L97.0109 89.6294V90.9286L99.0647 89.4762H99.1611V96.2957Z" fill="#222B45"/>
<path d="M99.1159 136.774C100.937 136.774 102.197 135.798 102.197 134.38C102.197 133.324 101.504 132.496 100.455 132.298V132.201C101.317 131.98 101.862 131.282 101.862 130.397C101.862 129.103 100.721 128.19 99.1159 128.19C97.5103 128.19 96.37 129.103 96.37 130.397C96.37 131.276 96.926 131.986 97.777 132.201V132.298C96.7274 132.513 96.0409 133.341 96.0409 134.385C96.0409 135.798 97.2947 136.774 99.1159 136.774ZM99.1159 135.719C98.0663 135.719 97.3401 135.129 97.3401 134.278C97.3401 133.421 98.0663 132.831 99.1159 132.831C100.165 132.831 100.892 133.421 100.892 134.278C100.892 135.129 100.165 135.719 99.1159 135.719ZM99.1159 131.793C98.2252 131.793 97.6238 131.276 97.6238 130.522C97.6238 129.756 98.2195 129.234 99.1159 129.234C100.012 129.234 100.614 129.756 100.614 130.522C100.614 131.276 100.007 131.793 99.1159 131.793Z" fill="#222B45"/>
<path d="M96.6354 177.63H97.9062V169.443H96.6411L94.4852 170.963V172.263L96.5389 170.81H96.6354V177.63ZM103.126 177.828C104.89 177.828 106.087 176.677 106.087 174.98C106.087 173.369 104.992 172.234 103.438 172.234C102.661 172.234 102.082 172.495 101.707 172.977H101.611L101.827 170.578H105.611V169.443H100.834L100.403 174.129H101.566C101.883 173.602 102.451 173.289 103.154 173.289C104.153 173.289 104.845 173.987 104.845 175.014C104.845 176.035 104.158 176.711 103.137 176.711C102.241 176.711 101.577 176.183 101.48 175.389H100.272C100.346 176.824 101.498 177.828 103.126 177.828Z" fill="#222B45"/>
<path d="M141.962 49.9414V50.8068H139.735V56.889H138.82V50.8068H136.593V49.9414H141.962ZM145.674 51.6328C146.301 51.6328 146.804 51.8229 147.184 52.2032C147.567 52.5834 147.759 53.0882 147.759 53.7176V56.889H146.894V53.988C146.894 53.5291 146.758 53.162 146.486 52.8866C146.214 52.608 145.85 52.4687 145.394 52.4687C144.919 52.4687 144.539 52.6096 144.253 52.8916C143.968 53.1735 143.826 53.5455 143.826 54.0077V56.889H142.96V49.6365H143.826V52.567C144.242 51.9442 144.858 51.6328 145.674 51.6328ZM153.094 56.4219C152.671 56.8153 152.109 57.012 151.408 57.012C150.706 57.012 150.142 56.8153 149.716 56.4219C149.293 56.0253 149.082 55.5025 149.082 54.8534V51.7557H149.947V54.7354C149.947 55.1681 150.08 55.5172 150.346 55.7827C150.614 56.045 150.968 56.1761 151.408 56.1761C151.847 56.1761 152.199 56.045 152.465 55.7827C152.734 55.5172 152.868 55.1681 152.868 54.7354V51.7557H153.733V54.8534C153.733 55.5025 153.52 56.0253 153.094 56.4219Z" fill="#8F9BB3"/>
<g clip-path="url(#clip0_193_4350)">
<path d="M129.715 25.9186H132.384V26.958H128.163V26.0639L130.46 23.5948C130.666 23.3618 130.824 23.1515 130.936 22.9639C131.051 22.7733 131.109 22.5827 131.109 22.392C131.109 22.1379 131.017 21.9321 130.832 21.7748C130.647 21.6174 130.411 21.5388 130.124 21.5388C129.613 21.5388 129.166 21.799 128.785 22.3194L128.023 21.6023C128.243 21.2453 128.546 20.9608 128.93 20.749C129.315 20.5372 129.734 20.4313 130.188 20.4313C130.793 20.4313 131.287 20.6098 131.672 20.9669C132.059 21.3239 132.253 21.7778 132.253 22.3285C132.253 22.6795 132.178 22.9957 132.03 23.2771C131.882 23.5555 131.681 23.8308 131.427 24.1031L129.715 25.9186ZM136.905 26.6539C136.527 26.9323 136.095 27.0715 135.611 27.0715C135.127 27.0715 134.694 26.9323 134.313 26.6539C133.935 26.3725 133.64 25.9792 133.428 25.4738C133.216 24.9685 133.11 24.3936 133.11 23.7491C133.11 23.1046 133.216 22.5297 133.428 22.0244C133.64 21.5191 133.935 21.1273 134.313 20.8489C134.694 20.5705 135.127 20.4313 135.611 20.4313C136.095 20.4313 136.527 20.5705 136.905 20.8489C137.286 21.1273 137.583 21.5191 137.794 22.0244C138.006 22.5297 138.112 23.1046 138.112 23.7491C138.112 24.3936 138.006 24.9685 137.794 25.4738C137.583 25.9792 137.286 26.3725 136.905 26.6539ZM134.626 25.374C134.884 25.7916 135.212 26.0003 135.611 26.0003C136.011 26.0003 136.337 25.7916 136.592 25.374C136.849 24.9534 136.977 24.4118 136.977 23.7491C136.977 23.0865 136.849 22.5464 136.592 22.1288C136.337 21.7112 136.011 21.5025 135.611 21.5025C135.212 21.5025 134.884 21.7112 134.626 22.1288C134.372 22.5464 134.245 23.0865 134.245 23.7491C134.245 24.4118 134.372 24.9534 134.626 25.374ZM140.327 25.9186H142.996V26.958H138.775V26.0639L141.071 23.5948C141.277 23.3618 141.436 23.1515 141.548 22.9639C141.663 22.7733 141.72 22.5827 141.72 22.392C141.72 22.1379 141.628 21.9321 141.444 21.7748C141.259 21.6174 141.023 21.5388 140.736 21.5388C140.224 21.5388 139.778 21.799 139.397 22.3194L138.634 21.6023C138.855 21.2453 139.158 20.9608 139.542 20.749C139.926 20.5372 140.345 20.4313 140.799 20.4313C141.404 20.4313 141.899 20.6098 142.283 20.9669C142.671 21.3239 142.864 21.7778 142.864 22.3285C142.864 22.6795 142.79 22.9957 142.642 23.2771C142.494 23.5555 142.292 23.8308 142.038 24.1031L140.327 25.9186ZM146.259 22.8323C146.882 22.8323 147.404 23.032 147.825 23.4314C148.249 23.8308 148.46 24.3271 148.46 24.9201C148.46 25.5374 148.23 26.0503 147.771 26.4587C147.314 26.8672 146.733 27.0715 146.028 27.0715C145.628 27.0715 145.233 26.9943 144.843 26.84C144.456 26.6857 144.1 26.4587 143.776 26.1592L144.335 25.2741C144.544 25.5011 144.79 25.6796 145.075 25.8097C145.362 25.9368 145.657 26.0003 145.96 26.0003C146.362 26.0003 146.69 25.8944 146.944 25.6826C147.199 25.4678 147.326 25.2045 147.326 24.8929C147.326 24.5933 147.211 24.3437 146.981 24.144C146.754 23.9443 146.466 23.8444 146.118 23.8444C145.913 23.8444 145.714 23.8823 145.524 23.9579C145.333 24.0336 145.17 24.1349 145.034 24.262L144.058 23.9761L144.371 20.5448H148.016V21.5842H145.301L145.17 23.1092C145.475 22.9246 145.839 22.8323 146.259 22.8323Z" fill="#8F9BB3"/>
<path d="M102.3 12.8803C101.503 12.8803 100.729 12.729 99.9778 12.4264C99.2264 12.1188 98.601 11.7052 98.1018 11.1858L98.8582 10.1192C99.2718 10.563 99.7862 10.9236 100.401 11.2009C101.017 11.4733 101.65 11.6094 102.3 11.6094C103.011 11.6094 103.609 11.4455 104.093 11.1177C104.577 10.7849 104.819 10.3638 104.819 9.85446C104.819 9.71325 104.796 9.57961 104.751 9.45354C104.706 9.32242 104.653 9.20895 104.592 9.11313C104.532 9.01227 104.441 8.91645 104.32 8.82568C104.199 8.72986 104.093 8.65169 104.002 8.59118C103.916 8.53066 103.788 8.46762 103.616 8.40206C103.445 8.33146 103.314 8.28103 103.223 8.25077C103.137 8.21547 102.996 8.17261 102.799 8.12218C102.608 8.0667 102.482 8.0314 102.421 8.01627C102.361 8.00114 102.237 7.97341 102.05 7.93306C101.667 7.85237 101.309 7.75656 100.976 7.64561C100.649 7.52962 100.323 7.38337 100 7.20687C99.6828 7.02532 99.4105 6.82612 99.1835 6.60927C98.9616 6.38737 98.7826 6.12009 98.6464 5.80743C98.5103 5.49476 98.4422 5.15687 98.4422 4.79378C98.4422 3.9062 98.7952 3.18757 99.5012 2.63788C100.212 2.08819 101.128 1.81334 102.247 1.81334C102.983 1.81334 103.657 1.93438 104.267 2.17644C104.882 2.41851 105.381 2.74631 105.765 3.15983L105.084 4.21887C104.791 3.89612 104.385 3.62631 103.866 3.40946C103.352 3.19261 102.807 3.08419 102.232 3.08419C101.556 3.08419 100.996 3.24052 100.553 3.55319C100.114 3.86082 99.8946 4.25669 99.8946 4.74082C99.8946 5.61831 100.747 6.23356 102.451 6.58657C102.638 6.62187 102.817 6.66222 102.988 6.70761C103.165 6.75299 103.387 6.82107 103.654 6.91185C103.926 7.00262 104.174 7.10348 104.395 7.21443C104.622 7.32033 104.854 7.45902 105.091 7.63048C105.333 7.80194 105.538 7.98854 105.704 8.19026C105.871 8.38694 106.007 8.62396 106.113 8.90132C106.224 9.17869 106.279 9.47623 106.279 9.79394C106.279 10.6966 105.898 11.438 105.137 12.0179C104.38 12.5928 103.435 12.8803 102.3 12.8803ZM115.667 8.74247C115.667 8.81811 115.654 9.01479 115.629 9.3325H108.828C108.964 10.0284 109.295 10.5907 109.819 11.0194C110.349 11.443 110.994 11.6548 111.756 11.6548C112.321 11.6548 112.84 11.5363 113.314 11.2993C113.788 11.0572 114.159 10.7471 114.426 10.3688L115.341 11.1556C114.943 11.6901 114.426 12.1112 113.791 12.4188C113.16 12.7265 112.467 12.8803 111.71 12.8803C110.475 12.8803 109.446 12.4819 108.624 11.6851C107.802 10.8883 107.391 9.89732 107.391 8.71221C107.391 7.94567 107.57 7.24973 107.928 6.6244C108.291 5.99402 108.79 5.4998 109.426 5.14175C110.061 4.78369 110.767 4.60466 111.544 4.60466C112.316 4.60466 113.017 4.78369 113.647 5.14175C114.277 5.4998 114.772 5.99654 115.13 6.63196C115.488 7.26234 115.667 7.96584 115.667 8.74247ZM111.529 5.83012C110.843 5.83012 110.25 6.04445 109.751 6.47311C109.252 6.89672 108.939 7.44641 108.813 8.12218H114.252C114.126 7.43632 113.813 6.88411 113.314 6.46554C112.815 6.04193 112.22 5.83012 111.529 5.83012ZM121.771 4.60466C122.901 4.60466 123.844 5.00054 124.6 5.7923C125.357 6.58405 125.735 7.56744 125.735 8.74247C125.735 9.9175 125.357 10.9009 124.6 11.6926C123.844 12.4844 122.901 12.8803 121.771 12.8803C121.126 12.8803 120.538 12.7391 120.009 12.4567C119.479 12.1692 119.045 11.7733 118.708 11.269V15.6338H117.376V4.79378H118.708V6.21591C119.045 5.71161 119.479 5.31825 120.009 5.03584C120.538 4.74839 121.126 4.60466 121.771 4.60466ZM121.522 11.5943C122.334 11.5943 123.009 11.322 123.549 10.7773C124.089 10.2327 124.358 9.5544 124.358 8.74247C124.358 7.93054 124.089 7.25225 123.549 6.70761C123.009 6.16296 122.334 5.89064 121.522 5.89064C120.715 5.89064 120.044 6.16296 119.509 6.70761C118.975 7.25225 118.708 7.93054 118.708 8.74247C118.708 9.5544 118.975 10.2327 119.509 10.7773C120.044 11.322 120.715 11.5943 121.522 11.5943ZM131.582 5.99654H129.207V10.3688C129.207 11.1858 129.631 11.5943 130.478 11.5943C130.846 11.5943 131.214 11.496 131.582 11.2993V12.555C131.184 12.7719 130.723 12.8803 130.198 12.8803C129.437 12.8803 128.859 12.6811 128.466 12.2827C128.073 11.8843 127.876 11.3169 127.876 10.5807V5.99654H126.454V4.79378H127.876V2.66814H129.207V4.79378H131.582V5.99654ZM140.736 8.74247C140.736 8.81811 140.723 9.01479 140.698 9.3325H133.897C134.033 10.0284 134.364 10.5907 134.888 11.0194C135.418 11.443 136.063 11.6548 136.825 11.6548C137.39 11.6548 137.909 11.5363 138.383 11.2993C138.857 11.0572 139.228 10.7471 139.495 10.3688L140.41 11.1556C140.012 11.6901 139.495 12.1112 138.86 12.4188C138.229 12.7265 137.536 12.8803 136.779 12.8803C135.544 12.8803 134.515 12.4819 133.693 11.6851C132.871 10.8883 132.46 9.89732 132.46 8.71221C132.46 7.94567 132.639 7.24973 132.997 6.6244C133.36 5.99402 133.859 5.4998 134.495 5.14175C135.13 4.78369 135.836 4.60466 136.613 4.60466C137.384 4.60466 138.085 4.78369 138.716 5.14175C139.346 5.4998 139.84 5.99654 140.198 6.63196C140.557 7.26234 140.736 7.96584 140.736 8.74247ZM136.598 5.83012C135.912 5.83012 135.319 6.04445 134.82 6.47311C134.321 6.89672 134.008 7.44641 133.882 8.12218H139.321C139.195 7.43632 138.882 6.88411 138.383 6.46554C137.884 6.04193 137.289 5.83012 136.598 5.83012ZM151.878 4.60466C152.786 4.60466 153.51 4.87699 154.049 5.42163C154.594 5.96124 154.866 6.68491 154.866 7.59266V12.6912H153.535V7.96332C153.535 7.33294 153.346 6.83116 152.967 6.45798C152.594 6.07975 152.095 5.89064 151.47 5.89064C150.824 5.89064 150.305 6.08227 149.911 6.46554C149.518 6.84881 149.321 7.35816 149.321 7.99358V12.6912H147.99V7.96332C147.99 7.33294 147.801 6.83116 147.423 6.45798C147.049 6.07975 146.55 5.89064 145.925 5.89064C145.279 5.89064 144.76 6.08227 144.367 6.46554C143.973 6.84881 143.777 7.35816 143.777 7.99358V12.6912H142.445V4.79378H143.777V5.86038C144.377 5.02323 145.239 4.60466 146.364 4.60466C146.979 4.60466 147.516 4.74082 147.975 5.01315C148.434 5.28547 148.779 5.66622 149.011 6.15539C149.309 5.65613 149.702 5.27286 150.191 5.00558C150.685 4.7383 151.248 4.60466 151.878 4.60466ZM161.409 4.60466C162.539 4.60466 163.482 5.00054 164.239 5.7923C164.995 6.58405 165.373 7.56744 165.373 8.74247C165.373 9.9175 164.995 10.9009 164.239 11.6926C163.482 12.4844 162.539 12.8803 161.409 12.8803C160.764 12.8803 160.176 12.7391 159.647 12.4567C159.117 12.1692 158.684 11.7733 158.346 11.269V12.6912H157.014V1.53346H158.346V6.21591C158.684 5.71161 159.117 5.31825 159.647 5.03584C160.176 4.74839 160.764 4.60466 161.409 4.60466ZM161.16 11.5943C161.972 11.5943 162.648 11.322 163.187 10.7773C163.727 10.2327 163.997 9.5544 163.997 8.74247C163.997 7.93054 163.727 7.25225 163.187 6.70761C162.648 6.16296 161.972 5.89064 161.16 5.89064C160.353 5.89064 159.682 6.16296 159.148 6.70761C158.613 7.25225 158.346 7.93054 158.346 8.74247C158.346 9.5544 158.613 10.2327 159.148 10.7773C159.682 11.322 160.353 11.5943 161.16 11.5943ZM174.912 8.74247C174.912 8.81811 174.9 9.01479 174.874 9.3325H168.074C168.21 10.0284 168.54 10.5907 169.065 11.0194C169.594 11.443 170.24 11.6548 171.001 11.6548C171.566 11.6548 172.086 11.5363 172.56 11.2993C173.034 11.0572 173.404 10.7471 173.672 10.3688L174.587 11.1556C174.189 11.6901 173.672 12.1112 173.036 12.4188C172.406 12.7265 171.712 12.8803 170.956 12.8803C169.72 12.8803 168.692 12.4819 167.87 11.6851C167.048 10.8883 166.637 9.89732 166.637 8.71221C166.637 7.94567 166.816 7.24973 167.174 6.6244C167.537 5.99402 168.036 5.4998 168.671 5.14175C169.307 4.78369 170.013 4.60466 170.79 4.60466C171.561 4.60466 172.262 4.78369 172.892 5.14175C173.523 5.4998 174.017 5.99654 174.375 6.63196C174.733 7.26234 174.912 7.96584 174.912 8.74247ZM170.774 5.83012C170.089 5.83012 169.496 6.04445 168.997 6.47311C168.497 6.89672 168.185 7.44641 168.059 8.12218H173.498C173.372 7.43632 173.059 6.88411 172.56 6.46554C172.06 6.04193 171.465 5.83012 170.774 5.83012ZM180.646 4.66518H180.911V6.04193H180.646C179.814 6.04193 179.156 6.28651 178.672 6.77569C178.193 7.25982 177.953 7.91541 177.953 8.74247V12.6912H176.622V4.79378H177.953V6.15539C178.573 5.16192 179.471 4.66518 180.646 4.66518Z" fill="#222B45"/>
</g>
<path d="M142.591 90.5598V90.5882H144.18V90.5542C144.18 89.7996 144.724 89.2776 145.519 89.2776C146.268 89.2776 146.801 89.7429 146.801 90.401C146.801 90.9343 146.512 91.3598 145.36 92.4831L142.688 95.0986V96.2957H148.594V94.8716H145.008V94.7695L146.574 93.2774C147.992 91.9441 148.475 91.1782 148.475 90.2875C148.475 88.8805 147.283 87.899 145.575 87.899C143.805 87.899 142.591 88.977 142.591 90.5598Z" fill="white"/>
<path d="M145.434 136.774C147.482 136.774 148.679 135.146 148.679 132.371C148.679 131.378 148.509 130.539 148.174 129.881C147.646 128.78 146.693 128.19 145.485 128.19C143.749 128.19 142.517 129.376 142.517 131.049C142.517 132.627 143.652 133.778 145.212 133.778C146.183 133.778 146.965 133.324 147.357 132.536H147.38C147.38 132.536 147.402 132.536 147.408 132.536C147.414 132.536 147.453 132.536 147.453 132.536C147.431 134.51 146.699 135.645 145.445 135.645C144.696 135.645 144.117 135.236 143.919 134.567H142.637C142.886 135.906 143.981 136.774 145.434 136.774ZM145.49 132.7C144.486 132.7 143.783 131.997 143.783 131.004C143.783 130.045 144.526 129.308 145.502 129.308C146.472 129.308 147.215 130.051 147.215 131.032C147.215 131.997 146.489 132.7 145.49 132.7Z" fill="#222B45"/>
<path d="M141.836 176.855H143.107V168.668H141.842L139.686 170.189V171.488L141.74 170.036H141.836V176.855ZM148.514 177.054C150.25 177.054 151.481 175.862 151.481 174.194C151.481 172.611 150.347 171.465 148.792 171.465C147.822 171.465 147.039 171.913 146.642 172.702H146.545C146.574 170.733 147.3 169.593 148.559 169.593C149.303 169.593 149.881 170.002 150.086 170.671H151.362C151.113 169.332 150.018 168.47 148.571 168.47C146.523 168.47 145.326 170.092 145.326 172.867C145.326 173.865 145.49 174.699 145.825 175.357C146.358 176.452 147.3 177.054 148.514 177.054ZM148.503 175.936C147.527 175.936 146.784 175.187 146.784 174.211C146.784 173.241 147.51 172.538 148.508 172.538C149.513 172.538 150.222 173.241 150.222 174.234C150.222 175.198 149.479 175.936 148.503 175.936Z" fill="#222B45"/>
<path d="M185.672 50.8068H182.196V53.0243H185.259V53.8897H182.196V56.889H181.272V49.9414H185.672V50.8068ZM189.296 51.6721H189.468V52.567H189.296C188.755 52.567 188.328 52.726 188.013 53.044C187.702 53.3587 187.546 53.7848 187.546 54.3224V56.889H186.68V51.7557H187.546V52.6408C187.949 51.995 188.532 51.6721 189.296 51.6721ZM190.84 50.7281C190.673 50.7281 190.534 50.674 190.422 50.5658C190.311 50.4544 190.255 50.3167 190.255 50.1528C190.255 49.9856 190.311 49.848 190.422 49.7398C190.534 49.6316 190.673 49.5775 190.84 49.5775C191.004 49.5775 191.14 49.6316 191.248 49.7398C191.356 49.848 191.411 49.9856 191.411 50.1528C191.411 50.3167 191.355 50.4544 191.243 50.5658C191.135 50.674 191.001 50.7281 190.84 50.7281ZM190.407 56.889V51.7557H191.273V56.889H190.407Z" fill="#8F9BB3"/>
<path d="M182.532 136.575H183.803V128.389H182.538L180.382 129.909V131.208L182.436 129.756H182.532V136.575ZM189.079 136.774C190.985 136.774 192.097 135.202 192.097 132.485C192.097 129.773 190.968 128.19 189.079 128.19C187.179 128.19 186.049 129.767 186.049 132.473C186.049 135.197 187.167 136.774 189.079 136.774ZM189.079 135.662C187.967 135.662 187.332 134.544 187.332 132.473C187.332 130.425 187.978 129.302 189.079 129.302C190.18 129.302 190.815 130.42 190.815 132.473C190.815 134.55 190.191 135.662 189.079 135.662Z" fill="#222B45"/>
<path d="M181.756 176.855H183.027V168.668H181.761L179.606 170.189V171.488L181.659 170.036H181.756V176.855ZM185.727 176.855H187.06L190.623 169.82V168.668H185.188V169.797H189.353V169.894L185.727 176.855Z" fill="#222B45"/>
<path d="M220.71 57.012C220.192 57.012 219.689 56.9136 219.2 56.7169C218.712 56.517 218.305 56.2482 217.981 55.9106L218.473 55.2173C218.741 55.5057 219.076 55.7401 219.476 55.9204C219.876 56.0974 220.287 56.1859 220.71 56.1859C221.172 56.1859 221.56 56.0794 221.875 55.8663C222.19 55.65 222.347 55.3763 222.347 55.0452C222.347 54.9534 222.332 54.8665 222.303 54.7846C222.273 54.6994 222.239 54.6256 222.2 54.5633C222.16 54.4978 222.101 54.4355 222.023 54.3765C221.944 54.3142 221.875 54.2634 221.816 54.224C221.76 54.1847 221.677 54.1437 221.565 54.1011C221.454 54.0552 221.369 54.0225 221.31 54.0028C221.254 53.9798 221.162 53.952 221.034 53.9192C220.91 53.8831 220.828 53.8602 220.788 53.8504C220.749 53.8405 220.669 53.8225 220.548 53.7963C220.298 53.7438 220.066 53.6815 219.849 53.6094C219.636 53.534 219.425 53.439 219.215 53.3242C219.009 53.2062 218.832 53.0768 218.684 52.9358C218.54 52.7916 218.423 52.6178 218.335 52.4146C218.246 52.2114 218.202 51.9918 218.202 51.7557C218.202 51.1788 218.432 50.7117 218.891 50.3544C219.353 49.9971 219.948 49.8185 220.675 49.8185C221.154 49.8185 221.592 49.8971 221.988 50.0545C222.388 50.2118 222.713 50.4249 222.962 50.6937L222.519 51.382C222.329 51.1723 222.065 50.9969 221.728 50.8559C221.393 50.715 221.039 50.6445 220.666 50.6445C220.226 50.6445 219.862 50.7461 219.574 50.9494C219.289 51.1493 219.146 51.4066 219.146 51.7213C219.146 52.2917 219.7 52.6916 220.808 52.9211C220.929 52.944 221.046 52.9702 221.157 52.9997C221.272 53.0292 221.416 53.0735 221.59 53.1325C221.767 53.1915 221.928 53.257 222.072 53.3292C222.219 53.398 222.37 53.4881 222.524 53.5996C222.682 53.711 222.814 53.8323 222.922 53.9634C223.031 54.0913 223.119 54.2454 223.188 54.4256C223.26 54.6059 223.296 54.7993 223.296 55.0058C223.296 55.5926 223.049 56.0745 222.554 56.4514C222.062 56.8251 221.447 57.012 220.71 57.012ZM228.602 51.7557H229.467V56.889H228.602V55.9647C228.382 56.2924 228.098 56.5498 227.751 56.7366C227.407 56.9202 227.025 57.012 226.605 57.012C226.123 57.012 225.686 56.8956 225.292 56.6629C224.899 56.4268 224.591 56.104 224.368 55.6942C224.148 55.2812 224.039 54.8239 224.039 54.3224C224.039 53.8209 224.148 53.3652 224.368 52.9555C224.591 52.5425 224.899 52.2196 225.292 51.9868C225.686 51.7508 226.123 51.6328 226.605 51.6328C227.025 51.6328 227.407 51.7262 227.751 51.9131C228.098 52.0966 228.382 52.3523 228.602 52.6801V51.7557ZM226.768 56.1761C227.292 56.1761 227.728 55.9991 228.075 55.645C228.426 55.291 228.602 54.8501 228.602 54.3224C228.602 53.7946 228.426 53.3537 228.075 52.9997C227.728 52.6457 227.292 52.4687 226.768 52.4687C226.24 52.4687 225.801 52.6457 225.45 52.9997C225.099 53.3537 224.924 53.7946 224.924 54.3224C224.924 54.8501 225.099 55.291 225.45 55.645C225.801 55.9991 226.24 56.1761 226.768 56.1761ZM233.902 52.5375H232.358V55.3795C232.358 55.9106 232.633 56.1761 233.184 56.1761C233.423 56.1761 233.663 56.1122 233.902 55.9843V56.8005C233.643 56.9415 233.343 57.012 233.002 57.012C232.507 57.012 232.132 56.8825 231.876 56.6235C231.621 56.3646 231.493 55.9958 231.493 55.5172V52.5375H230.568V51.7557H231.493V50.3741H232.358V51.7557H233.902V52.5375Z" fill="#8F9BB3"/>
<path d="M223.002 137.35H224.272V129.163H223.007L220.851 130.684V131.983L222.905 130.531H223.002V137.35ZM228.618 137.35H229.889V129.163H228.624L226.468 130.684V131.983L228.522 130.531H228.618V137.35Z" fill="#222B45"/>
<path d="M221.593 177.63H222.864V169.443H221.599L219.443 170.963V172.263L221.497 170.81H221.593V177.63ZM228.186 177.828C230.007 177.828 231.266 176.852 231.266 175.434C231.266 174.379 230.574 173.55 229.524 173.352V173.255C230.387 173.034 230.931 172.336 230.931 171.451C230.931 170.158 229.791 169.244 228.186 169.244C226.58 169.244 225.44 170.158 225.44 171.451C225.44 172.331 225.996 173.04 226.847 173.255V173.352C225.797 173.567 225.111 174.396 225.111 175.44C225.111 176.852 226.364 177.828 228.186 177.828ZM228.186 176.773C227.136 176.773 226.41 176.183 226.41 175.332C226.41 174.475 227.136 173.885 228.186 173.885C229.235 173.885 229.961 174.475 229.961 175.332C229.961 176.183 229.235 176.773 228.186 176.773ZM228.186 172.847C227.295 172.847 226.693 172.331 226.693 171.576C226.693 170.81 227.289 170.288 228.186 170.288C229.082 170.288 229.683 170.81 229.683 171.576C229.683 172.331 229.076 172.847 228.186 172.847Z" fill="#222B45"/>
<path d="M261.764 57.012C261.246 57.012 260.743 56.9136 260.255 56.7169C259.766 56.517 259.36 56.2482 259.035 55.9106L259.527 55.2173C259.796 55.5057 260.13 55.7401 260.53 55.9204C260.93 56.0974 261.341 56.1859 261.764 56.1859C262.226 56.1859 262.615 56.0794 262.93 55.8663C263.244 55.65 263.402 55.3763 263.402 55.0452C263.402 54.9534 263.387 54.8665 263.357 54.7846C263.328 54.6994 263.293 54.6256 263.254 54.5633C263.215 54.4978 263.156 54.4355 263.077 54.3765C262.998 54.3142 262.93 54.2634 262.871 54.224C262.815 54.1847 262.731 54.1437 262.62 54.1011C262.508 54.0552 262.423 54.0225 262.364 54.0028C262.308 53.9798 262.217 53.952 262.089 53.9192C261.964 53.8831 261.882 53.8602 261.843 53.8504C261.804 53.8405 261.723 53.8225 261.602 53.7963C261.353 53.7438 261.12 53.6815 260.904 53.6094C260.691 53.534 260.479 53.439 260.27 53.3242C260.063 53.2062 259.886 53.0768 259.738 52.9358C259.594 52.7916 259.478 52.6178 259.389 52.4146C259.301 52.2114 259.257 51.9918 259.257 51.7557C259.257 51.1788 259.486 50.7117 259.945 50.3544C260.407 49.9971 261.002 49.8185 261.73 49.8185C262.208 49.8185 262.646 49.8971 263.043 50.0545C263.443 50.2118 263.767 50.4249 264.016 50.6937L263.574 51.382C263.384 51.1723 263.12 50.9969 262.782 50.8559C262.448 50.715 262.094 50.6445 261.72 50.6445C261.281 50.6445 260.917 50.7461 260.628 50.9494C260.343 51.1493 260.201 51.4066 260.201 51.7213C260.201 52.2917 260.755 52.6916 261.863 52.9211C261.984 52.944 262.1 52.9702 262.212 52.9997C262.326 53.0292 262.471 53.0735 262.644 53.1325C262.821 53.1915 262.982 53.257 263.126 53.3292C263.274 53.398 263.425 53.4881 263.579 53.5996C263.736 53.711 263.869 53.8323 263.977 53.9634C264.085 54.0913 264.174 54.2454 264.242 54.4256C264.315 54.6059 264.351 54.7993 264.351 55.0058C264.351 55.5926 264.103 56.0745 263.608 56.4514C263.116 56.8251 262.502 57.012 261.764 57.012ZM269.307 56.4219C268.884 56.8153 268.322 57.012 267.62 57.012C266.919 57.012 266.355 56.8153 265.929 56.4219C265.506 56.0253 265.295 55.5025 265.295 54.8534V51.7557H266.16V54.7354C266.16 55.1681 266.293 55.5172 266.558 55.7827C266.827 56.045 267.181 56.1761 267.62 56.1761C268.06 56.1761 268.412 56.045 268.677 55.7827C268.946 55.5172 269.081 55.1681 269.081 54.7354V51.7557H269.946V54.8534C269.946 55.5025 269.733 56.0253 269.307 56.4219ZM274.052 51.6328C274.678 51.6328 275.181 51.8229 275.561 52.2032C275.945 52.5834 276.137 53.0882 276.137 53.7176V56.889H275.271V53.988C275.271 53.5291 275.135 53.162 274.863 52.8866C274.591 52.608 274.227 52.4687 273.771 52.4687C273.296 52.4687 272.916 52.6096 272.631 52.8916C272.346 53.1735 272.203 53.5455 272.203 54.0077V56.889H271.338V51.7557H272.203V52.5375C272.619 51.9344 273.236 51.6328 274.052 51.6328Z" fill="#8F9BB3"/>
<rect x="174" y="81" width="105.238" height="23" rx="10" fill="#91D8C1" fill-opacity="0.5"/>
<path d="M184.812 93.0775H185.845C186.917 93.0775 187.581 93.6052 187.581 94.4505C187.581 95.2561 186.877 95.8291 185.879 95.8291C184.886 95.8291 184.205 95.3242 184.126 94.5299H182.906C182.98 95.9937 184.16 96.9525 185.879 96.9525C187.586 96.9525 188.88 95.9086 188.88 94.5186C188.88 93.4236 188.199 92.6577 187.081 92.5272V92.4308C187.984 92.2265 188.545 91.5003 188.545 90.5358C188.545 89.3047 187.377 88.3686 185.856 88.3686C184.216 88.3686 183.15 89.282 183.065 90.7628H184.273C184.341 89.9572 184.926 89.4636 185.816 89.4636C186.707 89.4636 187.291 89.9628 187.291 90.7231C187.291 91.4947 186.684 92.028 185.805 92.028H184.812V93.0775Z" fill="#2B7C7E"/>
<path d="M227.436 96.7539H228.662V95.171H229.791V94.0363H228.662V88.5672H226.852C225.394 90.7514 224.174 92.652 223.442 93.991V95.171H227.436V96.7539ZM224.662 93.9853C225.626 92.3116 226.568 90.8592 227.379 89.6848H227.453V94.0647H224.662V93.9853Z" fill="#2B7C7E"/>
<path d="M267.399 96.9525C269.164 96.9525 270.361 95.8008 270.361 94.1044C270.361 92.4932 269.266 91.3585 267.711 91.3585C266.934 91.3585 266.355 91.6195 265.981 92.1017H265.884L266.1 89.7019H269.884V88.5672H265.107L264.676 93.2534H265.839C266.157 92.7258 266.724 92.4137 267.428 92.4137C268.426 92.4137 269.118 93.1116 269.118 94.1385C269.118 95.1597 268.432 95.8348 267.411 95.8348C266.514 95.8348 265.85 95.3072 265.754 94.5129H264.546C264.619 95.9483 265.771 96.9525 267.399 96.9525Z" fill="#2B7C7E"/>
<path d="M264.048 136.575H265.318V128.389H264.053L261.897 129.909V131.208L263.951 129.756H264.048V136.575ZM267.633 130.754V130.771H268.836V130.754C268.836 129.881 269.443 129.291 270.345 129.291C271.19 129.291 271.831 129.852 271.831 130.601C271.831 131.203 271.565 131.634 270.47 132.774L267.701 135.656V136.575H273.216V135.435H269.471V135.339L271.292 133.495C272.665 132.105 273.085 131.395 273.085 130.527C273.085 129.177 271.939 128.19 270.385 128.19C268.773 128.19 267.633 129.245 267.633 130.754Z" fill="#222B45"/>
<path d="M264.225 176.855H265.496V168.668H264.231L262.075 170.189V171.488L264.128 170.036H264.225V176.855ZM270.63 177.054C272.678 177.054 273.875 175.425 273.875 172.651C273.875 171.658 273.705 170.818 273.37 170.16C272.843 169.06 271.89 168.47 270.681 168.47C268.945 168.47 267.714 169.655 267.714 171.329C267.714 172.906 268.849 174.058 270.409 174.058C271.379 174.058 272.162 173.604 272.553 172.816H272.576C272.576 172.816 272.599 172.816 272.605 172.816C272.61 172.816 272.65 172.816 272.65 172.816C272.627 174.79 271.895 175.925 270.642 175.925C269.893 175.925 269.314 175.516 269.115 174.847H267.833C268.083 176.186 269.178 177.054 270.63 177.054ZM270.687 172.98C269.683 172.98 268.979 172.277 268.979 171.284C268.979 170.325 269.722 169.587 270.698 169.587C271.668 169.587 272.412 170.331 272.412 171.312C272.412 172.277 271.685 172.98 270.687 172.98Z" fill="#222B45"/>
<path d="M3.49439 212.088V212.105H4.69715V212.088C4.69715 211.215 5.30421 210.625 6.20628 210.625C7.05162 210.625 7.69271 211.186 7.69271 211.935C7.69271 212.537 7.42606 212.968 6.3311 214.108L3.56247 216.99V217.909H9.07703V216.769H5.33258V216.672L7.15374 214.829C8.5267 213.439 8.94654 212.729 8.94654 211.861C8.94654 210.511 7.80051 209.524 6.24599 209.524C4.63475 209.524 3.49439 210.579 3.49439 212.088ZM13.6384 218.108C15.5447 218.108 16.6567 216.536 16.6567 213.819C16.6567 211.107 15.5277 209.524 13.6384 209.524C11.7379 209.524 10.6088 211.101 10.6088 213.807C10.6088 216.531 11.7265 218.108 13.6384 218.108ZM13.6384 216.996C12.5265 216.996 11.891 215.878 11.891 213.807C11.891 211.759 12.5378 210.636 13.6384 210.636C14.7391 210.636 15.3745 211.754 15.3745 213.807C15.3745 215.884 14.7504 216.996 13.6384 216.996Z" fill="#222B45"/>
<path d="M49.7735 211.314V211.331H50.9763V211.314C50.9763 210.44 51.5833 209.85 52.4854 209.85C53.3307 209.85 53.9718 210.412 53.9718 211.161C53.9718 211.762 53.7052 212.193 52.6102 213.334L49.8416 216.216V217.135H55.3562V215.994H51.6117V215.898L53.4329 214.054C54.8058 212.664 55.2257 211.955 55.2257 211.087C55.2257 209.737 54.0796 208.749 52.5251 208.749C50.9139 208.749 49.7735 209.805 49.7735 211.314ZM58.9871 217.135H60.258V208.948H58.9928L56.8369 210.469V211.768L58.8907 210.315H58.9871V217.135Z" fill="#222B45"/>
<path d="M93.1431 211.314V211.331H94.3459V211.314C94.3459 210.44 94.9529 209.85 95.855 209.85C96.7004 209.85 97.3415 210.412 97.3415 211.161C97.3415 211.762 97.0748 212.193 95.9798 213.334L93.2112 216.216V217.135H98.7258V215.994H94.9813V215.898L96.8025 214.054C98.1754 212.664 98.5953 211.955 98.5953 211.087C98.5953 209.737 97.4492 208.749 95.8947 208.749C94.2835 208.749 93.1431 209.805 93.1431 211.314ZM100.326 211.314V211.331H101.528V211.314C101.528 210.44 102.135 209.85 103.038 209.85C103.883 209.85 104.524 210.412 104.524 211.161C104.524 211.762 104.257 212.193 103.162 213.334L100.394 216.216V217.135H105.908V215.994H102.164V215.898L103.985 214.054C105.358 212.664 105.778 211.955 105.778 211.087C105.778 209.737 104.632 208.749 103.077 208.749C101.466 208.749 100.326 209.805 100.326 211.314Z" fill="#222B45"/>
<path d="M139.478 212.088V212.105H140.681V212.088C140.681 211.215 141.288 210.625 142.19 210.625C143.035 210.625 143.676 211.186 143.676 211.935C143.676 212.537 143.41 212.968 142.315 214.108L139.546 216.99V217.909H145.06V216.769H141.316V216.672L143.137 214.829C144.51 213.439 144.93 212.729 144.93 211.861C144.93 210.511 143.784 209.524 142.229 209.524C140.618 209.524 139.478 210.579 139.478 212.088ZM148.516 214.233H149.548C150.62 214.233 151.284 214.761 151.284 215.606C151.284 216.412 150.581 216.985 149.582 216.985C148.589 216.985 147.909 216.48 147.829 215.685H146.609C146.683 217.149 147.863 218.108 149.582 218.108C151.29 218.108 152.583 217.064 152.583 215.674C152.583 214.579 151.903 213.813 150.785 213.683V213.586C151.687 213.382 152.249 212.656 152.249 211.691C152.249 210.46 151.08 209.524 149.56 209.524C147.92 209.524 146.853 210.437 146.768 211.918H147.977C148.045 211.113 148.629 210.619 149.52 210.619C150.411 210.619 150.995 211.118 150.995 211.878C150.995 212.65 150.388 213.183 149.508 213.183H148.516V214.233Z" fill="#222B45"/>
<path d="M178.494 211.314V211.331H179.696V211.314C179.696 210.44 180.303 209.85 181.205 209.85C182.051 209.85 182.692 210.412 182.692 211.161C182.692 211.762 182.425 212.193 181.33 213.334L178.562 216.216V217.135H184.076V215.994H180.332V215.898L182.153 214.054C183.526 212.664 183.946 211.955 183.946 211.087C183.946 209.737 182.8 208.749 181.245 208.749C179.634 208.749 178.494 209.805 178.494 211.314ZM189.511 217.135H190.737V215.552H191.866V214.417H190.737V208.948H188.927C187.469 211.132 186.249 213.033 185.517 214.372V215.552H189.511V217.135ZM186.737 214.366C187.701 212.692 188.643 211.24 189.455 210.066H189.528V214.446H186.737V214.366Z" fill="#222B45"/>
<path d="M219.308 212.088V212.105H220.511V212.088C220.511 211.215 221.118 210.625 222.02 210.625C222.865 210.625 223.506 211.186 223.506 211.935C223.506 212.537 223.24 212.968 222.145 214.108L219.376 216.99V217.909H224.891V216.769H221.146V216.672L222.968 214.829C224.34 213.439 224.76 212.729 224.76 211.861C224.76 210.511 223.614 209.524 222.06 209.524C220.449 209.524 219.308 210.579 219.308 212.088ZM229.395 218.108C231.16 218.108 232.357 216.956 232.357 215.26C232.357 213.649 231.262 212.514 229.708 212.514C228.93 212.514 228.352 212.775 227.977 213.257H227.881L228.096 210.857H231.88V209.723H227.103L226.672 214.409H227.835C228.153 213.881 228.72 213.569 229.424 213.569C230.422 213.569 231.115 214.267 231.115 215.294C231.115 216.315 230.428 216.99 229.407 216.99C228.51 216.99 227.847 216.463 227.75 215.668H226.542C226.616 217.104 227.767 218.108 229.395 218.108Z" fill="#222B45"/>
<path d="M260.636 211.314V211.331H261.839V211.314C261.839 210.44 262.446 209.85 263.348 209.85C264.193 209.85 264.835 210.412 264.835 211.161C264.835 211.762 264.568 212.193 263.473 213.334L260.704 216.216V217.135H266.219V215.994H262.474V215.898L264.296 214.054C265.669 212.664 266.088 211.955 266.088 211.087C266.088 209.737 264.942 208.749 263.388 208.749C261.777 208.749 260.636 209.805 260.636 211.314ZM270.911 217.333C272.647 217.333 273.878 216.142 273.878 214.474C273.878 212.891 272.743 211.745 271.189 211.745C270.219 211.745 269.436 212.193 269.039 212.982H268.942C268.97 211.013 269.697 209.873 270.956 209.873C271.699 209.873 272.278 210.281 272.482 210.951H273.759C273.509 209.612 272.414 208.749 270.967 208.749C268.919 208.749 267.722 210.372 267.722 213.146C267.722 214.145 267.887 214.979 268.222 215.637C268.755 216.732 269.697 217.333 270.911 217.333ZM270.899 216.216C269.924 216.216 269.18 215.467 269.18 214.491C269.18 213.521 269.907 212.817 270.905 212.817C271.909 212.817 272.618 213.521 272.618 214.514C272.618 215.478 271.875 216.216 270.899 216.216Z" fill="#222B45"/>
<path d="M4.26729 252.368V252.385H5.47005V252.368C5.47005 251.494 6.07711 250.904 6.97918 250.904C7.82452 250.904 8.46561 251.466 8.46561 252.215C8.46561 252.816 8.19896 253.247 7.104 254.388L4.33537 257.27V258.189H9.84993V257.049H6.10548V256.952L7.92664 255.108C9.29961 253.718 9.71944 253.009 9.71944 252.141C9.71944 250.791 8.57341 249.804 7.0189 249.804C5.40765 249.804 4.26729 250.859 4.26729 252.368ZM11.8356 258.189H13.1689L16.7318 251.154V250.002H11.2966V251.131H15.4609V251.228L11.8356 258.189Z" fill="#222B45"/>
<path d="M48.3649 251.594V251.611H49.5677V251.594C49.5677 250.72 50.1747 250.13 51.0768 250.13C51.9221 250.13 52.5632 250.691 52.5632 251.44C52.5632 252.042 52.2966 252.473 51.2016 253.613L48.433 256.495V257.414H53.9475V256.274H50.2031V256.178L52.0243 254.334C53.3972 252.944 53.817 252.235 53.817 251.367C53.817 250.016 52.671 249.029 51.1165 249.029C49.5053 249.029 48.3649 250.084 48.3649 251.594ZM58.5543 257.613C60.3755 257.613 61.635 256.637 61.635 255.219C61.635 254.164 60.9429 253.335 59.8933 253.137V253.04C60.7556 252.819 61.3003 252.121 61.3003 251.236C61.3003 249.943 60.1599 249.029 58.5543 249.029C56.9488 249.029 55.8084 249.943 55.8084 251.236C55.8084 252.115 56.3644 252.825 57.2154 253.04V253.137C56.1658 253.352 55.4794 254.181 55.4794 255.224C55.4794 256.637 56.7332 257.613 58.5543 257.613ZM58.5543 256.558C57.5048 256.558 56.7786 255.968 56.7786 255.117C56.7786 254.26 57.5048 253.67 58.5543 253.67C59.6039 253.67 60.3301 254.26 60.3301 255.117C60.3301 255.968 59.6039 256.558 58.5543 256.558ZM58.5543 252.632C57.6636 252.632 57.0622 252.115 57.0622 251.361C57.0622 250.595 57.6579 250.073 58.5543 250.073C59.4507 250.073 60.0521 250.595 60.0521 251.361C60.0521 252.115 59.4451 252.632 58.5543 252.632Z" fill="#222B45"/>
<path d="M92.5461 251.594V251.611H93.7489V251.594C93.7489 250.72 94.3559 250.13 95.258 250.13C96.1033 250.13 96.7444 250.691 96.7444 251.44C96.7444 252.042 96.4778 252.473 95.3828 253.613L92.6142 256.495V257.414H98.1287V256.274H94.3843V256.178L96.2055 254.334C97.5784 252.944 97.9982 252.235 97.9982 251.367C97.9982 250.016 96.8522 249.029 95.2977 249.029C93.6865 249.029 92.5461 250.084 92.5461 251.594ZM102.548 257.613C104.596 257.613 105.794 255.985 105.794 253.21C105.794 252.218 105.623 251.378 105.289 250.72C104.761 249.619 103.808 249.029 102.599 249.029C100.863 249.029 99.6322 250.215 99.6322 251.889C99.6322 253.466 100.767 254.617 102.327 254.617C103.297 254.617 104.08 254.164 104.472 253.375H104.494C104.494 253.375 104.517 253.375 104.523 253.375C104.528 253.375 104.568 253.375 104.568 253.375C104.545 255.349 103.813 256.484 102.56 256.484C101.811 256.484 101.232 256.076 101.034 255.406H99.7513C100.001 256.745 101.096 257.613 102.548 257.613ZM102.605 253.539C101.601 253.539 100.897 252.836 100.897 251.843C100.897 250.884 101.641 250.147 102.616 250.147C103.587 250.147 104.33 250.89 104.33 251.872C104.33 252.836 103.604 253.539 102.605 253.539Z" fill="#222B45"/>
<path d="M140.001 253.738H141.034C142.106 253.738 142.77 254.266 142.77 255.111C142.77 255.917 142.066 256.49 141.068 256.49C140.075 256.49 139.394 255.985 139.315 255.19H138.095C138.169 256.654 139.349 257.613 141.068 257.613C142.775 257.613 144.069 256.569 144.069 255.179C144.069 254.084 143.388 253.318 142.27 253.188V253.091C143.173 252.887 143.734 252.161 143.734 251.196C143.734 249.965 142.565 249.029 141.045 249.029C139.405 249.029 138.339 249.943 138.254 251.423H139.462C139.53 250.618 140.115 250.124 141.005 250.124C141.896 250.124 142.48 250.623 142.48 251.384C142.48 252.155 141.873 252.688 140.994 252.688H140.001V253.738ZM148.551 257.613C150.457 257.613 151.569 256.041 151.569 253.324C151.569 250.612 150.44 249.029 148.551 249.029C146.65 249.029 145.521 250.606 145.521 253.313C145.521 256.036 146.639 257.613 148.551 257.613ZM148.551 256.501C147.439 256.501 146.804 255.383 146.804 253.313C146.804 251.264 147.45 250.141 148.551 250.141C149.652 250.141 150.287 251.259 150.287 253.313C150.287 255.389 149.663 256.501 148.551 256.501Z" fill="#222B45"/>
<path d="M182.396 253.738H183.428C184.501 253.738 185.164 254.266 185.164 255.111C185.164 255.917 184.461 256.49 183.462 256.49C182.47 256.49 181.789 255.985 181.709 255.19H180.49C180.563 256.654 181.743 257.613 183.462 257.613C185.17 257.613 186.464 256.569 186.464 255.179C186.464 254.084 185.783 253.318 184.665 253.188V253.091C185.567 252.887 186.129 252.161 186.129 251.196C186.129 249.965 184.96 249.029 183.44 249.029C181.8 249.029 180.734 249.943 180.648 251.423H181.857C181.925 250.618 182.509 250.124 183.4 250.124C184.291 250.124 184.875 250.623 184.875 251.384C184.875 252.155 184.268 252.688 183.389 252.688H182.396V253.738ZM190.038 257.414H191.309V249.228H190.044L187.888 250.748V252.047L189.941 250.595H190.038V257.414Z" fill="#222B45"/>
<path d="M225.423 258.189H226.693V250.002H225.428L223.272 251.523V252.822L225.326 251.37H225.423V258.189Z" fill="#8F9BB3"/>
<path d="M264.437 251.594V251.611H265.64V251.594C265.64 250.72 266.247 250.13 267.149 250.13C267.995 250.13 268.636 250.691 268.636 251.44C268.636 252.042 268.369 252.473 267.274 253.613L264.505 256.495V257.414H270.02V256.274H266.276V256.178L268.097 254.334C269.47 252.944 269.89 252.235 269.89 251.367C269.89 250.016 268.743 249.029 267.189 249.029C265.578 249.029 264.437 250.084 264.437 251.594Z" fill="#8F9BB3"/>
<circle cx="99.5553" cy="268.962" r="1.14642" stroke="#735BF2" stroke-width="0.929531"/>
<circle cx="104.389" cy="268.962" r="1.14642" stroke="#0095FF" stroke-width="0.929531"/>
<circle cx="94.7218" cy="268.962" r="1.14642" stroke="#00B383" stroke-width="0.929531"/>
<rect x="254.865" y="1.13352" width="25.5621" height="25.5621" rx="7.35879" stroke="#F4F5F7" stroke-width="0.77461"/>
<rect x="29.0194" y="26.6956" width="25.5621" height="25.5621" rx="7.35879" transform="rotate(180 29.0194 26.6956)" stroke="#F4F5F7" stroke-width="0.77461"/>
<g clip-path="url(#clip1_193_4350)">
<path d="M271.472 13.9147C271.472 14.0929 271.397 14.2711 271.248 14.407L266.551 18.6832C266.252 18.9552 265.768 18.9552 265.469 18.6832C265.171 18.4113 265.171 17.9703 265.469 17.6983L269.625 13.9147L265.469 10.131C265.171 9.85903 265.171 9.41813 265.469 9.14624C265.768 8.87409 266.253 8.87409 266.551 9.14624L271.248 13.4223C271.397 13.5583 271.472 13.7365 271.472 13.9147V13.9147Z" fill="#222B45"/>
</g>
<g clip-path="url(#clip2_193_4350)">
<path d="M12.4127 13.9147C12.4127 13.7364 12.4874 13.5582 12.6366 13.4223L17.3334 9.14615C17.6321 8.87413 18.1165 8.87413 18.4152 9.14615C18.7138 9.41806 18.7138 9.85901 18.4152 10.1311L14.2593 13.9147L18.415 17.6983C18.7137 17.9703 18.7137 18.4112 18.415 18.6831C18.1164 18.9553 17.632 18.9553 17.3332 18.6831L12.6365 14.407C12.4873 14.271 12.4127 14.0928 12.4127 13.9147V13.9147Z" fill="#222B45"/>
</g>
<circle cx="185.754" cy="268.962" r="1.14642" stroke="#735BF2" stroke-width="0.929531"/>
<circle cx="146.28" cy="228.683" r="1.14642" stroke="#735BF2" stroke-width="0.929531"/>
<circle cx="190.587" cy="268.962" r="1.14642" stroke="#0095FF" stroke-width="0.929531"/>
<circle cx="180.92" cy="268.962" r="1.14642" stroke="#00B383" stroke-width="0.929531"/>
<circle cx="99.5553" cy="228.683" r="1.14642" stroke="#735BF2" stroke-width="0.929531"/>
<circle cx="94.7218" cy="228.683" r="1.14642" stroke="#0095FF" stroke-width="0.929531"/>
<circle cx="104.389" cy="228.683" r="1.14642" stroke="#00B383" stroke-width="0.929531"/>
<circle cx="7.65562" cy="228.683" r="1.14642" stroke="#735BF2" stroke-width="0.929531"/>
<circle cx="12.4891" cy="228.683" r="1.14642" stroke="#00B383" stroke-width="0.929531"/>
<circle cx="97.944" cy="188.403" r="1.14642" stroke="#735BF2" stroke-width="0.929531"/>
<circle cx="102.778" cy="188.403" r="1.14642" stroke="#00B383" stroke-width="0.929531"/>
<circle cx="13.3568" cy="188.403" r="1.14642" stroke="#735BF2" stroke-width="0.929531"/>
<circle cx="8.52305" cy="188.403" r="1.14642" stroke="#0095FF" stroke-width="0.929531"/>
<circle cx="99.5553" cy="148.123" r="1.14642" stroke="#735BF2" stroke-width="0.929531"/>
<circle cx="184.948" cy="188.403" r="1.14642" stroke="#00B383" stroke-width="0.929531"/>
<circle cx="185.754" cy="148.123" r="1.14642" stroke="#735BF2" stroke-width="0.929531"/>
<circle cx="180.92" cy="148.123" r="1.14642" stroke="#0095FF" stroke-width="0.929531"/>
<circle cx="190.587" cy="148.123" r="1.14642" stroke="#00B383" stroke-width="0.929531"/>
<circle cx="188.016" cy="107.844" r="1.14642" stroke="#735BF2" stroke-width="0.929531"/>
<circle cx="183.182" cy="107.844" r="1.14642" stroke="#0095FF" stroke-width="0.929531"/>
<circle cx="145.474" cy="107.844" r="1.14642" stroke="#735BF2" stroke-width="0.929531"/>
<circle cx="150.308" cy="107.844" r="1.14642" stroke="#0095FF" stroke-width="0.929531"/>
<circle cx="140.64" cy="107.844" r="1.14642" stroke="#00B383" stroke-width="0.929531"/>
<circle cx="10.94" cy="148.123" r="1.14642" stroke="#00B383" stroke-width="0.929531"/>
<path opacity="0.5" d="M262.223 1.80017H273.068C277.132 1.80028 280.427 5.09448 280.427 9.15857V20.0033C280.426 24.0673 277.132 27.3616 273.068 27.3617H262.223C258.159 27.3617 254.865 24.0674 254.865 20.0033V9.15857C254.865 5.09442 258.159 1.80017 262.223 1.80017Z" stroke="#CED3DE" stroke-width="0.77461"/>
<path opacity="0.5" d="M21.6606 27.3615L10.8159 27.3615C6.75186 27.3613 3.45752 24.0671 3.45752 20.0031L3.45752 9.15833C3.45762 5.09433 6.75192 1.80003 10.8159 1.79993L21.6606 1.79993C25.7247 1.79993 29.0189 5.09426 29.019 9.15833L29.019 20.0031C29.019 24.0672 25.7248 27.3614 21.6606 27.3615Z" stroke="#CED3DE" stroke-width="0.77461"/>
<g clip-path="url(#clip3_193_4350)">
<path d="M271.472 13.9147C271.472 14.0929 271.397 14.2711 271.248 14.407L266.551 18.6832C266.252 18.9552 265.768 18.9552 265.469 18.6832C265.171 18.4113 265.171 17.9703 265.469 17.6983L269.625 13.9147L265.469 10.131C265.171 9.85903 265.171 9.41813 265.469 9.14624C265.768 8.87409 266.253 8.87409 266.551 9.14624L271.248 13.4223C271.397 13.5583 271.472 13.7365 271.472 13.9147V13.9147Z" fill="#222B45"/>
</g>
<g clip-path="url(#clip4_193_4350)">
<path d="M12.4127 13.9147C12.4127 13.7364 12.4874 13.5582 12.6366 13.4223L17.3334 9.14615C17.6321 8.87413 18.1165 8.87413 18.4152 9.14615C18.7138 9.41806 18.7138 9.85901 18.4152 10.1311L14.2593 13.9147L18.415 17.6983C18.7137 17.9703 18.7137 18.4112 18.415 18.6831C18.1164 18.9553 17.632 18.9553 17.3332 18.6831L12.6365 14.407C12.4873 14.271 12.4127 14.0928 12.4127 13.9147V13.9147Z" fill="#222B45"/>
</g>
<defs>
<clipPath id="clip0_193_4350">
<rect width="85.207" height="28.6606" fill="white" transform="translate(97.5723 1.52075)"/>
</clipPath>
<clipPath id="clip1_193_4350">
<rect width="9.94508" height="6.22645" fill="white" transform="matrix(0 -1 1 0 265.245 18.8872)"/>
</clipPath>
<clipPath id="clip2_193_4350">
<rect width="9.94508" height="6.22645" fill="white" transform="matrix(0 1 -1 0 18.6392 8.94214)"/>
</clipPath>
<clipPath id="clip3_193_4350">
<rect width="9.94508" height="6.22645" fill="white" transform="matrix(0 -1 1 0 265.245 18.8872)"/>
</clipPath>
<clipPath id="clip4_193_4350">
<rect width="9.94508" height="6.22645" fill="white" transform="matrix(0 1 -1 0 18.6392 8.94214)"/>
</clipPath>
</defs>
</svg>
