<svg width="24" height="25" viewBox="0 0 24 25" fill="none" xmlns="http://www.w3.org/2000/svg">
<g clip-path="url(#clip0_245_1649)">
<g clip-path="url(#clip1_245_1649)">
<mask id="mask0_245_1649" style="mask-type:luminance" maskUnits="userSpaceOnUse" x="3" y="3" width="18" height="19">
<path d="M3 3.16992H21V21.1699H3V3.16992Z" fill="white"/>
</mask>
<g mask="url(#mask0_245_1649)">
<path d="M21 12.1699C20.9997 10.45 20.5066 8.7662 19.5791 7.31784C18.6516 5.86947 17.3285 4.7172 15.7665 3.99743C14.2044 3.27766 12.4689 3.02053 10.7652 3.2565C9.06161 3.49246 7.46126 4.21162 6.15366 5.32885C4.84606 6.44608 3.88596 7.91459 3.38702 9.56053C2.88809 11.2065 2.87121 12.9609 3.3384 14.6161C3.80558 16.2713 4.73726 17.758 6.02313 18.9002C7.30901 20.0424 8.89522 20.7922 10.594 21.0609V14.7719H8.308V12.1699H10.594V10.1869C10.594 7.93089 11.938 6.68489 13.994 6.68489C14.978 6.68489 16.008 6.86089 16.008 6.86089V9.07589H14.873C13.755 9.07589 13.406 9.76889 13.406 10.4819V12.1699H15.902L15.503 14.7719H13.406V21.0619C15.5233 20.7268 17.4515 19.6471 18.8436 18.017C20.2357 16.3869 21.0004 14.3135 21 12.1699Z" fill="#1977F3"/>
<path d="M15.503 14.7728L15.903 12.1698H13.406V10.4818C13.406 9.77084 13.754 9.07584 14.873 9.07584H16.008V6.85984C16.008 6.85984 14.978 6.68384 13.994 6.68384C11.938 6.68384 10.594 7.92984 10.594 10.1858V12.1698H8.30798V14.7728H10.594V21.0618C11.5256 21.2085 12.4744 21.2085 13.406 21.0618V14.7718L15.503 14.7728Z" fill="#FEFEFE"/>
</g>
</g>
</g>
<defs>
<clipPath id="clip0_245_1649">
<rect width="24" height="24" fill="white" transform="translate(0 0.169922)"/>
</clipPath>
<clipPath id="clip1_245_1649">
<rect width="24" height="24" fill="white" transform="translate(0 0.169922)"/>
</clipPath>
</defs>
</svg>
