<svg width="14" height="13" viewBox="0 0 14 13" fill="none" xmlns="http://www.w3.org/2000/svg">
<path fill-rule="evenodd" clip-rule="evenodd" d="M8.55007 8.81653V11.2957H5.05007V8.81653C5.05007 7.85003 5.83357 7.06653 6.80007 7.06653C7.76657 7.06653 8.55007 7.85003 8.55007 8.81653ZM12.6334 11.2957H11.4667V2.39986C11.4667 1.1112 10.4221 0.0665283 9.1334 0.0665283H4.46674C3.17807 0.0665283 2.1334 1.1112 2.1334 2.39986V11.2957H0.966736C0.725111 11.2957 0.529236 11.4916 0.529236 11.7332C0.529236 11.9748 0.725111 12.1707 0.966736 12.1707H12.6334C12.875 12.1707 13.0709 11.9748 13.0709 11.7332C13.0709 11.4916 12.875 11.2957 12.6334 11.2957ZM7.23757 1.81653C7.23757 1.5749 7.04169 1.37903 6.80007 1.37903C6.55845 1.37903 6.36257 1.5749 6.36257 1.81653V3.12903H5.05007C4.80844 3.12903 4.61257 3.3249 4.61257 3.56653C4.61257 3.80815 4.80844 4.00403 5.05007 4.00403H6.36257V5.31653C6.36257 5.55815 6.55845 5.75403 6.80007 5.75403C7.04169 5.75403 7.23757 5.55815 7.23757 5.31653V4.00403H8.55007C8.79169 4.00403 8.98757 3.80815 8.98757 3.56653C8.98757 3.3249 8.79169 3.12903 8.55007 3.12903H7.23757V1.81653Z" fill="#91A0B3"/>
</svg>
