<svg width="24" height="25" viewBox="0 0 24 25" fill="none" xmlns="http://www.w3.org/2000/svg">
<g clip-path="url(#clip0_245_1610)">
<mask id="mask0_245_1610" style="mask-type:luminance" maskUnits="userSpaceOnUse" x="3" y="3" width="18" height="19">
<path d="M18 3.96997H6C4.34315 3.96997 3 5.31312 3 6.96997V18.97C3 20.6268 4.34315 21.97 6 21.97H18C19.6569 21.97 21 20.6268 21 18.97V6.96997C21 5.31312 19.6569 3.96997 18 3.96997Z" fill="white"/>
</mask>
<g mask="url(#mask0_245_1610)">
<path d="M3.67212 11.84C3.67212 9.32001 3.67212 8.06001 4.16212 7.09701C4.59385 6.24991 5.28279 5.56131 6.13012 5.13001C7.09312 4.64001 8.35312 4.64001 10.8731 4.64001H13.1431C15.6631 4.64001 16.9231 4.64001 17.8861 5.13001C18.7327 5.56165 19.4209 6.25021 19.8521 7.09701C20.3421 8.06001 20.3421 9.32001 20.3421 11.84V14.11C20.3421 16.63 20.3421 17.89 19.8521 18.853C19.4207 19.6994 18.7325 20.3876 17.8861 20.819C16.9231 21.309 15.6631 21.309 13.1431 21.309H10.8731C8.35312 21.309 7.09312 21.309 6.13012 20.819C5.28332 20.3878 4.59476 19.6996 4.16312 18.853C3.67312 17.89 3.67312 16.63 3.67312 14.11V11.84H3.67212Z" fill="url(#paint0_radial_245_1610)"/>
<path d="M3.67212 11.84C3.67212 9.32001 3.67212 8.06001 4.16212 7.09701C4.59385 6.24991 5.28279 5.56131 6.13012 5.13001C7.09312 4.64001 8.35312 4.64001 10.8731 4.64001H13.1431C15.6631 4.64001 16.9231 4.64001 17.8861 5.13001C18.7327 5.56165 19.4209 6.25021 19.8521 7.09701C20.3421 8.06001 20.3421 9.32001 20.3421 11.84V14.11C20.3421 16.63 20.3421 17.89 19.8521 18.853C19.4207 19.6994 18.7325 20.3876 17.8861 20.819C16.9231 21.309 15.6631 21.309 13.1431 21.309H10.8731C8.35312 21.309 7.09312 21.309 6.13012 20.819C5.28332 20.3878 4.59476 19.6996 4.16312 18.853C3.67312 17.89 3.67312 16.63 3.67312 14.11V11.84H3.67212Z" fill="url(#paint1_radial_245_1610)"/>
<path d="M12.0002 7.13696C10.4162 7.13696 10.2172 7.14296 9.59524 7.17196C8.97524 7.19996 8.55024 7.29896 8.17924 7.44196C7.79624 7.59196 7.47024 7.79096 7.14624 8.11496C6.82224 8.43996 6.62224 8.76496 6.47324 9.14896C6.32824 9.51896 6.23024 9.94396 6.20224 10.564C6.17424 11.187 6.16724 11.386 6.16724 12.97C6.16724 14.554 6.17424 14.752 6.20224 15.375C6.23024 15.995 6.32924 16.419 6.47224 16.79C6.62224 17.174 6.82224 17.5 7.14624 17.824C7.47024 18.148 7.79624 18.348 8.17924 18.497C8.54924 18.641 8.97424 18.739 9.59524 18.767C10.2172 18.797 10.4152 18.803 12.0002 18.803C13.5842 18.803 13.7822 18.796 14.4052 18.768C15.0252 18.74 15.4502 18.641 15.8212 18.497C16.2105 18.3505 16.563 18.1209 16.8542 17.824C17.1782 17.499 17.3782 17.174 17.5272 16.79C17.6702 16.42 17.7692 15.995 17.7982 15.375C17.8262 14.752 17.8332 14.555 17.8332 12.97C17.8332 11.386 17.8262 11.187 17.7982 10.565C17.7682 9.94396 17.6702 9.51996 17.5272 9.14896C17.3807 8.75947 17.1511 8.4066 16.8542 8.11496C16.563 7.81833 16.2104 7.58898 15.8212 7.44296C15.4492 7.29896 15.0252 7.19996 14.4042 7.17196C13.7812 7.14296 13.5842 7.13696 11.9992 7.13696H12.0002ZM11.4772 8.18696H12.0012C13.5582 8.18696 13.7432 8.19296 14.3582 8.22096C14.9262 8.24696 15.2352 8.34196 15.4412 8.42196C15.7132 8.52796 15.9072 8.65396 16.1112 8.85796C16.3152 9.06296 16.4412 9.25696 16.5482 9.52896C16.6282 9.73496 16.7232 10.043 16.7482 10.612C16.7762 11.227 16.7832 11.412 16.7832 12.969C16.7832 14.525 16.7762 14.71 16.7482 15.325C16.7222 15.894 16.6282 16.202 16.5482 16.408C16.4546 16.6612 16.3053 16.8902 16.1112 17.078C15.9072 17.282 15.7132 17.408 15.4412 17.514C15.2352 17.594 14.9262 17.689 14.3582 17.715C13.7432 17.743 13.5582 17.749 12.0012 17.749C10.4432 17.749 10.2582 17.743 9.64324 17.715C9.07524 17.689 8.76624 17.594 8.56024 17.514C8.30714 17.4205 8.0782 17.2715 7.89024 17.078C7.69635 16.8901 7.54702 16.6611 7.45324 16.408C7.37324 16.202 7.27824 15.893 7.25224 15.324C7.22424 14.71 7.21824 14.524 7.21824 12.967C7.21824 11.409 7.22424 11.225 7.25224 10.611C7.27824 10.041 7.37224 9.73296 7.45224 9.52796C7.54628 9.27463 7.69556 9.04541 7.88924 8.85696C8.07747 8.66303 8.30675 8.51371 8.56024 8.41996C8.76624 8.33996 9.07524 8.24496 9.64324 8.21996C10.2541 8.19131 10.8657 8.18097 11.4772 8.18696ZM15.1142 9.15696C14.9286 9.15696 14.7505 9.23071 14.6193 9.36199C14.488 9.49326 14.4142 9.67131 14.4142 9.85696C14.4142 10.0426 14.488 10.2207 14.6193 10.3519C14.7505 10.4832 14.9286 10.557 15.1142 10.557C15.3 10.557 15.4782 10.4832 15.6096 10.3518C15.7409 10.2204 15.8147 10.0422 15.8147 9.85646C15.8147 9.67068 15.7409 9.4925 15.6096 9.36113C15.4782 9.22977 15.3 9.15596 15.1142 9.15596V9.15696ZM12.0002 9.97296C11.2056 9.97296 10.4436 10.2886 9.88174 10.8505C9.31989 11.4123 9.00424 12.1744 9.00424 12.969C9.00424 13.7636 9.31989 14.5256 9.88174 15.0875C10.4436 15.6493 11.2056 15.965 12.0002 15.965C12.7948 15.965 13.5569 15.6493 14.1187 15.0875C14.6806 14.5256 14.9962 13.7636 14.9962 12.969C14.9962 12.1744 14.6806 11.4123 14.1187 10.8505C13.5569 10.2886 12.7948 9.97296 12.0002 9.97296ZM12.0002 11.024C12.5161 11.024 13.0108 11.2289 13.3756 11.5936C13.7403 11.9584 13.9452 12.4531 13.9452 12.969C13.9452 13.4848 13.7403 13.9795 13.3756 14.3443C13.0108 14.709 12.5161 14.914 12.0002 14.914C11.4844 14.914 10.9897 14.709 10.6249 14.3443C10.2602 13.9795 10.0552 13.4848 10.0552 12.969C10.0552 12.4531 10.2602 11.9584 10.6249 11.5936C10.9897 11.2289 11.4844 11.024 12.0002 11.024Z" fill="white"/>
</g>
</g>
<defs>
<radialGradient id="paint0_radial_245_1610" cx="0" cy="0" r="1" gradientUnits="userSpaceOnUse" gradientTransform="translate(8.10012 22.594) rotate(-90) scale(16.5212 15.366)">
<stop stop-color="#FFDD55"/>
<stop offset="0.1" stop-color="#FFDD55"/>
<stop offset="0.5" stop-color="#FF543E"/>
<stop offset="1" stop-color="#C837AB"/>
</radialGradient>
<radialGradient id="paint1_radial_245_1610" cx="0" cy="0" r="1" gradientUnits="userSpaceOnUse" gradientTransform="translate(0.88012 5.84001) rotate(78.6806) scale(7.38504 30.4415)">
<stop stop-color="#3771C8"/>
<stop offset="0.128" stop-color="#3771C8"/>
<stop offset="1" stop-color="#6600FF" stop-opacity="0"/>
</radialGradient>
<clipPath id="clip0_245_1610">
<rect width="24" height="24" fill="white" transform="translate(0 0.969971)"/>
</clipPath>
</defs>
</svg>
