<svg width="428" height="115" viewBox="0 0 428 115" fill="none" xmlns="http://www.w3.org/2000/svg">
<g clip-path="url(#clip0_73_768)">
<path d="M67.9226 2.30791L45.5462 2.41499L45.7077 36.1564C45.6426 42.2549 40.6935 47.192 34.5736 47.2213L1.00762 47.3819L1.1147 69.7583L25.4107 69.6421C31.3452 69.6137 37.0256 67.2288 41.2017 63.0126L61.5609 42.4576C65.7369 38.2414 68.0673 32.5384 68.0389 26.6039L67.9226 2.30791Z" fill="url(#paint0_linear_73_768)"/>
<path d="M46.0815 114.297L68.4579 114.19L68.2964 80.4487C68.3615 74.3501 73.3106 69.413 79.4305 69.3837L112.997 69.2231L112.889 46.8467L88.5934 46.963C82.6589 46.9914 76.9785 49.3763 72.8024 53.5925L52.4433 74.1474C48.2672 78.3636 45.9368 84.0666 45.9652 90.0011L46.0815 114.297Z" fill="url(#paint1_linear_73_768)"/>
</g>
<path d="M167.032 74.776L137.549 74.9171L137.377 38.9359L145.432 38.8973L145.57 67.6286L166.997 67.5261L167.032 74.776ZM178.547 75.258C172.747 75.2857 169.244 72.6173 169.222 68.1062C169.203 64.1321 172.145 61.6477 177.889 61.0294L189.429 59.7927L189.424 58.7723C189.408 55.2816 187.845 54.3224 183.549 54.343C179.468 54.3625 177.808 55.4445 177.823 58.5056L177.824 58.7204L169.715 58.7592L169.714 58.5981C169.682 51.9389 175.245 47.2937 184.106 47.2513C193.075 47.2084 197.339 51.8066 197.373 58.8417L197.448 74.6305L189.93 74.6665L189.9 68.4906L189.471 68.4926C188.256 72.6874 184.508 75.2294 178.547 75.258ZM177.329 67.5303C177.336 68.9803 178.466 69.5657 180.829 69.5544C186.307 69.5282 189.255 68.2251 189.451 64.4112L180.112 65.53C178.179 65.7003 177.323 66.2415 177.329 67.5303ZM208.996 74.5752L201.532 74.6109L201.359 38.6297L209.415 38.5912L209.492 54.8096L209.922 54.8075C210.813 50.2921 214.074 47.1079 220.465 47.0773C228.52 47.0387 233.057 52.4412 233.099 61.0337C233.139 69.5189 228.601 75.0184 220.223 75.0585C213.993 75.0884 210.436 72.4201 209.444 67.1081L208.961 67.1105L208.996 74.5752ZM209.524 61.3077C209.546 65.9799 212.293 67.739 217.395 67.7145C222.604 67.6896 224.959 65.9598 224.936 61.0728C224.912 56.1321 222.541 54.4249 217.385 54.4496C212.176 54.4745 209.499 56.2058 209.521 60.878L209.524 61.3077ZM250.102 74.9156C241.026 74.959 236.014 71.4385 235.985 65.2089L235.984 65.0478L244.039 65.0092L244.042 65.4926C244.053 67.9092 245.56 68.5464 250.125 68.5246C254.421 68.504 255.438 67.801 255.43 66.1899C255.423 64.6862 254.616 64.2604 251.445 63.846L243.868 62.9693C238.495 62.4042 235.476 60.002 235.455 55.4909C235.432 50.765 239.442 46.9865 248.679 46.9423C257.486 46.9001 262.497 50.2058 262.528 56.7576L262.529 56.9188L254.473 56.9573L254.472 56.6351C254.461 54.4333 253.382 53.3106 248.441 53.3343C244.413 53.3535 243.396 54.0566 243.404 55.7751C243.411 57.1714 244.166 57.7585 247.712 58.1712L253.462 58.8418C260.662 59.6129 263.359 62.0167 263.38 66.4741C263.404 71.5222 258.426 74.8757 250.102 74.9156ZM274.767 83.3903L266.711 83.4288L266.539 47.3939L274.004 47.3581L274.039 54.7155L274.576 54.7129C275.518 49.5528 278.942 46.7975 285.279 46.7671C293.549 46.7276 298.194 52.1832 298.235 60.722C298.276 69.2609 293.791 74.7065 285.681 74.7453C279.452 74.7751 276 71.7305 275.065 67.0089L274.689 67.0107L274.767 83.3903ZM274.661 61.2108C274.683 65.8293 277.483 67.427 282.531 67.4028C287.687 67.3782 290.095 65.6481 290.072 60.7611C290.048 55.8204 287.624 54.1671 282.522 54.1916C277.313 54.2165 274.636 56.0015 274.659 60.7811L274.661 61.2108ZM309.704 74.0933L301.648 74.1318L301.476 38.1506L309.532 38.112L309.614 55.4045L310.044 55.4025C310.882 50.8336 314.03 46.6295 320.904 46.5967C328.154 46.562 331.721 51.2709 331.751 57.5005L331.83 73.9874L323.774 74.026L323.707 59.9557C323.685 55.4446 321.744 53.8427 316.696 53.8669C311.272 53.8929 309.618 56.1027 309.639 60.6137L309.704 74.0933ZM350.182 74.4366C341.214 74.4795 335.071 70.1052 335.025 60.546C334.984 51.9534 341.026 46.5004 349.887 46.458C358.695 46.4158 364.571 51.0063 364.611 59.4377C364.616 60.4044 364.511 61.103 364.408 62.0165L342.497 62.1213C342.732 66.2555 344.674 68.0184 349.883 67.9935C354.663 67.9706 356.322 66.7275 356.311 64.4182L356.308 63.8812L364.363 63.8427L364.366 64.4334C364.394 70.2871 358.721 74.3958 350.182 74.4366ZM349.756 52.742C344.977 52.7649 342.944 54.3858 342.585 57.8783L356.87 57.8099C356.638 54.2665 354.482 52.7194 349.756 52.742ZM376.151 73.7753L368.096 73.8139L367.967 46.9085L375.432 46.8728L375.466 54.0153L375.949 54.013C376.68 49.6594 379.511 46.3162 384.935 46.2902C390.95 46.2615 393.44 50.3848 393.465 55.6477L393.486 60.1051L385.431 60.1436L385.417 57.3511C385.403 54.3974 384.216 53.1142 380.94 53.1298C377.341 53.1471 376.061 54.818 376.077 58.2013L376.151 73.7753ZM410.756 74.1468C401.788 74.1897 395.644 69.8153 395.599 60.2561C395.557 51.6636 401.6 46.2105 410.461 46.1681C419.268 46.1259 425.144 50.7164 425.184 59.1478C425.189 60.1145 425.085 60.8132 424.982 61.7266L403.071 61.8315C403.306 65.9656 405.247 67.7286 410.457 67.7036C415.236 67.6808 416.895 66.4376 416.884 64.1284L416.882 63.5913L424.937 63.5528L424.94 64.1435C424.968 69.9972 419.295 74.1059 410.756 74.1468ZM410.33 52.4521C405.55 52.475 403.517 54.0959 403.158 57.5884L417.443 57.52C417.211 53.9766 415.056 52.4295 410.33 52.4521Z" fill="#2B7C7E"/>
<defs>
<linearGradient id="paint0_linear_73_768" x1="11.7541" y1="-44.9661" x2="12.2198" y2="52.3438" gradientUnits="userSpaceOnUse">
<stop stop-color="#91D8C1"/>
<stop offset="1" stop-color="#2B7C7E"/>
</linearGradient>
<linearGradient id="paint1_linear_73_768" x1="56.7209" y1="-0.427283" x2="57.1866" y2="96.8826" gradientUnits="userSpaceOnUse">
<stop stop-color="#91D8C1"/>
<stop offset="1" stop-color="#2B7C7E"/>
</linearGradient>
<clipPath id="clip0_73_768">
<rect width="111.883" height="111.883" fill="white" transform="translate(0.793457 2.62915) rotate(-0.274184)"/>
</clipPath>
</defs>
</svg>
