<svg width="140" height="32" viewBox="0 0 140 32" fill="none" xmlns="http://www.w3.org/2000/svg">
<g clip-path="url(#clip0_709_2616)">
<path d="M21.5252 0H15.1252V9.65056C15.0982 11.3947 13.676 12.8 11.9256 12.8H2.3252V19.2H9.27423C10.9716 19.2 12.5995 18.5257 13.7997 17.3255L19.6507 11.4745C20.8509 10.2743 21.5252 8.6464 21.5252 6.94903V0Z" fill="url(#paint0_linear_709_2616)"/>
<path d="M15.125 32H21.525V22.3495C21.552 20.6053 22.9742 19.2 24.7246 19.2H34.325V12.8H27.376C25.6786 12.8 24.0507 13.4744 22.8505 14.6745L16.9995 20.5256C15.7993 21.7257 15.125 23.3536 15.125 25.051V32Z" fill="url(#paint1_linear_709_2616)"/>
</g>
<path d="M52.0638 22H42.3803V10.1823H45.0261V19.6188H52.0638V22ZM55.8451 22.1764C53.9401 22.1764 52.7936 21.2945 52.7936 19.8128C52.7936 18.5076 53.7637 17.6962 55.6511 17.5022L59.4433 17.1142V16.779C59.4433 15.6325 58.9318 15.315 57.5207 15.315C56.1802 15.315 55.6334 15.6678 55.6334 16.6732V16.7437H52.97V16.6908C52.97 14.5037 54.8044 12.9868 57.7148 12.9868C60.6604 12.9868 62.0538 14.5037 62.0538 16.8143V22H59.5844V19.9716H59.4433C59.0376 21.3474 57.8029 22.1764 55.8451 22.1764ZM55.457 19.6365C55.457 20.1127 55.8274 20.3067 56.6035 20.3067C58.4026 20.3067 59.3728 19.8834 59.4433 18.6311L56.3742 18.9838C55.7392 19.0367 55.457 19.2131 55.457 19.6365ZM65.8466 22H63.3949V10.1823H66.0406V15.5091H66.1817C66.4816 14.0274 67.5575 12.9868 69.6565 12.9868C72.3023 12.9868 73.7839 14.7682 73.7839 17.5904C73.7839 20.3773 72.2846 22.1764 69.533 22.1764C67.487 22.1764 66.3229 21.2945 66.0054 19.5483H65.8466V22ZM66.0406 17.6433C66.0406 19.1779 66.9402 19.7599 68.6159 19.7599C70.3268 19.7599 71.1029 19.1955 71.1029 17.5904C71.1029 15.9677 70.3268 15.4032 68.6335 15.4032C66.9226 15.4032 66.0406 15.9677 66.0406 17.5022V17.6433ZM79.3465 22.1764C76.3656 22.1764 74.7252 21.0122 74.7252 18.9662V18.9133H77.371V19.072C77.371 19.8658 77.8649 20.0774 79.3641 20.0774C80.7752 20.0774 81.1103 19.8481 81.1103 19.319C81.1103 18.8251 80.8458 18.684 79.8051 18.5429L77.3181 18.243C75.5542 18.049 74.5665 17.2553 74.5665 15.7736C74.5665 14.2215 75.8894 12.9868 78.9232 12.9868C81.8159 12.9868 83.4562 14.0803 83.4562 16.2322V16.2851H80.8105V16.1793C80.8105 15.4561 80.4577 15.0857 78.835 15.0857C77.5121 15.0857 77.177 15.315 77.177 15.8795C77.177 16.3381 77.4239 16.5321 78.588 16.6732L80.4753 16.9025C82.8389 17.1671 83.7208 17.9608 83.7208 19.4248C83.7208 21.0828 82.0804 22.1764 79.3465 22.1764ZM87.4341 24.9985H84.7884V13.1631H87.2401V15.5796H87.4165C87.734 13.8863 88.8628 12.9868 90.9442 12.9868C93.6605 12.9868 95.1774 14.7859 95.1774 17.5904C95.1774 20.3949 93.6958 22.1764 91.0324 22.1764C88.9863 22.1764 87.8574 21.171 87.5576 19.6188H87.4341V24.9985ZM87.4341 17.7139C87.4341 19.2308 88.3513 19.7599 90.0093 19.7599C91.7026 19.7599 92.4964 19.1955 92.4964 17.5904C92.4964 15.9677 91.7026 15.4209 90.027 15.4209C88.316 15.4209 87.4341 16.0029 87.4341 17.5728V17.7139ZM98.9232 22H96.2775V10.1823H98.9232V15.8618H99.0643C99.3465 14.3626 100.387 12.9868 102.645 12.9868C105.026 12.9868 106.19 14.5389 106.19 16.585V22H103.544V17.3787C103.544 15.8971 102.91 15.368 101.251 15.368C99.47 15.368 98.9232 16.0911 98.9232 17.5728V22ZM112.217 22.1764C109.272 22.1764 107.261 20.73 107.261 17.5904C107.261 14.7682 109.254 12.9868 112.164 12.9868C115.057 12.9868 116.98 14.5037 116.98 17.2729C116.98 17.5904 116.944 17.8197 116.909 18.1195H109.713C109.783 19.4777 110.418 20.0598 112.129 20.0598C113.699 20.0598 114.246 19.6541 114.246 18.8956V18.7193H116.891V18.9133C116.891 20.8359 115.022 22.1764 112.217 22.1764ZM112.111 15.0505C110.542 15.0505 109.871 15.5796 109.748 16.7261H114.44C114.369 15.562 113.664 15.0505 112.111 15.0505ZM120.747 22H118.102V13.1631H120.553V15.5091H120.712C120.959 14.0803 121.894 12.9868 123.675 12.9868C125.651 12.9868 126.462 14.3449 126.462 16.0735V17.5375H123.816V16.6203C123.816 15.6502 123.428 15.2268 122.352 15.2268C121.171 15.2268 120.747 15.7736 120.747 16.8849V22ZM132.112 22.1764C129.167 22.1764 127.156 20.73 127.156 17.5904C127.156 14.7682 129.149 12.9868 132.059 12.9868C134.952 12.9868 136.874 14.5037 136.874 17.2729C136.874 17.5904 136.839 17.8197 136.804 18.1195H129.607C129.678 19.4777 130.313 20.0598 132.024 20.0598C133.594 20.0598 134.141 19.6541 134.141 18.8956V18.7193H136.786V18.9133C136.786 20.8359 134.917 22.1764 132.112 22.1764ZM132.006 15.0505C130.436 15.0505 129.766 15.5796 129.643 16.7261H134.335C134.264 15.562 133.558 15.0505 132.006 15.0505Z" fill="#2B7C7E"/>
<defs>
<linearGradient id="paint0_linear_709_2616" x1="5.5252" y1="-13.5977" x2="5.5252" y2="14.2345" gradientUnits="userSpaceOnUse">
<stop stop-color="#91D8C1"/>
<stop offset="1" stop-color="#2B7C7E"/>
</linearGradient>
<linearGradient id="paint1_linear_709_2616" x1="18.325" y1="-0.797627" x2="18.325" y2="27.0345" gradientUnits="userSpaceOnUse">
<stop stop-color="#91D8C1"/>
<stop offset="1" stop-color="#2B7C7E"/>
</linearGradient>
<clipPath id="clip0_709_2616">
<rect width="32" height="32" fill="white" transform="translate(2.3252)"/>
</clipPath>
</defs>
</svg>
