<svg width="30" height="30" viewBox="0 0 30 30" fill="none" xmlns="http://www.w3.org/2000/svg">
<g clip-path="url(#clip0_190_4299)">
<path d="M18 0H12V9.0474C11.9747 10.6826 10.6414 12 9.00037 12H0V18H6.51472C8.106 18 9.63217 17.3678 10.7573 16.2427L16.2427 10.7573C17.3678 9.63217 18 8.106 18 6.51472V0Z" fill="white"/>
<path d="M12 30H18V20.9526C18.0253 19.3175 19.3586 18 20.9996 18H30V12H23.4853C21.894 12 20.3678 12.6322 19.2427 13.7573L13.7573 19.2427C12.6322 20.3678 12 21.894 12 23.4853V30Z" fill="white"/>
</g>
<defs>
<clipPath id="clip0_190_4299">
<rect width="30" height="30" fill="white"/>
</clipPath>
</defs>
</svg>
