<svg width="13" height="13" viewBox="0 0 13 13" fill="none" xmlns="http://www.w3.org/2000/svg">
<path d="M12.1958 10.7667C12.6456 11.2165 12.6456 11.9458 12.1958 12.3956C11.746 12.8454 11.0167 12.8454 10.5669 12.3956L9.4751 11.3038C10.1109 10.8634 10.6635 10.3108 11.104 9.67493L12.1958 10.7667ZM5.82471 0.629028C8.80462 0.629028 11.221 3.04467 11.2212 6.02454C11.2212 9.00457 8.80474 11.421 5.82471 11.421C2.84484 11.4208 0.429199 9.00445 0.429199 6.02454C0.429397 3.04479 2.84496 0.629226 5.82471 0.629028ZM5.82471 1.50403C3.32821 1.50423 1.3044 3.52804 1.3042 6.02454C1.3042 8.5212 3.32809 10.5458 5.82471 10.546C8.32149 10.546 10.3462 8.52132 10.3462 6.02454C10.346 3.52792 8.32137 1.50403 5.82471 1.50403Z" fill="white"/>
</svg>
