<svg width="1440" height="156" viewBox="0 0 1440 156" fill="none" xmlns="http://www.w3.org/2000/svg">
<path d="M1424.84 151.367L1413.51 155.158M1424.84 151.367H1391.27M1424.84 151.367L1436.54 147.45M1424.84 151.367H1448.61M1413.51 155.158L1417.63 155.157L1421.71 155.149L1425.71 155.125L1429.57 155.08L1433.27 155.006L1436.77 154.895L1440.01 154.741L1443.02 154.544L1445.61 154.272L1447.96 153.957L1448.61 153.847V151.367M1413.51 155.158H1380.49M1391.27 151.367L1380.49 155.158M1391.27 151.367H1357.71M1391.27 151.367L1394.03 150.4L1402.42 147.45M1436.54 147.45H1402.42M1436.54 147.45L1448.61 143.411M1436.54 147.45H1448.61M1448.61 151.367V147.45M1380.49 155.158H1347.46M1347.46 155.158H1314.44M1347.46 155.158L1357.71 151.367M1314.44 155.158H1281.41M1314.44 155.158L1324.15 151.367M1357.71 151.367H1324.15M1357.71 151.367L1368.3 147.45M1281.41 155.158H1248.39M1281.41 155.158L1290.58 151.367M1324.15 151.367H1290.58M1324.15 151.367L1334.18 147.45M1248.39 155.158H1215.37M1248.39 155.158L1257.02 151.367M1290.58 151.367H1257.02M1290.58 151.367L1300.06 147.45M1215.37 155.158H1182.34M1215.37 155.158L1223.46 151.367M1257.02 151.367H1223.46M1257.02 151.367L1259.22 150.4L1260.33 149.914L1265.94 147.45M1182.34 155.158H1149.32M1182.34 155.158L1189.89 151.367M1223.46 151.367H1189.89M1223.46 151.367L1225.52 150.4L1231.81 147.45M1149.32 155.158H1116.29M1149.32 155.158L1156.33 151.367M1189.89 151.367H1156.33M1189.89 151.367L1197.69 147.45M1116.29 155.158H1083.27M1116.29 155.158L1122.76 151.367M1156.33 151.367H1122.76M1156.33 151.367L1158.12 150.4L1159.02 149.914L1163.57 147.45M1083.27 155.158H1050.24M1083.27 155.158L1089.2 151.367M1122.76 151.367H1089.2M1122.76 151.367L1129.45 147.45M1050.24 155.158H1017.22M1050.24 155.158L1055.64 151.367M1089.2 151.367H1055.64M1089.2 151.367L1090.71 150.4L1091.48 149.914L1095.33 147.45M1017.22 155.158H984.195M1017.22 155.158L1018.42 154.222L1020.23 152.803L1022.07 151.367M1055.64 151.367H1022.07M1055.64 151.367L1056.32 150.885L1057.01 150.4L1061.21 147.45M984.195 155.158H951.171M984.195 155.158L985.26 154.222L988.509 151.367M1022.07 151.367H988.509M1022.07 151.367L1023.31 150.4L1023.93 149.914L1027.09 147.45M951.171 155.158H918.146M951.171 155.158L954.946 151.367M988.509 151.367H954.946M988.509 151.367L992.967 147.45M918.146 155.158H885.122M918.146 155.158L919.347 153.751L920.564 152.327L920.972 151.847L921.383 151.367M954.946 151.367H921.383M954.946 151.367L955.427 150.885L955.909 150.4L956.394 149.914L958.847 147.45M885.122 155.158H852.097M885.122 155.158L886.123 153.751L886.459 153.278L886.797 152.803L887.819 151.367M921.383 151.367H887.819M921.383 151.367L922.208 150.4L922.623 149.914L923.04 149.425L924.726 147.45M852.097 155.158H819.073M852.097 155.158L854.255 151.367M887.819 151.367H854.255M887.819 151.367L888.506 150.4L889.9 148.442L890.251 147.947L890.605 147.45M819.073 155.158L819.273 154.691L819.472 154.222L820.486 151.847L820.691 151.367M819.073 155.158H786.049M854.255 151.367H820.691M854.255 151.367L854.53 150.885L854.805 150.4L855.082 149.914L856.483 147.45M820.691 151.367H787.128M820.691 151.367L822.362 147.45M786.049 155.158H753.024M786.049 155.158L787.128 151.367M753.024 155.158H720M753.024 155.158L753.225 153.751L753.564 151.367M787.128 151.367H753.564M787.128 151.367L787.265 150.885L787.402 150.4L787.541 149.914L788.242 147.45M720 155.158H686.976M720 155.158V151.367M753.564 151.367H720M753.564 151.367L754.121 147.45M686.976 155.158H653.951M686.976 155.158L686.776 153.751L686.436 151.367M720 151.367H686.436M720 151.367V147.45M653.951 155.158H620.927M653.951 155.158L652.873 151.367M686.436 151.367H652.873M686.436 151.367L685.879 147.45M620.927 155.158L620.727 154.691L620.528 154.222L619.514 151.847L619.309 151.367M620.927 155.158H587.903M652.873 151.367H619.309M652.873 151.367L652.735 150.885L652.598 150.4L652.459 149.914L652.04 148.442L651.758 147.45M619.309 151.367H585.745M619.309 151.367L617.638 147.45M587.903 155.158H554.878M587.903 155.158L586.019 151.847L585.745 151.367M554.878 155.158H521.854M554.878 155.158L553.877 153.751L553.541 153.278L552.864 152.327L552.523 151.847L552.181 151.367M585.745 151.367H552.181M585.745 151.367L585.47 150.885L585.195 150.4L584.918 149.914L583.516 147.45M521.854 155.158H488.829M521.854 155.158L520.653 153.751L519.436 152.327L519.028 151.847L518.617 151.367M552.181 151.367H518.617M552.181 151.367L551.494 150.4L550.1 148.442L549.395 147.45M488.829 155.158H455.805M488.829 155.158L485.054 151.367M518.617 151.367H485.054M518.617 151.367L517.792 150.4L517.377 149.914L516.96 149.425L515.274 147.45M455.805 155.158H422.78M455.805 155.158L454.74 154.222L451.491 151.367M485.054 151.367L484.573 150.885L481.153 147.45M485.054 151.367H451.491M422.78 155.158H389.756M422.78 155.158L417.927 151.367M451.491 151.367H417.927M451.491 151.367L450.941 150.885L447.033 147.45M389.756 155.158H356.732M389.756 155.158L384.363 151.367M417.927 151.367H384.363M417.927 151.367L416.688 150.4L416.065 149.914L412.912 147.45M356.732 155.158H323.707M356.732 155.158L350.799 151.367M384.363 151.367H350.799M384.363 151.367L383.676 150.885L382.987 150.4L378.791 147.45M323.707 155.158H290.683M323.707 155.158L317.236 151.367M350.799 151.367H317.236M350.799 151.367L349.286 150.4L348.524 149.914L344.669 147.45M290.683 155.158H257.659M290.683 155.158L283.672 151.367M317.236 151.367H283.672M317.236 151.367L316.411 150.885L310.548 147.45M257.659 155.158H224.635M257.659 155.158L250.108 151.367M283.672 151.367H250.108M283.672 151.367L281.883 150.4L280.983 149.914L276.427 147.45M224.635 155.158H191.61M224.635 155.158L216.544 151.367M250.108 151.367H216.544M250.108 151.367L242.307 147.45M191.61 155.158H158.586M191.61 155.158L182.981 151.367M216.544 151.367H182.981M216.544 151.367L214.481 150.4L208.186 147.45M158.586 155.158H125.562M158.586 155.158L149.417 151.367M182.981 151.367H149.417M182.981 151.367L180.78 150.4L179.671 149.914L174.065 147.45M125.562 155.158H92.537M125.562 155.158L115.853 151.367M149.417 151.367H115.853M149.417 151.367L139.944 147.45M92.537 155.158H59.513M92.537 155.158L82.29 151.367M115.853 151.367H82.29M115.853 151.367L105.823 147.45M59.513 155.158H26.488M59.513 155.158L48.726 151.367M82.29 151.367H48.726M82.29 151.367L71.702 147.45M26.488 155.158L22.368 155.157L18.288 155.149L14.295 155.125L10.427 155.08L6.726 155.006L3.232 154.895L-0.0120001 154.741L-3.024 154.544L-5.608 154.272L-7.961 153.957L-8.608 153.847V151.367H15.162M26.488 155.158L15.162 151.367M48.726 151.367H15.162M48.726 151.367L45.974 150.4L37.58 147.45M15.162 151.367L3.46 147.45M71.702 147.45L60.758 143.401M71.702 147.45H105.823M71.702 147.45H37.58M105.823 147.45L95.454 143.401M105.823 147.45H139.944M208.186 147.45H242.307M208.186 147.45H174.065M242.307 147.45H276.427M344.669 147.45H378.791M344.669 147.45H310.548M378.791 147.45L375.213 144.935L373.029 143.401M378.791 147.45H412.912M481.153 147.45L477.121 143.401M481.153 147.45H515.274M481.153 147.45H447.033M515.274 147.45L513.128 144.935L511.818 143.401M515.274 147.45H549.395M617.638 147.45L617.21 146.451L616.564 144.935L616.128 143.915L615.909 143.401M617.638 147.45H651.758M617.638 147.45H583.516M651.758 147.45L651.33 145.948L650.752 143.915L650.606 143.401M651.758 147.45H685.879M754.121 147.45L754.192 146.952L754.263 146.451L754.335 145.948L754.406 145.443L754.479 144.935L754.697 143.401M754.121 147.45H788.242M754.121 147.45H720M788.242 147.45L788.67 145.948L789.248 143.915L789.394 143.401M788.242 147.45H822.362M890.605 147.45L891.316 146.451L893.485 143.401M890.605 147.45H924.726M890.605 147.45H856.483M924.726 147.45L926.872 144.935L928.182 143.401M924.726 147.45H958.847M1027.09 147.45L1031.62 143.915L1032.27 143.401M1027.09 147.45H1061.21M1027.09 147.45H992.967M1061.21 147.45L1064.79 144.935L1066.97 143.401M1061.21 147.45H1095.33M1163.57 147.45L1171.06 143.401M1163.57 147.45H1197.69M1163.57 147.45H1129.45M1197.69 147.45L1205.76 143.401M1197.69 147.45H1231.81M1300.06 147.45L1309.85 143.401M1300.06 147.45H1265.94M1300.06 147.45H1334.18M1334.18 147.45L1344.55 143.401M1334.18 147.45H1368.3M-8.725 115.912H-8.608M-8.608 115.912H25.057M-8.608 115.912V110.715V105.318M-8.608 115.912V117.74V120.915V125.737V130.389V131.217V134.878M25.057 115.912L37.871 120.916M25.057 115.912L11.752 110.716M25.057 115.912H63.665M37.871 120.916L50.221 125.738M37.871 120.916H75.766M11.752 110.716L-2.073 105.318M11.752 110.716H51.099M11.752 110.716H-8.608M63.665 115.912L75.766 120.916M63.665 115.912L51.099 110.716M63.665 115.912H102.273M37.872 120.916H-0.0249996M-0.0249996 120.916L13.011 125.738M-0.0249996 120.916H-8.609M-0.0249996 120.916L-8.609 117.741M75.766 120.916L87.431 125.738M75.766 120.916H113.663M37.717 134.878H73.627M37.717 134.878L49.434 139.213M37.717 134.878H1.81M1.81 134.878L14.142 139.213M1.81 134.878H-8.608M1.81 134.878L-8.608 131.218M37.72 134.878L25.586 130.39M25.586 130.39H62.133M25.586 130.39L13.012 125.738M25.586 130.39H-8.608M73.629 134.878L84.729 139.213M73.629 134.878L62.134 130.39M73.629 134.878H109.539M84.729 139.213H49.436M84.729 139.213H120.021M84.729 139.213L95.454 143.401M109.539 134.878L120.021 139.213M109.539 134.878L98.681 130.39M109.539 134.878H145.447H181.356M49.436 139.213L60.758 143.401M49.436 139.213H14.142M60.758 143.401H95.454M60.758 143.401H26.06M14.142 139.213L26.06 143.401M14.142 139.213H-8.608M120.021 139.213H155.314M120.021 139.213L130.15 143.401M95.454 143.401H130.15M-8.977 36.931H-8.607M22.175 36.931L38.7 45.228M22.175 36.93L4.83 28.224M72.02 36.933H22.175H-8.608V28.223V21.477M72.02 36.933L87.364 45.227M72.02 36.933L121.865 36.932M38.7 45.227L54.46 53.14M38.7 45.227H87.364M38.7 45.227H-8.608V45.862V53.139V60.693V67.201V67.914V74.821V81.437V86.029V87.779V93.862V99.703V102.766M54.46 53.14H6.921M54.46 53.14L69.506 60.695L83.888 67.915M54.46 53.14H101.998M87.364 45.227L101.998 53.14M87.364 45.227H136.029M6.921 53.14L23.043 60.694M6.921 53.14H-8.608M6.921 53.14L-8.608 45.863M23.043 60.694H69.506H115.97M23.043 60.694H-8.607M38.452 67.915H83.888M38.452 67.915L53.193 74.822M38.452 67.915H-6.985L8.74 74.823L23.799 81.438M38.452 67.915L23.043 60.695M83.888 67.915L97.648 74.822H53.193M83.888 67.915H129.325M53.193 74.822H8.74H-8.608M53.193 74.822L67.312 81.438M129.325 67.915L142.1 74.823M129.325 67.915L115.97 60.695M129.325 67.915H174.761M67.312 81.438H23.799M67.312 81.438L80.844 87.779M110.824 81.438L97.648 74.823H142.1M142.1 74.823L154.337 81.438H197.849H241.362M93.826 93.863H135.571M93.826 93.863L106.292 99.704M93.826 93.863H52.082M106.292 99.704H147.207M106.292 99.704H65.379M106.292 99.704L118.273 105.318M52.082 93.863H10.338M52.082 93.863L65.379 99.704M52.082 93.863L38.234 87.779H-4.375M93.827 93.863L80.844 87.779M80.844 87.779H123.455M135.572 93.863L147.207 99.704M135.572 93.863L123.455 87.779M135.572 93.863H177.317M147.207 99.704L158.388 105.318M147.207 99.704H188.121M123.455 87.779L110.824 81.439M123.455 87.779H166.065M177.317 93.863L166.065 87.779M177.317 93.863H219.062M65.379 99.704H24.466M65.379 99.704L78.157 105.318M118.273 105.318H158.387M118.273 105.318H78.157M118.273 105.318L129.793 110.716M140.881 115.912H179.489M140.881 115.912L151.559 120.916M140.881 115.912H102.273M140.881 115.912L129.793 110.716M179.489 115.912L189.455 120.916M179.489 115.912L169.14 110.716M179.489 115.912H218.096M151.559 120.916H189.455M151.559 120.916H113.663M151.559 120.916L161.852 125.738M102.273 115.912L113.663 120.916M102.273 115.912L90.446 110.716M129.793 110.716H169.14M129.793 110.716H90.446M189.455 120.916L199.061 125.738M189.455 120.916H227.351M169.14 110.716L158.387 105.318M169.14 110.716H208.486M218.096 115.912L227.351 120.916M218.096 115.912L208.486 110.716M218.096 115.912H256.703M113.663 120.916L124.642 125.738H87.431M227.351 120.916L236.27 125.738M227.351 120.916H265.248M181.356 134.878H217.266M181.356 134.878L190.607 139.213M181.356 134.878L171.777 130.39M217.266 134.878L225.899 139.213M217.266 134.878L208.325 130.39M217.266 134.878H253.176M190.607 139.213H225.899M190.607 139.213L199.545 143.401M190.607 139.213H155.314M171.777 130.39H208.325M171.777 130.39L161.851 125.738M171.777 130.39H135.228M225.899 139.213H261.193M225.899 139.213L234.242 143.401M208.325 130.39L199.06 125.738M208.325 130.39H244.873M199.545 143.401H234.241M199.545 143.401L208.185 147.45M199.545 143.401H164.846M155.314 139.213L145.446 134.878L135.228 130.39M155.314 139.213L164.846 143.401M16.929 -106.896L40.186 -90.549M16.929 -106.896L-7.975 -124.401M16.929 -106.896H87.236M16.929 -106.896H-8.608M40.186 -90.549L61.953 -75.249M40.186 -90.549H108.167M40.186 -90.549H-8.608M-8.608 -90.549V-106.897V-124.402M-8.608 -90.549V-78.29M39.714 -47.412H101.558M39.714 -47.412L59.587 -34.713M39.714 -47.412L18.607 -60.899M39.714 -47.412H-8.608M101.558 -47.412L119.624 -34.713M101.558 -47.412L82.37 -60.899L61.953 -75.25M101.558 -47.412H163.402L179.662 -34.713M59.587 -34.713H119.624M59.587 -34.713H-0.45M59.587 -34.713L78.333 -22.735M119.624 -34.713L136.666 -22.735M119.624 -34.713H179.662M-0.45 -34.713L19.999 -22.735M-0.45 -34.713H-8.608M-0.45 -34.713L-8.608 -39.491M78.333 -22.735H136.666M78.333 -22.735H19.999M78.333 -22.735L96.043 -11.419H152.766M136.666 -22.735L152.766 -11.419M136.666 -22.735H195M179.662 -34.713L195 -22.735M179.662 -34.713H239.7M112.802 -0.709991H168.002M112.802 -0.709991L128.685 9.43799M112.802 -0.709991L57.602 -0.709015M112.802 -0.709991L96.043 -11.42H39.32M168.002 -0.709991L182.441 9.43799M168.002 -0.709991L152.766 -11.419M168.002 -0.709991L223.202 -0.709015M57.602 -0.709015L2.402 -0.709991M57.602 -0.709015L74.929 9.439M57.602 -0.709015L39.32 -11.42M152.766 -11.419H209.49M223.202 -0.709015L236.196 9.439M223.202 -0.709015L209.49 -11.42M223.202 -0.709015H278.402M128.685 9.439H182.441M128.685 9.439H74.929M128.685 9.439L143.757 19.071M182.441 9.439L196.143 19.071M182.441 9.439H236.196M74.929 9.439H21.173M74.929 9.439L91.372 19.071M143.757 19.071H196.143M143.757 19.071H91.372M143.757 19.071L158.081 28.223M196.143 19.071L209.164 28.222L221.554 36.932M196.143 19.071H248.529M236.196 9.439L248.529 19.071M236.196 9.439H289.952M171.709 36.931H221.554M171.709 36.931L184.693 45.228M171.709 36.931H121.865M171.709 36.931L158.081 28.223M158.081 28.223H209.164H260.248M158.081 28.223H106.997M221.554 36.932L233.357 45.227M221.554 36.932H271.399M233.357 45.227H184.693M233.357 45.227L244.614 53.14M233.357 45.227H282.021M271.399 36.932L282.021 45.227M271.399 36.932H321.243M184.693 45.227H136.029M184.693 45.227L197.075 53.14M136.029 45.227L149.537 53.14M136.029 45.227L121.865 36.932M197.075 53.14H244.614M197.075 53.14H149.537M197.075 53.14L208.898 60.694M244.614 53.14L255.362 60.695L265.634 67.915M244.614 53.14H292.153M282.021 45.227L292.153 53.14M282.021 45.227H330.685M220.198 67.915H265.634M220.198 67.915L231.009 74.822M220.198 67.915H174.761M220.198 67.915L208.898 60.695M265.634 67.915L275.463 74.822H231.009M265.634 67.915H311.07M231.009 74.822H186.555M231.009 74.822L241.362 81.438M174.761 67.915L186.555 74.822M174.761 67.915L162.434 60.695M311.07 67.915L319.916 74.823M311.07 67.915L301.826 60.695M311.07 67.915H356.508M186.555 74.822H142.101M241.362 81.438L251.286 87.779M284.875 81.438L275.463 74.823H319.916M319.916 74.823L328.387 81.438H371.899H415.412M260.806 93.863H302.551M260.806 93.863L269.948 99.704M260.806 93.863H219.062M260.806 93.863L251.286 87.779M302.551 93.863L303.609 94.606L310.862 99.704M302.551 93.863L293.897 87.779M302.551 93.863H344.297M269.948 99.704H310.862M269.948 99.704H229.035M269.948 99.704L278.733 105.318M219.062 93.863L229.035 99.704M219.062 93.863L208.675 87.779M251.286 87.779H293.897M310.862 99.704L318.848 105.318M310.862 99.704H351.776M293.897 87.779L284.875 81.439M293.897 87.779H336.506M344.297 93.863L351.776 99.704M344.297 93.863L336.506 87.779M344.297 93.863H386.041M229.035 99.704L238.618 105.318M278.733 105.318H318.848M278.733 105.318H238.618M278.733 105.318L287.181 110.716M318.848 105.318L325.585 110.053L326.528 110.716M318.848 105.318H358.964M351.776 99.704L358.964 105.318M351.776 99.704H392.69M295.312 115.912H333.921M295.312 115.912L303.144 120.916M295.312 115.912H256.704M295.312 115.912L287.181 110.716M333.921 115.912L341.04 120.916M333.921 115.912L331.182 113.986L326.528 110.716M333.921 115.912H372.529M303.144 120.916H341.04M303.144 120.916H265.248M303.144 120.916L310.691 125.738M287.181 110.716H326.528M287.181 110.716H247.834M341.04 120.916L347.901 125.738M341.04 120.916H378.936M326.528 110.716H365.875M372.529 115.912L378.936 120.916M372.529 115.912L370.888 114.632L365.875 110.716M372.529 115.912H411.136M265.248 120.916L273.481 125.738M265.248 120.916L264.196 120.301L256.703 115.912M310.691 125.738H347.901M310.691 125.738H273.481M310.691 125.738L317.97 130.39M347.901 125.738L354.518 130.39M347.901 125.738H385.111M378.936 120.916L385.111 125.738M378.936 120.916H416.832M324.994 134.878H360.904M324.994 134.878L331.778 139.213M324.994 134.878H289.086M324.994 134.878L317.97 130.39M360.904 134.878L365.55 138.143L366.312 138.68L367.072 139.213M360.904 134.878L354.518 130.39M360.904 134.878H396.814M331.778 139.213H367.072M331.778 139.213L338.333 143.401H373.029M331.778 139.213H296.485M317.97 130.39H354.518M317.97 130.39H281.422M367.072 139.213H402.364M367.072 139.213L373.029 143.401M354.518 130.39H391.066M396.814 134.878L402.364 139.213M396.814 134.878L391.066 130.39M396.814 134.878H432.724M296.485 139.213H261.192M296.485 139.213L289.085 134.878M296.485 139.213L303.635 143.401M402.364 139.213H437.657M402.364 139.213L407.727 143.401M373.029 143.401H407.727M42.403 -293.107H139.203M42.403 -293.107L72.883 -262.502M42.403 -293.107L8.909 -326.739M42.403 -293.107L-8.607 -293.108M139.203 -293.107L165.328 -262.502M139.203 -293.107L110.494 -326.739M139.203 -293.107H236.002M72.883 -262.502H165.328M72.883 -262.502L100.739 -234.531M72.883 -262.502H-8.607M8.909 -326.739H110.494M8.909 -326.739L-8.607 -344.329M8.909 -326.739H-8.608M165.328 -262.502L189.205 -234.531M165.328 -262.502H257.774M110.494 -326.739L78.799 -363.869M110.494 -326.739L212.079 -326.74M100.739 -234.531H189.205M100.739 -234.531L12.273 -234.532M100.739 -234.531L126.296 -208.869M189.205 -234.531L211.111 -208.869M189.205 -234.531L277.671 -234.532M257.774 -262.502L277.671 -234.532M257.774 -262.502L236.002 -293.108M257.774 -262.502H350.219M149.827 -185.241H231.28M149.827 -185.241L171.563 -163.415M149.827 -185.241H68.374M149.827 -185.241L126.296 -208.869M231.28 -185.241L249.911 -163.415M231.28 -185.241L211.111 -208.869M231.28 -185.241H312.733M171.563 -163.415H249.911M171.563 -163.415H93.215M171.563 -163.415L191.704 -143.192M68.374 -185.241L93.215 -163.415M68.374 -185.241L41.48 -208.869M68.374 -185.241H-8.608M126.296 -208.869H211.111M126.296 -208.869L41.481 -208.87M249.911 -163.415L267.175 -143.192M249.911 -163.415H328.26M211.111 -208.869L295.925 -208.87M93.215 -163.415H14.867M93.215 -163.415L116.233 -143.193M191.704 -143.192H267.175M191.704 -143.192L116.233 -143.193M191.704 -143.192L210.417 -124.402M267.175 -143.192L283.215 -124.402M267.175 -143.192L342.646 -143.193M227.851 -106.896H298.157M227.851 -106.896L244.13 -90.549M227.851 -106.896H157.543M227.851 -106.896L210.417 -124.401M298.157 -106.896L312.112 -90.549M298.157 -106.896L283.215 -124.401M298.157 -106.896H368.464M244.13 -90.549H312.112M244.13 -90.549H176.148M244.13 -90.549L259.367 -75.249M312.112 -90.549L325.172 -75.249M312.112 -90.549H380.093M176.148 -90.549L193.563 -75.25M176.148 -90.549L157.543 -106.897M380.093 -90.549L390.977 -75.25M380.093 -90.549L368.464 -106.897M380.093 -90.549H448.075M287.09 -47.412H348.935M287.09 -47.412L299.738 -34.713M287.09 -47.412H225.247M287.09 -47.412L273.659 -60.899M348.935 -47.412L359.775 -34.713M348.935 -47.412L337.422 -60.899M348.935 -47.412H410.779L419.812 -34.713M299.738 -34.713H359.775M299.738 -34.713H239.7M299.738 -34.713L311.666 -22.735M225.247 -47.412L239.7 -34.713M225.247 -47.412L209.896 -60.899M359.775 -34.713L370 -22.735M359.775 -34.713H419.812M239.7 -34.713L253.333 -22.735M311.666 -22.735H370M311.666 -22.735H253.333M311.666 -22.735L322.936 -11.419M370 -22.735L379.66 -11.419M370 -22.735H428.333M419.812 -34.713L428.333 -22.735M419.812 -34.713H479.85M333.601 -0.709991H388.802M333.601 -0.709991L343.708 9.43799M333.601 -0.709991L278.402 -0.709015M333.601 -0.709991L322.936 -11.419M388.802 -0.709991L397.464 9.439M388.802 -0.709991L379.66 -11.419M388.802 -0.709991L444.001 -0.709015M278.402 -0.709015L289.952 9.43799M278.402 -0.709015L266.213 -11.419M322.936 -11.419H379.66M397.464 9.439H343.708M397.464 9.439L405.686 19.071M397.464 9.439H451.22M379.66 -11.419H436.383M444.001 -0.709015L451.22 9.439M444.001 -0.709015L436.383 -11.42M444.001 -0.709015H499.201M343.708 9.439H289.952M343.708 9.439L353.3 19.071M289.952 9.439L300.915 19.071M353.3 19.071H405.686M353.3 19.071H300.915M353.3 19.071L362.415 28.223M405.686 19.071L413.498 28.222L420.932 36.932M405.686 19.071H458.072M451.22 9.439L458.072 19.071M451.22 9.439H504.977M371.088 36.931H420.932M371.088 36.931L379.35 45.228M371.088 36.931H321.243M371.088 36.931L362.415 28.223M362.415 28.223H413.498H464.582M362.415 28.223H311.332M420.932 36.932L428.014 45.227M420.932 36.932H470.777M428.014 45.227H379.35M428.014 45.227L434.768 53.14M428.014 45.227H476.678M470.777 36.932L476.678 45.227M470.777 36.932H520.622M379.35 45.227H330.685M379.35 45.227L387.23 53.14M330.685 45.227L339.691 53.14M330.685 45.227L321.243 36.932M387.23 53.14H434.768M387.23 53.14H339.691M387.23 53.14L394.753 60.694M434.768 53.14L441.217 60.695L447.381 67.915M434.768 53.14H482.307M476.678 45.227L480.227 50.216L482.307 53.14M476.678 45.227H525.343M401.944 67.915H447.381M401.944 67.915L408.824 74.822M401.944 67.915H356.508M401.944 67.915L394.753 60.695M447.381 67.915L453.277 74.822H408.824M447.381 67.915H492.817M408.824 74.822H364.37M408.824 74.822L415.412 81.438M356.508 67.915L364.37 74.822M356.508 67.915L348.289 60.695M492.817 67.915L497.731 74.823M492.817 67.915L491.554 66.14L487.681 60.694M364.37 74.822H319.916M415.412 81.438L421.727 87.779M497.731 74.823H453.277L458.925 81.438L461.659 84.642L464.338 87.78M497.731 74.823L502.437 81.438H545.95H589.462M427.786 93.863H469.531M427.786 93.863L433.603 99.704M427.786 93.863H386.041M427.786 93.863L421.727 87.779M469.531 93.863L468.893 93.116L464.338 87.779M469.531 93.863L474.517 99.704M469.531 93.863H511.276M433.603 99.704H474.517M433.603 99.704H392.69M433.603 99.704L439.194 105.318M386.041 93.863L392.69 99.704M386.041 93.863L379.117 87.779M421.727 87.779H464.338M464.338 87.779H506.948M474.517 99.704L479.309 105.318M474.517 99.704H515.431M511.276 93.863L515.431 99.704M511.276 93.863L506.948 87.779M511.276 93.863H553.021M392.69 99.704L399.079 105.318M439.194 105.318H479.309M439.194 105.318H399.079M439.194 105.318L444.57 110.716M479.309 105.318L483.918 110.716M479.309 105.318H519.424M515.431 99.704L519.424 105.318M515.431 99.704H556.345M449.744 115.912H488.352M449.744 115.912L454.728 120.916M449.744 115.912H411.136M449.744 115.912L444.57 110.716M488.352 115.912L492.624 120.916M488.352 115.912L486.709 113.986L485.6 112.687L483.918 110.716M488.352 115.912H526.96M454.728 120.916H492.624M454.728 120.916H416.832M454.728 120.916L459.53 125.738M411.136 115.912L416.832 120.916M411.136 115.912L405.223 110.716M444.57 110.716H483.918M444.57 110.716H405.223M492.624 120.916L494.186 122.745L495.215 123.951L496.741 125.738M492.624 120.916H530.52M483.918 110.716H523.265M526.96 115.912L527.862 117.181L530.52 120.916M526.96 115.912L526.506 115.273L526.049 114.632L524.667 112.687L524.201 112.034L523.265 110.716M526.96 115.912H565.568M416.832 120.916L422.321 125.738M459.53 125.738H496.741M459.53 125.738H422.321M459.53 125.738L463.02 129.243L464.163 130.39M496.741 125.738L498.744 128.085L500.711 130.39M496.741 125.738H533.951M530.52 120.916L530.956 121.528L531.389 122.138L533.105 124.55L533.951 125.738M530.52 120.916H568.416M468.633 134.878H504.542M468.633 134.878L471.885 138.143L472.95 139.213M468.633 134.878H432.724M468.633 134.878L464.73 130.96L464.163 130.39M504.542 134.878L507.33 138.143L507.787 138.68L508.243 139.213M504.542 134.878L502.643 132.654L500.711 130.39M504.542 134.878H540.452M472.95 139.213H508.243M472.95 139.213L477.121 143.401M472.95 139.213H437.657M432.724 134.878L437.657 139.213M432.724 134.878L427.614 130.39M464.163 130.39H500.711M464.163 130.39H427.614M508.243 139.213H543.536M508.243 139.213L511.818 143.401M500.711 130.39H537.259M540.452 134.878L543.536 139.213M540.452 134.878L537.259 130.39M540.452 134.878H576.362M477.121 143.401H511.818M477.121 143.401H442.424M437.657 139.213L441.248 142.367L442.424 143.401M543.536 139.213H578.828M543.536 139.213L545.779 142.367L546.515 143.401M511.818 143.401H546.515M429.601 -293.107H526.401M429.601 -293.107L442.664 -262.502M429.601 -293.107H332.802M429.601 -293.107L415.247 -326.739M526.401 -293.107L535.11 -262.502M526.401 -293.107L516.832 -326.739M526.401 -293.107H623.201M442.664 -262.502H535.11M442.664 -262.502H350.219M442.664 -262.502L454.602 -234.531M415.247 -326.739H516.832M415.247 -326.739L399.4 -363.868M415.247 -326.739H313.662M535.11 -262.502L543.068 -234.531M535.11 -262.502H627.555M516.832 -326.739L506.267 -363.868M516.832 -326.739H618.415M623.201 -293.107L627.555 -262.502M623.201 -293.107L618.415 -326.739M623.201 -293.107H720M350.219 -262.502L366.137 -234.531M350.219 -262.502L332.802 -293.108M454.602 -234.531H543.068M454.602 -234.531H366.137M454.602 -234.531L465.555 -208.869M543.068 -234.531L550.37 -208.869M543.068 -234.531H631.534M627.555 -262.502L631.534 -234.531M627.555 -262.502H720M475.64 -185.241H557.093M475.64 -185.241L484.956 -163.415M475.64 -185.241H394.186M475.64 -185.241L465.555 -208.869M557.093 -185.241L563.304 -163.415M557.093 -185.241L550.37 -208.869M557.093 -185.241H638.547M484.956 -163.415H563.304M484.956 -163.415H406.608M484.956 -163.415L493.587 -143.192M465.555 -208.869H550.37M465.555 -208.869H380.741M563.304 -163.415L569.058 -143.192M563.304 -163.415H641.652M550.37 -208.869H635.185M638.547 -185.241L635.185 -208.869M638.547 -185.241H720M493.587 -143.192H569.058M493.587 -143.192L418.117 -143.193M493.587 -143.192L501.607 -124.402H574.405M569.058 -143.192L574.405 -124.402M569.058 -143.192L644.529 -143.193M509.079 -106.896H579.386M509.079 -106.896L516.056 -90.549M509.079 -106.896H438.772M509.079 -106.896L501.607 -124.401H428.81M579.386 -106.896L584.037 -90.549M579.386 -106.896L574.405 -124.401M579.386 -106.896H649.693M516.056 -90.549H584.037M516.056 -90.549H448.075M516.056 -90.549L522.586 -75.249M584.037 -90.549L588.391 -75.249M584.037 -90.549H652.019M448.075 -90.549L456.781 -75.25M448.075 -90.549L438.772 -106.897M652.019 -90.549L654.195 -75.25M652.019 -90.549L649.693 -106.897M652.019 -90.549H720M534.468 -47.412H596.311M534.468 -47.412L539.887 -34.713M534.468 -47.412H472.623M534.468 -47.412L528.711 -60.899M596.311 -47.412L599.925 -34.713M596.311 -47.412L592.474 -60.899M596.311 -47.412H658.156L659.963 -34.713M539.887 -34.713H599.925M539.887 -34.713H479.85M539.887 -34.713L545 -22.735M599.925 -34.713L603.333 -22.735M599.925 -34.713H659.963M479.85 -34.713L486.666 -22.735M479.85 -34.713L472.623 -47.413M545 -22.735H603.333M545 -22.735H486.666M545 -22.735L549.83 -11.419M603.333 -22.735L606.554 -11.419M603.333 -22.735H661.667M659.963 -34.713L661.667 -22.735M659.963 -34.713H720M554.4 -0.709991H609.601M554.4 -0.709991L558.732 9.43799M554.4 -0.709991L499.201 -0.709015M554.4 -0.709991L549.83 -11.419M609.601 -0.709991L612.488 9.439M609.601 -0.709991L606.554 -11.419M609.601 -0.709991L664.8 -0.709015M499.201 -0.709015L504.977 9.43799M499.201 -0.709015L493.106 -11.419M549.83 -11.419H606.554M612.488 9.439H558.732M612.488 9.439L615.229 19.071M612.488 9.439H666.244H720M606.554 -11.419H663.276M664.8 -0.709015L666.244 9.43799L667.615 19.071M664.8 -0.709015L663.276 -11.42M664.8 -0.709015H720M558.732 9.439H504.977M558.732 9.439L562.843 19.071M504.977 9.439L510.457 19.071M562.843 19.071H615.229M562.843 19.071H510.457M562.843 19.071L566.75 28.223M615.229 19.071L617.833 28.222L620.311 36.932M615.229 19.071H667.615M570.466 36.931H620.311M570.466 36.931L574.007 45.228M570.466 36.931H520.622M570.466 36.931L566.75 28.223M566.75 28.223H617.833H668.916M566.75 28.223H515.666M620.311 36.932L622.672 45.227M620.311 36.932H670.156M622.672 45.227H574.007M622.672 45.227L624.923 53.14M622.672 45.227H671.336M670.156 36.932L671.336 45.227M670.156 36.932H720M574.007 45.227H525.343M574.007 45.227L575.292 48.237L577.384 53.14M525.343 45.227L529.846 53.14M525.343 45.227L520.622 36.932M577.384 53.14H624.923M577.384 53.14H529.846M577.384 53.14L580.608 60.694M624.923 53.14L627.072 60.695L629.127 67.915M624.923 53.14H672.461M671.336 45.227L672.461 53.14M671.336 45.227H720M583.69 67.915H629.127M583.69 67.915L586.639 74.822L586.998 75.665L589.462 81.438M583.69 67.915H538.253M583.69 67.915L581.392 62.529L580.608 60.694M629.127 67.915H674.564M538.253 67.915L542.185 74.823M538.253 67.915L537.75 67.03L536.222 64.345L534.144 60.695M580.608 60.694H627.072H673.536M580.608 60.694H534.144M629.127 67.914L629.874 70.541L631.092 74.823M631.092 74.823H586.639H542.185M631.092 74.823L631.808 77.337L632.043 78.167L632.279 78.99L632.975 81.438L633.661 83.847L633.886 84.642L634.78 87.779M631.092 74.823H675.547M674.564 67.915L675.547 74.823M674.564 67.915L673.536 60.695M674.564 67.915H720M589.462 81.438L592.169 87.779M542.185 74.823L545.95 81.439L549.558 87.779H506.948M675.547 74.823L675.666 75.665L676.488 81.438H720H763.512M594.765 93.863H636.51M594.765 93.863L596.024 96.813L596.336 97.541L596.644 98.266L596.953 98.986L597.258 99.704M594.765 93.863H553.021M594.765 93.863L592.169 87.779M636.51 93.863L637.763 98.266L637.969 98.986L638.172 99.704M636.51 93.863L634.78 87.779M636.51 93.863H678.255M597.258 99.704H638.172M597.258 99.704H556.345M597.258 99.704L598.767 103.239L599.064 103.935L599.655 105.318M553.021 93.863L555.526 98.266L556.345 99.704M553.021 93.863L551.739 91.611L550.437 89.324L549.558 87.78H592.169M592.169 87.779H634.78M638.172 99.704L639.178 103.239L639.377 103.935L639.573 104.628L639.77 105.318M638.172 99.704H679.086M634.78 87.779H677.389M678.255 93.863L679.086 99.704M678.255 93.863L677.935 91.611L677.609 89.324L677.389 87.78M678.255 93.863H720M556.345 99.704L559.539 105.318M599.655 105.318H639.77M599.655 105.318H559.539M599.655 105.318L601.959 110.716M639.77 105.318L641.306 110.716M639.77 105.318H679.885M679.086 99.704L679.885 105.318M679.086 99.704H720M604.176 115.912H642.784M604.176 115.912L606.312 120.916M604.176 115.912H565.568M604.176 115.912L603.629 114.632L602.8 112.687L601.959 110.716M642.784 115.912L642.602 115.273L641.493 111.377L641.306 110.716M642.784 115.912L644.208 120.916M642.784 115.912H681.392M606.312 120.916H644.208M606.312 120.916H568.416M606.312 120.916L608.371 125.738M565.568 115.912L568.066 120.301L568.416 120.916M565.568 115.912L565.205 115.273L564.839 114.632L564.473 113.986L562.612 110.716M601.959 110.716H641.306M601.959 110.716H562.612M641.306 110.716H680.653M644.208 120.916L644.729 122.745L644.9 123.349L645.072 123.951L645.58 125.738M644.208 120.916H682.104M681.392 115.912L681.929 119.682L682.016 120.301L682.104 120.916M681.392 115.912L680.653 110.716M681.392 115.912H720M568.416 120.916L571.161 125.738M608.371 125.738H645.58M608.371 125.738H571.161M608.371 125.738L608.873 126.917L609.123 127.502L609.372 128.085L609.62 128.665L609.866 129.243L610.112 129.817L610.355 130.39M645.58 125.738L645.748 126.329L645.916 126.917L646.248 128.085L646.413 128.665L646.578 129.243L646.741 129.817L646.904 130.39M645.58 125.738H682.79M682.104 120.916L682.79 125.738M682.104 120.916H720M612.272 134.878H648.181M612.272 134.878L613.665 138.143L614.121 139.213M612.272 134.878H576.362M612.272 134.878L611.56 133.214L611.322 132.654L611.082 132.092L610.355 130.39M648.181 134.878L648.338 135.428L648.648 136.522L648.957 137.605L649.414 139.213M648.181 134.878L647.548 132.654L647.388 132.092L647.066 130.96L646.904 130.39M648.181 134.878H684.09M614.121 139.213H649.414M614.121 139.213L615.688 142.885L615.909 143.401M614.121 139.213H578.828M576.362 134.878L578.828 139.213M576.362 134.878L573.807 130.39M610.355 130.39H646.904M610.355 130.39H573.807M649.414 139.213L649.566 139.744L649.716 140.274L649.866 140.8L650.015 141.325L650.459 142.885L650.606 143.401M649.414 139.213H684.707M646.904 130.39H683.452M684.09 134.878L684.707 139.213M684.09 134.878L683.452 130.39M684.09 134.878H720M615.909 143.401H650.606M615.909 143.401H581.212M578.828 139.213L580.031 141.325L580.919 142.885L581.212 143.401M650.606 143.401H685.303M684.707 139.213L684.782 139.744L684.858 140.274L684.933 140.8L685.303 143.401M684.707 139.213H720M816.799 -293.107H913.599M816.799 -293.107L812.445 -262.502M816.799 -293.107H720M816.799 -293.107L821.585 -326.739M913.599 -293.107L904.891 -262.502M913.599 -293.107L923.168 -326.739M913.599 -293.107H1010.4M812.445 -262.502H904.891M812.445 -262.502H720M812.445 -262.502L808.466 -234.531M720 -293.107V-262.502M720 -293.107V-326.74M821.585 -326.739H923.168M821.585 -326.739L826.867 -363.869M821.585 -326.739L720 -326.74M904.891 -262.502L896.932 -234.531M904.891 -262.502H997.336M923.168 -326.739L933.733 -363.869M923.168 -326.739L1024.75 -326.74M720 -262.502V-234.532M808.466 -234.531H896.932M808.466 -234.531L720 -234.532M808.466 -234.531L804.815 -208.869M896.932 -234.531L889.63 -208.869M896.932 -234.531L985.398 -234.532M997.336 -262.502L985.398 -234.532M997.336 -262.502L1010.4 -293.108M997.336 -262.502H1089.78M801.453 -185.241H882.907M801.453 -185.241L798.348 -163.415M801.453 -185.241H720M801.453 -185.241L804.815 -208.869M882.907 -185.241L876.696 -163.415M882.907 -185.241L889.63 -208.869M882.907 -185.241H964.36M798.348 -163.415H876.696M798.348 -163.415H720M798.348 -163.415L795.471 -143.192M720 -185.241V-163.415M720 -185.241V-208.87M804.815 -208.869H889.63M804.815 -208.869L720 -208.87M876.696 -163.415L870.942 -143.192M876.696 -163.415H955.044M889.63 -208.869L974.445 -208.87M720 -163.415V-143.193M795.471 -143.192H870.942M795.471 -143.192L720 -143.193M795.471 -143.192L792.798 -124.402M870.942 -143.192L865.595 -124.402M870.942 -143.192L946.413 -143.193M790.307 -106.896H860.614M790.307 -106.896L787.981 -90.549M790.307 -106.896H720M790.307 -106.896L792.798 -124.401M860.614 -106.896L855.963 -90.549M860.614 -106.896L865.595 -124.401M860.614 -106.896H930.921M787.981 -90.549H855.963M787.981 -90.549H720M787.981 -90.549L785.805 -75.249M855.963 -90.549L851.609 -75.249M855.963 -90.549H923.944M720 -90.549V-75.25M720 -90.549V-106.897M923.944 -90.549L917.414 -75.25M923.944 -90.549L930.921 -106.897M923.944 -90.549H991.925M781.844 -47.412H843.689M781.844 -47.412L780.037 -34.713M781.844 -47.412H720M781.844 -47.412L783.763 -60.899M843.689 -47.412L840.075 -34.713M843.689 -47.412L847.526 -60.899M843.689 -47.412H905.532L900.113 -34.713M780.037 -34.713H840.075M780.037 -34.713H720M780.037 -34.713L778.333 -22.735M840.075 -34.713L836.667 -22.735M840.075 -34.713H900.113M720 -34.713V-22.735M720 -34.713V-47.413M778.333 -22.735H836.667M778.333 -22.735H720M778.333 -22.735L776.724 -11.419M836.667 -22.735L833.446 -11.419M836.667 -22.735H895M900.113 -34.713L895 -22.735M900.113 -34.713H960.15M775.2 -0.709991H830.399M775.2 -0.709991L773.756 9.43799M775.2 -0.709991L720 -0.709015M775.2 -0.709991L776.724 -11.419M830.399 -0.709991L827.512 9.439M830.399 -0.709991L833.446 -11.419M830.399 -0.709991L885.6 -0.709015M720 -0.709015V9.439M720 -0.709015V-11.419M776.724 -11.419H833.446M827.512 9.439H773.756M827.512 9.439L824.772 19.071M827.512 9.439H881.268M833.446 -11.419H890.17M885.6 -0.709015L881.268 9.439M885.6 -0.709015L890.17 -11.42M885.6 -0.709015H940.799M773.756 9.439H720M773.756 9.439L772.385 19.071M720 9.439V19.071M772.385 19.071H824.772M772.385 19.071H720M772.385 19.071L771.242 27.103L771.084 28.223M824.772 19.071L822.167 28.222L819.689 36.932M824.772 19.071H877.157M881.268 9.439L877.157 19.071M881.268 9.439H935.023M769.844 36.931H819.689M769.844 36.931L768.664 45.228M769.844 36.931H720M769.844 36.931L771.084 28.223M771.084 28.223H822.167H873.25M771.084 28.223H720M819.689 36.932L817.328 45.227M819.689 36.932H869.534M817.328 45.227H768.664M817.328 45.227L815.077 53.14M817.328 45.227H865.993M869.534 36.932L865.993 45.227M869.534 36.932H919.378M768.664 45.227H720M768.664 45.227L767.539 53.14M720 45.227V53.14M720 45.227V36.932M767.539 53.14H815.077M767.539 53.14H720M767.539 53.14L766.464 60.694M815.077 53.14L812.928 60.695L810.873 67.915M815.077 53.14H862.616M865.993 45.227L865.133 47.24L862.616 53.14M865.993 45.227H914.657M765.436 67.915H810.873M765.436 67.915L764.453 74.822L764.334 75.665L763.512 81.438M765.436 67.915H720M765.436 67.915L766.464 60.695M810.873 67.915L809.148 73.975L808.908 74.823M810.873 67.915H856.31M720 67.915V74.822H675.547M720 67.915V60.695M808.908 74.823H764.453H720M808.908 74.823L808.192 77.337L807.957 78.167L807.721 78.99L807.025 81.438L806.339 83.847L806.114 84.642L805.221 87.779M808.908 74.823H853.361M856.31 67.915L853.361 74.823M856.31 67.915L858.608 62.529L859.392 60.694M763.512 81.438L763.283 83.048L762.832 86.219L762.611 87.779M853.361 74.823L850.538 81.438H894.05H937.563M761.745 93.863H803.49M761.745 93.863L760.914 99.704M761.745 93.863H720M761.745 93.863L762.065 91.611L762.174 90.853L762.281 90.09L762.5 88.554L762.611 87.779M803.49 93.863L802.237 98.266L801.827 99.704M803.49 93.863L805.221 87.779M803.49 93.863H845.235M760.914 99.704H801.827M760.914 99.704H720M760.914 99.704L760.115 105.318M720 93.863V99.704M720 93.863V87.779M762.611 87.779H805.221M801.827 99.704L800.822 103.239L800.623 103.935L800.427 104.628L800.23 105.318M801.827 99.704H842.742M805.221 87.779H847.831M845.235 93.863L843.664 97.541L843.356 98.267L843.047 98.987L842.742 99.704M845.235 93.863L847.501 88.553L847.831 87.78M845.235 93.863H886.979M720 99.704V105.318M760.115 105.318H800.23M760.115 105.318H720M760.115 105.318L759.347 110.716M800.23 105.318L798.694 110.716M800.23 105.318H840.345M842.742 99.704L841.532 102.539L841.233 103.239L840.936 103.935L840.345 105.318M842.742 99.704H883.655M758.608 115.912H797.216M758.608 115.912L757.896 120.916M758.608 115.912H720M758.608 115.912L759.347 110.716M797.216 115.912L797.398 115.273L798.507 111.377L798.694 110.716M797.216 115.912L795.792 120.916M797.216 115.912H835.824M757.896 120.916H795.792M757.896 120.916H720M757.896 120.916L757.21 125.738M720 115.912V120.916M720 115.912V110.716M759.347 110.716H798.694M759.347 110.716H720M798.694 110.716H838.041M795.792 120.916L795.271 122.745L795.1 123.349L794.928 123.951L794.42 125.738M795.792 120.916H833.688M835.824 115.912L833.688 120.916M835.824 115.912L836.371 114.632L837.2 112.687L838.041 110.716M835.824 115.912H874.432M720 120.916V125.738M757.21 125.738H794.42M757.21 125.738H720M757.21 125.738L756.548 130.39M794.42 125.738L794.252 126.329L793.752 128.085L793.587 128.665L793.422 129.243L793.259 129.817L793.096 130.39M794.42 125.738H831.63M833.688 120.916L831.63 125.738M833.688 120.916H871.584M755.91 134.878H791.819M755.91 134.878L755.293 139.213M755.91 134.878H720M755.91 134.878L756.548 130.39M791.819 134.878L791.662 135.428L791.351 136.522L791.197 137.065L790.89 138.143L790.738 138.68L790.585 139.213M791.819 134.878L792.452 132.654L792.612 132.092L792.934 130.96L793.096 130.39M791.819 134.878H827.728M755.293 139.213L755.218 139.744L755.142 140.274L755.067 140.8L754.697 143.401M755.293 139.213H790.585M755.293 139.213H720M720 134.878V139.213M720 134.878V130.39M756.548 130.39H793.096M756.548 130.39H720M790.585 139.213H825.879M790.585 139.213L790.284 140.274L790.134 140.8L789.985 141.325L789.541 142.885L789.394 143.401M793.096 130.39H829.645M827.728 134.878L826.335 138.143L825.879 139.213M827.728 134.878L828.918 132.092L829.645 130.39M827.728 134.878H863.638M754.697 143.401H789.394M754.697 143.401H720M720 139.213V143.401M825.879 139.213H861.172M825.879 139.213L824.532 142.367L824.091 143.401M789.394 143.401H824.091M1204 -293.107H1300.8M1204 -293.107L1182.23 -262.502M1204 -293.107H1107.2M1204 -293.107L1227.92 -326.739M1300.8 -293.107L1274.67 -262.502M1300.8 -293.107L1329.51 -326.739M1300.8 -293.107H1397.6M1182.23 -262.502H1274.67M1182.23 -262.502H1089.78M1182.23 -262.502L1162.33 -234.531M1227.92 -326.739H1329.51M1227.92 -326.739L1254.33 -363.869M1227.92 -326.739L1126.34 -326.74M1274.67 -262.502L1250.8 -234.531M1274.67 -262.502H1367.12M1329.51 -326.739L1361.2 -363.869M1329.51 -326.739L1431.09 -326.74M1089.78 -262.502L1073.86 -234.532M1089.78 -262.502L1107.2 -293.108M1162.33 -234.531H1250.8M1162.33 -234.531L1073.86 -234.532M1162.33 -234.531L1144.07 -208.869M1250.8 -234.531L1228.89 -208.869M1250.8 -234.531L1339.26 -234.532M1367.12 -262.502L1339.26 -234.532M1367.12 -262.502L1397.6 -293.108M1367.12 -262.502L1448.61 -262.503M1127.27 -185.241H1208.72M1127.27 -185.241L1111.74 -163.415M1127.27 -185.241H1045.81M1127.27 -185.241L1144.07 -208.869M1208.72 -185.241L1190.09 -163.415M1208.72 -185.241L1228.89 -208.869M1208.72 -185.241H1290.17M1111.74 -163.415H1190.09M1111.74 -163.415H1033.39M1111.74 -163.415L1097.35 -143.192M1144.07 -208.869H1228.89M1144.07 -208.869L1059.26 -208.87M1190.09 -163.415L1172.83 -143.192M1190.09 -163.415H1268.44M1228.89 -208.869L1313.7 -208.87M1097.35 -143.192H1172.83M1097.35 -143.192L1021.88 -143.193M1097.35 -143.192L1083.99 -124.402M1172.83 -143.192L1156.79 -124.402M1172.83 -143.192L1248.3 -143.193M1071.54 -106.896H1141.84M1071.54 -106.896L1059.91 -90.549M1071.54 -106.896H1001.23M1071.54 -106.896L1083.99 -124.401M1141.84 -106.896L1127.89 -90.549M1141.84 -106.896L1156.79 -124.401M1141.84 -106.896H1212.15M1059.91 -90.549H1127.89M1059.91 -90.549H991.925M1059.91 -90.549L1049.02 -75.249M1127.89 -90.549L1114.83 -75.249M1127.89 -90.549H1195.87M991.925 -90.549L983.219 -75.25M991.925 -90.549L1001.23 -106.897M1195.87 -90.549L1180.63 -75.25M1195.87 -90.549L1212.15 -106.897M1195.87 -90.549H1263.85M1029.22 -47.412H1091.07M1029.22 -47.412L1020.19 -34.713M1029.22 -47.412H967.377M1029.22 -47.412L1038.82 -60.899M1091.07 -47.412L1080.23 -34.713M1091.07 -47.412L1102.58 -60.899M1091.07 -47.412H1152.91L1140.26 -34.713M1020.19 -34.713H1080.23M1020.19 -34.713H960.15M1020.19 -34.713L1011.67 -22.735M1080.23 -34.713L1070 -22.735M1080.23 -34.713H1140.26M960.15 -34.713L953.334 -22.735M960.15 -34.713L967.377 -47.413M1011.67 -22.735H1070M1011.67 -22.735H953.334M1011.67 -22.735L1003.62 -11.419M1070 -22.735L1060.34 -11.419M1070 -22.735H1128.33M1140.26 -34.713L1128.33 -22.735M1140.26 -34.713H1200.3M995.999 -0.709991H1051.2M995.999 -0.709991L988.78 9.439M995.999 -0.709991L940.799 -0.709015M995.999 -0.709991L1003.62 -11.419M1051.2 -0.709991L1042.54 9.439M1051.2 -0.709991L1060.34 -11.419M1051.2 -0.709991L1106.4 -0.709015M988.78 9.439H1042.54M988.78 9.439H935.023M988.78 9.439L981.928 19.071M940.799 -0.709015L939.326 1.879L935.023 9.439M940.799 -0.709015L946.894 -11.419M1003.62 -11.419H1060.34M1042.54 9.439L1034.31 19.071M1042.54 9.439H1096.29M1060.34 -11.419H1117.06M1106.4 -0.709015L1096.29 9.439M1106.4 -0.709015L1117.06 -11.42M1106.4 -0.709015L1161.6 -0.709991M935.023 9.439L929.543 19.071M981.928 19.071H1034.31M981.928 19.071H929.543M981.928 19.071L975.418 28.223M1034.31 19.071L1026.5 28.222L1019.07 36.932M1034.31 19.071H1086.7M1096.29 9.439L1086.7 19.071M1096.29 9.439H1150.05M969.223 36.931H1019.07M969.223 36.931L963.321 45.228M969.223 36.931H919.378M969.223 36.931L975.418 28.223M975.418 28.223H1026.5H1077.58M975.418 28.223H924.334M1019.07 36.932L1011.99 45.227M1019.07 36.932H1068.91M1011.99 45.227H963.321M1011.99 45.227L1005.23 53.14M1011.99 45.227H1060.65M1068.91 36.932L1060.65 45.227M1068.91 36.932H1118.76M963.321 45.227H914.657M963.321 45.227L957.693 53.14M914.657 45.227L910.154 53.14M914.657 45.227L919.378 36.932M957.693 53.14H1005.23M957.693 53.14H910.154M957.693 53.14L952.319 60.694M1005.23 53.14L998.783 60.695L992.619 67.915M1005.23 53.14H1052.77M1060.65 45.227L1052.77 53.14M1060.65 45.227H1109.31M952.319 60.694L948.446 66.14L947.812 67.03L947.183 67.915H901.747M952.319 60.694H998.783H1045.25M952.319 60.694H905.856M992.619 67.914H947.183L942.269 74.823M901.747 67.915L897.815 74.823L894.05 81.439L890.442 87.779M901.747 67.915L903.778 64.345L905.856 60.695M992.619 67.915L986.723 74.822H942.269M992.619 67.915H1038.06M1038.06 67.915L1031.18 74.823M1038.06 67.915L1045.25 60.695M1038.06 67.915H1083.49M942.269 74.822H897.815H853.361M942.269 74.822L937.563 81.438M937.563 81.438L936.417 83.048L933.052 87.779M1031.18 74.823H986.723L981.075 81.438L979.018 83.847L978.341 84.642L975.662 87.779M1031.18 74.823L1024.59 81.438H1068.1H1111.61M928.724 93.863H970.47M928.724 93.863L924.569 99.704M928.724 93.863H886.979M928.724 93.863L933.052 87.779M970.47 93.863L967.329 97.541L965.483 99.704M970.47 93.863L975.662 87.779M970.47 93.863H1012.21M924.569 99.704H965.483M924.569 99.704H883.655M924.569 99.704L921.067 104.628L920.576 105.318M886.979 93.863L884.474 98.266L883.655 99.704M886.979 93.863L888.261 91.611L890.442 87.779M933.052 87.779H975.662M965.483 99.704L960.691 105.318M965.483 99.704H1006.4M975.662 87.779H1018.27M1012.21 93.863L1006.4 99.704M1012.21 93.863L1018.27 87.779M1012.21 93.863H1053.96M883.655 99.704L880.461 105.318M920.576 105.318H960.691M920.576 105.318H880.461M920.576 105.318L916.735 110.716M960.691 105.318L956.082 110.716M960.691 105.318H1000.81M1006.4 99.704L1002.88 103.239L1002.18 103.935L1000.81 105.318M1006.4 99.704H1047.31M913.04 115.912H951.648M913.04 115.912L912.138 117.181L909.48 120.916M913.04 115.912H874.432M913.04 115.912L913.951 114.632L915.799 112.034L916.735 110.716M951.648 115.912L947.376 120.916M951.648 115.912L953.291 113.986L954.4 112.687L956.082 110.716M951.648 115.912H990.256M909.48 120.916H947.376M909.48 120.916H871.584M909.48 120.916L906.895 124.55L906.049 125.738M874.432 115.912L871.934 120.301L871.584 120.916M874.432 115.912L874.795 115.273L875.161 114.632L875.527 113.986L877.388 110.716M916.735 110.716H956.082M916.735 110.716H877.388M947.376 120.916L945.814 122.745L944.785 123.951L943.259 125.738M947.376 120.916H985.272M956.082 110.716H995.43M990.256 115.912L985.272 120.916M990.256 115.912L993.466 112.687L994.118 112.034L995.43 110.716M990.256 115.912H1028.86M871.584 120.916L868.839 125.738M906.049 125.738H943.259M906.049 125.738H868.839M906.049 125.738L902.741 130.39M943.259 125.738L941.256 128.085L940.761 128.665L939.289 130.39M943.259 125.738H980.47M985.272 120.916L980.47 125.738M985.272 120.916H1023.17M899.548 134.878H935.458M899.548 134.878L897.608 137.605L896.464 139.213M899.548 134.878H863.638M899.548 134.878L902.741 130.39M935.458 134.878L932.67 138.143L932.213 138.68L931.757 139.213M935.458 134.878L937.357 132.654L939.289 130.39M935.458 134.878H971.367M896.464 139.213H931.757M896.464 139.213L894.962 141.325L894.221 142.367L893.852 142.885L893.485 143.401M896.464 139.213H861.172M863.638 134.878L861.78 138.143L861.172 139.213M863.638 134.878L866.193 130.39M902.741 130.39H939.289M902.741 130.39H866.193M931.757 139.213H967.05M931.757 139.213L928.182 143.401M939.289 130.39H975.837M971.367 134.878L968.115 138.143L967.05 139.213M971.367 134.878L975.27 130.96L975.837 130.39M971.367 134.878H1007.28M893.485 143.401H928.182M893.485 143.401H858.788M861.172 139.213L859.969 141.325L859.081 142.885L858.788 143.401M967.05 139.213H1002.34M967.05 139.213L962.879 143.401M928.182 143.401H962.879M1425.13 -163.415H1346.78M1425.13 -163.415L1399.24 -143.192M1425.13 -163.415H1448.61M1425.13 -163.415L1448.61 -181.748M1399.24 -143.192L1375.18 -124.402M1399.24 -143.192L1323.77 -143.193M1399.24 -143.192L1448.61 -143.193M1448.61 -163.415V-143.193M1448.61 -163.415V-181.748M1448.61 -181.748V-185.241V-208.87M1352.76 -106.896H1423.07M1352.76 -106.896L1331.83 -90.549M1352.76 -106.896H1282.46M1352.76 -106.896L1375.18 -124.401M1423.07 -106.896L1399.81 -90.549M1423.07 -106.896L1447.98 -124.401M1423.07 -106.896H1448.61M1331.83 -90.549H1399.81M1331.83 -90.549H1263.85M1331.83 -90.549L1312.24 -75.249M1399.81 -90.549L1378.05 -75.249M1399.81 -90.549H1448.61M1448.61 -106.896V-90.549M1448.61 -106.896V-124.401V-124.845V-143.193M1263.85 -90.549L1246.44 -75.25M1263.85 -90.549L1282.46 -106.897M1448.61 -90.549V-78.289V-75.25H1443.85M1276.6 -47.412H1338.44M1276.6 -47.412L1260.34 -34.713M1276.6 -47.412H1214.75M1276.6 -47.412L1293.87 -60.899M1338.44 -47.412L1320.38 -34.713M1338.44 -47.412L1357.63 -60.899M1338.44 -47.412H1400.29M1260.34 -34.713H1320.38M1260.34 -34.713H1200.3M1260.34 -34.713L1245 -22.735M1320.38 -34.713L1303.33 -22.735M1320.38 -34.713H1380.41M1400.29 -47.412L1380.41 -34.713M1400.29 -47.412L1421.39 -60.899M1400.29 -47.412H1448.61M1200.3 -34.713L1186.67 -22.735M1200.3 -34.713L1214.75 -47.413M1245 -22.735H1303.33M1245 -22.735H1186.67M1245 -22.735L1230.51 -11.419H1173.79M1303.33 -22.735H1361.67M1380.41 -34.713L1361.67 -22.735M1380.41 -34.713H1440.45M1216.8 -0.709991H1272M1216.8 -0.709991L1203.8 9.43799M1216.8 -0.709991H1161.6M1216.8 -0.709991L1230.51 -11.42H1287.23M1272 -0.709991L1257.56 9.439M1272 -0.709991L1287.23 -11.419M1272 -0.709991L1327.2 -0.709015M1161.6 -0.709991L1150.05 9.439M1161.6 -0.709991L1173.79 -11.419M1257.56 9.439H1203.8M1257.56 9.439L1243.86 19.071M1257.56 9.439H1311.32M1327.2 -0.709015L1311.32 9.439M1327.2 -0.709015L1343.96 -11.42M1327.2 -0.709015H1382.4M1203.8 9.439H1150.05M1203.8 9.439L1191.47 19.071M1150.05 9.439L1139.09 19.071M1191.47 19.071H1243.86M1191.47 19.071H1139.09M1191.47 19.071L1179.75 28.223M1243.86 19.071L1230.84 28.222L1218.45 36.932M1243.86 19.071H1296.24M1311.32 9.439L1296.24 19.071M1311.32 9.439H1365.07M1168.6 36.931H1218.45M1168.6 36.931L1157.98 45.228M1168.6 36.931H1118.76M1168.6 36.931L1179.75 28.223M1179.75 28.223H1230.84H1281.92M1179.75 28.223H1128.67M1218.45 36.932L1206.64 45.227M1218.45 36.932H1268.29M1206.64 45.227H1157.98M1206.64 45.227L1195.39 53.14M1206.64 45.227H1255.31M1268.29 36.932L1255.31 45.227M1268.29 36.932H1318.14M1157.98 45.227H1109.31M1157.98 45.227L1147.85 53.14M1109.31 45.227L1100.31 53.14M1109.31 45.227L1118.76 36.932M1147.85 53.14H1195.39M1147.85 53.14H1100.31M1147.85 53.14L1138.17 60.694M1195.39 53.14L1184.64 60.695L1174.37 67.915M1195.39 53.14H1242.92M1255.31 45.227L1242.92 53.14M1255.31 45.227L1303.97 45.226M1128.93 67.915H1174.37M1128.93 67.915L1120.08 74.822M1128.93 67.915H1083.49M1128.93 67.915L1138.17 60.695M1174.37 67.915L1164.54 74.822H1120.08M1174.37 67.915H1219.8M1120.08 74.822H1075.63M1120.08 74.822L1111.61 81.438M1083.49 67.915L1075.63 74.822M1083.49 67.915L1091.71 60.695M1219.8 67.915L1208.99 74.823M1219.8 67.915L1231.1 60.695M1219.8 67.915H1265.24M1075.63 74.822H1031.18M1111.61 81.438L1103.49 87.779M1155.13 81.438L1164.54 74.823H1208.99M1208.99 74.823L1198.64 81.438H1242.15H1285.66M1095.7 93.863H1137.45M1095.7 93.863L1088.22 99.704M1095.7 93.863H1053.96M1095.7 93.863L1103.49 87.779M1137.45 93.863L1129.14 99.704M1137.45 93.863L1146.1 87.779M1137.45 93.863H1179.19M1088.22 99.704H1129.14M1088.22 99.704H1047.31M1088.22 99.704L1081.04 105.318M1053.96 93.863L1047.31 99.704M1053.96 93.863L1060.88 87.779M1103.49 87.779H1146.1M1129.14 99.704L1121.15 105.318M1129.14 99.704H1170.05M1146.1 87.779L1155.13 81.439M1146.1 87.779H1188.71M1179.19 93.863L1170.05 99.704M1179.19 93.863L1188.71 87.779M1179.19 93.863H1220.94M1047.31 99.704L1040.92 105.318M1081.04 105.318H1121.15M1081.04 105.318H1040.92M1081.04 105.318L1074.12 110.716M1121.15 105.318L1114.41 110.053L1113.47 110.716M1121.15 105.318H1161.27M1170.05 99.704L1161.27 105.318M1170.05 99.704H1210.97M1067.47 115.912H1106.08M1067.47 115.912L1061.06 120.916M1067.47 115.912H1028.86M1067.47 115.912L1069.11 114.632L1069.94 113.986L1074.12 110.716M1106.08 115.912L1098.96 120.916M1106.08 115.912L1113.47 110.716M1106.08 115.912H1144.69M1061.06 120.916H1098.96M1061.06 120.916H1023.17M1061.06 120.916L1054.89 125.738M1028.86 115.912L1023.17 120.916M1028.86 115.912L1034.78 110.716M1074.12 110.716H1113.47M1074.12 110.716H1034.78M1098.96 120.916L1092.1 125.738M1098.96 120.916H1136.86M1113.47 110.716H1152.82M1144.69 115.912L1136.86 120.916M1144.69 115.912L1152.82 110.716M1144.69 115.912H1183.3M1023.17 120.916L1017.68 125.738M1054.89 125.738H1092.1M1054.89 125.738H1017.68M1054.89 125.738L1048.93 130.39M1092.1 125.738L1085.48 130.39M1092.1 125.738H1129.31M1136.86 120.916L1129.31 125.738M1136.86 120.916H1174.75M1043.19 134.878H1079.1M1043.19 134.878L1037.64 139.213M1043.19 134.878H1007.28M1043.19 134.878L1048.93 130.39M1079.1 134.878L1074.45 138.143L1073.69 138.68L1072.93 139.213M1079.1 134.878L1085.48 130.39M1079.1 134.878H1115M1037.64 139.213H1072.93M1037.64 139.213L1032.93 142.885L1032.27 143.401M1037.64 139.213H1002.34M1007.28 134.878L1002.34 139.213M1007.28 134.878L1012.38 130.39M1048.93 130.39H1085.48M1048.93 130.39H1012.38M1072.93 139.213H1108.22M1072.93 139.213L1066.97 143.401M1085.48 130.39H1122.03M1115 134.878L1108.22 139.213M1115 134.878L1122.03 130.39M1115 134.878H1150.91M1032.27 143.401H1066.97M1032.27 143.401H997.576M1002.34 139.213L998.752 142.367L997.576 143.401M1108.22 139.213H1143.51M1108.22 139.213L1101.67 143.401M1066.97 143.401H1101.67M1437.6 -0.709015L1418.83 9.439M1437.6 -0.709015H1382.4M1437.6 -0.709015L1448.61 -6.66199M1437.6 -0.709015L1448.61 -0.709991M1382.4 -0.709015L1365.07 9.439M1382.4 -0.709015L1400.68 -11.42M1448.61 -6.66199V-0.709991M1448.61 -6.66199V-11.419M1448.61 -0.709991V9.439V19.071M1418.83 9.43799H1365.07M1418.83 9.43799L1401.01 19.07M1418.83 9.43799H1448.61M1401.01 19.07L1384.09 28.222M1401.01 19.07L1348.63 19.071M1401.01 19.07L1448.61 19.071M1367.98 36.93H1417.82M1367.98 36.93L1352.64 45.227M1367.98 36.93H1318.14M1367.98 36.93L1384.09 28.222M1352.64 45.227L1401.3 45.226M1352.64 45.227L1303.97 45.226M1352.64 45.227L1338 53.14M1384.09 28.222H1333L1318.14 36.932M1417.82 36.931L1401.3 45.226M1417.82 36.931L1435.17 28.221M1417.82 36.931H1448.61M1401.3 45.226L1385.54 53.14M1401.3 45.226L1448.61 45.227M1303.97 45.226L1290.46 53.14M1303.97 45.226L1318.14 36.932M1338 53.14H1385.54M1338 53.14H1290.46M1338 53.14L1324.03 60.694M1385.54 53.14L1370.49 60.695L1356.11 67.915M1385.54 53.14H1433.08M1448.61 45.227V36.932M1448.61 45.227V45.863M1310.68 67.915H1356.11M1310.68 67.915L1297.9 74.822M1310.68 67.915H1265.24M1310.68 67.915L1324.03 60.695M1356.11 67.915L1342.35 74.822H1297.9M1356.11 67.915H1401.55M1297.9 74.822H1253.44M1297.9 74.822L1285.66 81.438M1265.24 67.915L1253.44 74.822M1265.24 67.915L1277.57 60.695M1401.55 67.915L1386.81 74.823M1401.55 67.915L1416.96 60.695M1401.55 67.915H1446.98M1253.44 74.822H1208.99M1285.66 81.438H1329.18M1285.66 81.438L1273.93 87.779M1329.18 81.438L1342.35 74.823H1386.81M1329.18 81.438H1372.69M1386.81 74.823L1372.69 81.438M1262.68 93.863H1304.43M1262.68 93.863L1251.88 99.704M1262.68 93.863H1220.94M1262.68 93.863L1273.93 87.779M1304.43 93.863L1292.79 99.704M1304.43 93.863L1316.55 87.779M1304.43 93.863H1346.17M1251.88 99.704H1292.79M1251.88 99.704H1210.97M1251.88 99.704L1241.5 105.318M1220.94 93.863L1210.97 99.704M1220.94 93.863L1231.32 87.779M1273.93 87.779H1316.55M1273.93 87.779H1231.32M1292.79 99.704L1281.61 105.318M1292.79 99.704H1333.71M1316.55 87.779L1329.18 81.439M1316.55 87.779H1359.16M1346.17 93.863L1333.71 99.704M1346.17 93.863L1359.16 87.779M1346.17 93.863H1387.92M1210.97 99.704L1201.38 105.318M1241.5 105.318H1281.61M1241.5 105.318H1201.38M1241.5 105.318L1231.51 110.716M1281.61 105.318L1270.86 110.716M1281.61 105.318H1321.73M1333.71 99.704L1321.73 105.318M1333.71 99.704H1374.62M1221.9 115.912H1260.51M1221.9 115.912L1212.65 120.916M1221.9 115.912H1183.3M1221.9 115.912L1231.51 110.716M1260.51 115.912L1250.54 120.916M1260.51 115.912L1270.86 110.716M1260.51 115.912H1299.12M1212.65 120.916H1250.54M1212.65 120.916H1174.75M1212.65 120.916L1203.73 125.738M1183.3 115.912L1175.8 120.301L1174.75 120.916M1183.3 115.912L1192.17 110.716M1231.51 110.716H1270.86M1231.51 110.716H1192.17M1250.54 120.916L1240.94 125.738M1250.54 120.916H1288.44M1270.86 110.716H1310.21M1299.12 115.912L1288.44 120.916M1299.12 115.912L1310.21 110.716M1299.12 115.912H1337.73M1174.75 120.916L1166.52 125.738M1203.73 125.738H1240.94M1203.73 125.738H1166.52M1203.73 125.738L1195.13 130.39M1240.94 125.738L1231.67 130.39M1240.94 125.738H1278.15M1288.44 120.916L1278.15 125.738M1288.44 120.916H1326.34M1186.82 134.878H1222.73M1186.82 134.878L1178.81 139.213M1186.82 134.878H1150.91M1186.82 134.878L1195.13 130.39M1222.73 134.878L1214.1 139.213M1222.73 134.878L1231.67 130.39M1222.73 134.878H1258.64M1178.81 139.213H1214.1M1178.81 139.213L1171.06 143.401M1178.81 139.213H1143.51M1150.91 134.878L1143.51 139.213M1150.91 134.878L1158.58 130.39M1195.13 130.39H1231.67M1195.13 130.39H1158.58M1214.1 139.213H1249.39M1214.1 139.213L1205.76 143.401M1231.67 130.39H1268.22M1258.64 134.878L1249.39 139.213M1258.64 134.878L1268.22 130.39M1258.64 134.878H1294.55M1171.06 143.401H1205.76M1171.06 143.401H1136.36M1143.51 139.213L1136.36 143.401M1249.39 139.213H1284.69M1249.39 139.213L1240.45 143.401M1205.76 143.401H1240.45M1429.66 93.863L1415.53 99.704M1429.66 93.863H1387.92M1429.66 93.863L1444.38 87.779M1429.66 93.863H1448.61M1415.53 99.704H1374.62M1415.53 99.704L1401.96 105.318M1415.53 99.704H1448.61M1387.92 93.863L1374.62 99.704M1387.92 93.863L1401.77 87.779M1444.38 87.779H1401.77M1444.38 87.779H1448.61M1444.38 87.779L1448.61 86.03M1448.61 93.863V99.704M1448.61 93.863V87.779M1374.62 99.704L1361.84 105.318M1401.96 105.318H1442.07M1401.96 105.318H1361.84M1401.96 105.318L1388.9 110.716M1448.61 99.704V102.766M1376.34 115.912H1414.94M1376.34 115.912L1364.23 120.916M1376.34 115.912H1337.73M1376.34 115.912L1388.9 110.716M1414.94 115.912L1402.13 120.916M1414.94 115.912L1428.25 110.716M1414.94 115.912H1448.61M1364.23 120.916H1402.13M1364.23 120.916H1326.34M1364.23 120.916L1352.57 125.738M1337.73 115.912L1326.34 120.916M1337.73 115.912L1349.55 110.716M1388.9 110.716H1428.25M1388.9 110.716H1349.55M1402.13 120.916L1389.78 125.738M1402.13 120.916H1440.02M1428.25 110.716L1442.07 105.318M1428.25 110.716H1448.61M1448.61 115.912H1448.73M1448.61 115.912V117.741M1448.61 115.912V110.716M1326.34 120.916L1315.36 125.738M1352.57 125.738H1389.78M1352.57 125.738H1315.36M1352.57 125.738L1341.32 130.39M1389.78 125.738L1377.87 130.39M1389.78 125.738H1426.99M1440.02 120.916L1426.99 125.738M1440.02 120.916L1448.61 117.741M1440.02 120.916H1448.61M1330.46 134.878H1366.37M1330.46 134.878L1319.98 139.213M1330.46 134.878H1294.55M1330.46 134.878L1341.32 130.39M1366.37 134.878L1355.27 139.213M1366.37 134.878L1377.87 130.39M1366.37 134.878H1402.28M1319.98 139.213H1355.27M1319.98 139.213L1309.85 143.401M1319.98 139.213H1284.69M1294.55 134.878L1284.69 139.213M1294.55 134.878L1304.77 130.39M1341.32 130.39H1377.87M1341.32 130.39H1304.77M1355.27 139.213H1390.56M1355.27 139.213L1344.55 143.401M1377.87 130.39H1414.42M1402.28 134.878L1390.56 139.213M1402.28 134.878L1414.42 130.39M1402.28 134.878H1438.19M1309.85 143.401H1344.55M1309.85 143.401H1275.15M1284.69 139.213L1275.15 143.401M1390.56 139.213H1425.86M1390.56 139.213L1379.24 143.401M1344.55 143.401H1379.24M1414.42 130.39L1426.99 125.738M1414.42 130.39H1448.61M1438.19 134.878L1425.86 139.213M1438.19 134.878L1448.61 131.218M1438.19 134.878H1448.61M1425.86 139.213L1413.94 143.401M1425.86 139.213H1448.61M1379.24 143.401H1413.94M1379.24 143.401L1368.3 147.45M1426.99 125.738H1448.61M1448.61 130.39V131.218M1448.61 130.39V125.738M1448.61 131.218V134.878M1448.61 134.878V139.213M1413.94 143.401L1402.42 147.45M1413.94 143.401H1448.61M1448.61 139.213V143.401M1368.3 147.45H1402.42M1448.61 143.401H1448.64L1448.61 143.411M1448.61 143.401V143.411M1448.61 117.741V120.916M1448.61 120.916V125.738M1315.36 125.738L1304.77 130.39M1315.36 125.738H1278.15M1304.77 130.39H1268.22M1442.07 105.318L1448.61 102.766M1442.07 105.318H1448.61M1448.61 110.716V105.318M1448.61 102.766V105.318M1361.84 105.318L1349.55 110.716M1361.84 105.318H1321.73M1349.55 110.716H1310.21M1268.22 130.39L1278.15 125.738M1240.45 143.401H1275.15M1240.45 143.401L1231.81 147.45M1275.15 143.401L1265.94 147.45M1231.81 147.45H1265.94M1166.52 125.738L1158.58 130.39M1166.52 125.738H1129.31M1158.58 130.39H1122.03M1310.21 110.716L1321.73 105.318M1201.38 105.318L1192.17 110.716M1201.38 105.318H1161.27M1192.17 110.716H1152.82M1359.16 87.779L1372.69 81.439M1359.16 87.779H1401.77M1401.77 87.779L1416.2 81.439L1431.26 74.823M1448.61 87.779V86.03M1448.61 86.03V81.438M1372.69 81.438H1416.2H1448.61M1386.81 74.822H1431.26M1431.26 74.822L1446.98 67.915M1431.26 74.822H1448.61M1448.61 81.438H1448.84M1448.61 81.438V74.823V67.915M1231.32 87.779H1188.71M1231.32 87.779L1242.15 81.439L1253.44 74.823M1446.98 67.915L1448.61 67.202M1446.98 67.915H1448.61M1448.61 67.202L1449 67.03M1448.61 67.202V67.915M1448.61 67.202V60.694M1416.96 60.694H1370.49H1324.03M1416.96 60.694L1433.08 53.14M1416.96 60.694H1448.61M1324.03 60.694H1277.57M1433.08 53.14H1448.61M1433.08 53.14L1448.61 45.863M1448.61 60.694V53.14M1448.61 53.14V45.863M1290.46 53.14L1277.57 60.694M1290.46 53.14H1242.92M1277.57 60.694H1231.1M1435.17 28.223H1384.09M1435.17 28.223L1448.61 21.477M1435.17 28.223H1448.61M1448.61 21.477L1448.76 21.402M1448.61 21.477V28.222V36.932M1448.61 21.477V19.071M1448.98 36.932H1448.61M1122.03 130.39L1129.31 125.738M1101.67 143.401H1136.36M1101.67 143.401L1095.33 147.45M1136.36 143.401L1135.49 143.915L1133.74 144.935L1129.45 147.45M1095.33 147.45H1129.45M1017.68 125.738L1012.38 130.39M1017.68 125.738H980.47M1012.38 130.39H975.837M1152.82 110.716L1161.27 105.318M1040.92 105.318L1034.78 110.716M1040.92 105.318H1000.81M1034.78 110.716H995.43M1188.71 87.779L1198.64 81.439H1155.13M1155.13 81.439H1111.61M1103.49 87.78H1060.88M1231.1 60.694H1184.64H1138.17M1231.1 60.694L1242.92 53.14M1138.17 60.694H1091.71M1100.31 53.14L1091.71 60.694M1100.31 53.14H1052.77M1091.71 60.694H1045.25M1268.29 36.931L1281.92 28.223M1281.92 28.223L1296.24 19.071M1281.92 28.223H1333L1348.63 19.071M1296.24 19.071H1348.63M1348.63 19.071L1365.07 9.439M1139.09 19.071L1128.67 28.223M1139.09 19.071H1086.7M1128.67 28.223H1077.58M1343.96 -11.42H1287.23M1343.96 -11.42L1361.67 -22.736M1343.96 -11.42H1400.68M1400.68 -11.42L1420 -22.735M1287.23 -11.42L1303.33 -22.736M1420 -22.735H1361.67M1420 -22.735L1440.45 -34.713M1420 -22.735H1448.61M1400.68 -11.419H1448.61M1448.61 -11.419V-22.735M1440.45 -34.713H1448.61M1440.45 -34.713L1448.61 -39.491M1186.67 -22.735L1173.79 -11.419M1186.67 -22.735H1128.33M1448.61 -22.735V-34.713M1173.79 -11.419H1117.06M1448.61 -47.412V-39.491M1448.61 -47.412V-60.899V-75.249M1448.61 -34.713V-39.491M1357.63 -60.9L1378.05 -75.25M1357.63 -60.9H1421.39M1357.63 -60.9H1293.87M1378.05 -75.25H1443.85M1378.05 -75.25H1312.24M1421.39 -60.9L1443.85 -75.25M1421.39 -60.9H1448.61M1293.87 -60.9L1312.24 -75.25M1293.87 -60.9H1230.1M1443.85 -75.25L1448.61 -78.29M1312.24 -75.25H1246.44M1246.44 -75.25L1230.1 -60.9M1246.44 -75.25H1180.63M1230.1 -60.9L1214.75 -47.413M1230.1 -60.9H1166.34M1447.98 -124.402H1375.18M1447.98 -124.402H1448.61M1447.98 -124.402L1448.61 -124.846M1375.18 -124.402H1302.38M1302.38 -124.402L1282.46 -106.897M1302.38 -124.402H1229.58M1302.38 -124.402L1323.77 -143.193M975.837 130.39L976.98 129.243L980.47 125.738M962.879 143.401H997.576M962.879 143.401L958.847 147.45M997.576 143.401L995.83 144.935L992.967 147.45M958.847 147.45H992.967M868.839 125.738L868.169 126.917L866.193 130.39M868.839 125.738H831.63M866.193 130.39H829.645M995.43 110.716L1000.81 105.318M880.461 105.318L880.071 106.004L879.681 106.687L877.388 110.716M880.461 105.318H840.345M877.388 110.716H838.041M1018.27 87.779L1024.59 81.439H981.075H937.563M1018.27 87.779H1060.88M1060.88 87.779L1068.1 81.439L1075.63 74.823M933.052 87.78H890.442M1045.25 60.694L1052.77 53.14M910.154 53.14L905.856 60.694M910.154 53.14H862.616M905.856 60.694H859.392M1068.91 36.931L1077.58 28.223M1077.58 28.223L1086.7 19.071M1118.76 36.932L1128.67 28.222M929.543 19.071L924.334 28.223M929.543 19.071H877.157M924.334 28.223H873.25M1117.06 -11.419L1128.33 -22.735M953.334 -22.735L946.894 -11.419M953.334 -22.735H895M1003.62 -11.42H946.894M1166.34 -60.9L1152.91 -47.413H1214.75M1166.34 -60.9H1102.58M1166.34 -60.9L1180.63 -75.25M1102.58 -60.9L1114.83 -75.25M1102.58 -60.9H1038.82M1114.83 -75.25H1180.63M1114.83 -75.25H1049.02M1038.82 -60.9L1049.02 -75.25M1038.82 -60.9H975.052M1049.02 -75.25H983.219M1212.15 -106.897L1229.58 -124.402M1212.15 -106.897H1282.46M983.219 -75.25L975.052 -60.9M983.219 -75.25H917.414M975.052 -60.9L967.377 -47.413M975.052 -60.9H911.289M1229.58 -124.402H1156.79M1229.58 -124.402L1248.3 -143.193M1156.79 -124.402H1083.99M1083.99 -124.402H1011.19M1248.3 -143.193L1268.44 -163.416M1248.3 -143.193H1323.77M1323.77 -143.193L1346.78 -163.416M1268.44 -163.416L1290.17 -185.242M1268.44 -163.416H1346.78M1290.17 -185.242L1313.7 -208.87M1290.17 -185.242H1371.63M1346.78 -163.416L1371.63 -185.242M1021.88 -143.193L1011.19 -124.402M1021.88 -143.193H946.413M1021.88 -143.193L1033.39 -163.416M1011.19 -124.402L1001.23 -106.897M1011.19 -124.402H938.393M1313.7 -208.87L1339.26 -234.532M1313.7 -208.87H1398.52M1371.63 -185.242L1398.52 -208.87M1371.63 -185.242H1448.61M1398.52 -208.87L1427.73 -234.532M1398.52 -208.87H1448.61M1339.26 -234.532H1427.73M1427.73 -234.532H1448.61M1427.73 -234.532L1448.61 -252.878M1448.61 -208.87V-234.532M1397.6 -293.108L1431.09 -326.74M1397.6 -293.108H1448.61M1448.61 -262.503V-252.877V-234.532M1448.61 -262.503V-293.107V-326.74M1073.86 -234.532L1059.26 -208.87M1073.86 -234.532H985.398M1059.26 -208.87L1045.81 -185.242M1059.26 -208.87H974.445M1431.09 -326.74L1448.61 -344.33M1431.09 -326.74H1448.61M1361.2 -363.869H1254.33M1361.2 -363.869H1448.61M1448.61 -344.33V-326.74M1448.61 -344.33V-363.869M1254.33 -363.869H1147.47M1448.61 -363.869V-364H-8.608V-363.869M1147.47 -363.869L1126.34 -326.74M1147.47 -363.869H1040.6M1126.34 -326.74L1107.2 -293.108M1126.34 -326.74H1024.75M829.645 130.39L829.888 129.817L830.134 129.243L830.38 128.665L830.628 128.085L831.63 125.738M824.091 143.401L823.872 143.915L823.436 144.935L823.004 145.948L822.79 146.451L822.362 147.45M824.091 143.401H858.788M858.788 143.401L856.768 146.952L856.483 147.45M822.362 147.45H856.483M720 125.738V130.39M720 125.738H682.79M720 130.39H683.452M838.041 110.716L840.345 105.318M720 105.318V110.716M720 105.318H679.885M720 110.716H680.653M890.442 87.779H847.831M847.831 87.779L850.538 81.439H807.025H763.512M762.611 87.78H720M859.392 60.694H812.928H766.464M859.392 60.694L862.616 53.14M856.31 67.914H901.747M766.464 60.694H720M720 53.14V60.694M720 53.14H672.461M720 60.694H673.536M869.534 36.931L873.25 28.223M873.25 28.223L877.157 19.071M919.378 36.932L924.334 28.222M720 19.071V28.223M720 19.071H667.615M720 28.223H668.916M946.894 -11.419H890.17M890.17 -11.419L895 -22.735M720 -22.735V-11.419M720 -22.735H661.667M776.724 -11.42H720M911.289 -60.9L905.532 -47.413H967.377M911.289 -60.9H847.526M911.289 -60.9L917.414 -75.25M847.526 -60.9L851.609 -75.25M847.526 -60.9H783.763M851.609 -75.25H917.414M851.609 -75.25H785.805M783.763 -60.9L785.805 -75.25M783.763 -60.9H720M785.805 -75.25H720M930.921 -106.897L938.393 -124.402M930.921 -106.897H1001.23M720 -75.25V-60.9M720 -75.25H654.195M720 -60.9V-47.413M720 -60.9H656.237M938.393 -124.402H865.595M938.393 -124.402L946.413 -143.193M865.595 -124.402H792.798M792.798 -124.402H720M946.413 -143.193L955.044 -163.416M955.044 -163.416L964.36 -185.242M955.044 -163.416H1033.39M964.36 -185.242L974.445 -208.87M964.36 -185.242H1045.81M1033.39 -163.416L1045.81 -185.242M720 -143.193V-124.402M720 -143.193H644.529M720 -124.402V-106.897M720 -124.402H647.202M974.445 -208.87L985.398 -234.532M1010.4 -293.108L1024.75 -326.74M1010.4 -293.108H1107.2M720 -234.532V-208.87M720 -234.532L631.534 -234.531M720 -208.87L635.185 -208.869M1024.75 -326.74L1040.6 -363.869M933.733 -363.869H1040.6M933.733 -363.869H826.867M826.867 -363.869H720M720 -363.869V-326.74M720 -363.869L613.133 -363.868M720 -326.74L618.415 -326.739M683.452 130.39L683.37 129.817L683.289 129.243L683.206 128.665L682.79 125.738M685.303 143.401H720M685.303 143.401L685.521 144.935L685.594 145.443L685.879 147.45M720 143.401V147.45M685.879 147.45H720M571.161 125.738L571.831 126.917L573.807 130.39M571.161 125.738H533.951M573.807 130.39H537.259M680.653 110.716L679.885 105.318M559.539 105.318L562.612 110.716M559.539 105.318H519.424M562.612 110.716H523.265M720 87.779H677.389M720 87.779V81.439M677.389 87.779L677.168 86.219L676.717 83.049L676.488 81.439H632.975H589.462M720 81.44V74.824M673.536 60.694L672.461 53.14M529.846 53.14L534.144 60.694M529.846 53.14H482.307M534.144 60.694H487.681M670.156 36.931L668.916 28.223M668.916 28.223L667.615 19.071M720 36.932V28.222M510.457 19.071L515.666 28.223M510.457 19.071H458.072M515.666 28.223H464.582M720 -11.419H663.276M663.276 -11.419L661.667 -22.735M486.666 -22.735L493.106 -11.419M486.666 -22.735H428.333M549.83 -11.42H493.106M656.237 -60.9L658.156 -47.413H720M656.237 -60.9H592.474M656.237 -60.9L654.195 -75.25M592.474 -60.9L588.391 -75.25M592.474 -60.9H528.711M588.391 -75.25H654.195M588.391 -75.25H522.586M528.711 -60.9L522.586 -75.25M528.711 -60.9H464.948M522.586 -75.25H456.781M649.693 -106.897L647.202 -124.402M649.693 -106.897H720M456.781 -75.25L464.948 -60.9M456.781 -75.25H390.977M464.948 -60.9L472.623 -47.413M464.948 -60.9H401.185M647.202 -124.402H574.405M647.202 -124.402L644.529 -143.193M644.529 -143.193L641.652 -163.416M641.652 -163.416L638.547 -185.242M641.652 -163.416H720M418.117 -143.193L428.81 -124.402M418.117 -143.193H342.646M418.117 -143.193L406.608 -163.416M635.185 -208.869L631.534 -234.531M366.137 -234.531L380.741 -208.869M366.137 -234.531L277.671 -234.532M380.741 -208.869L394.186 -185.242M380.741 -208.869L295.925 -208.87M618.415 -326.739L613.133 -363.868M506.267 -363.868H613.133M506.267 -363.868H399.4M399.4 -363.868H292.533M292.533 -363.868L313.662 -326.739M292.533 -363.868L185.667 -363.869M313.662 -326.739L332.802 -293.108M313.662 -326.739L212.079 -326.74M537.259 130.39L533.951 125.738M546.515 143.401H581.212M546.515 143.401L548.684 146.451L549.395 147.45M581.212 143.401L581.504 143.915L582.085 144.935L583.516 147.45M549.395 147.45H583.516M422.321 125.738L427.614 130.39M422.321 125.738H385.111M427.614 130.39H391.066M523.265 110.716L519.424 105.318M399.079 105.318L404.468 110.053L405.223 110.716M399.079 105.318H358.964M405.223 110.716H365.875M506.948 87.779L502.437 81.439H458.925H415.412M497.731 74.822H542.185M421.727 87.78H379.117M487.681 60.694H441.217H394.753M487.681 60.694L482.307 53.14M492.817 67.914H538.253M394.753 60.694H348.289M339.691 53.14L348.289 60.694M339.691 53.14H292.153M348.289 60.694H301.826M470.777 36.931L464.582 28.223M464.582 28.223L458.072 19.071M520.622 36.932L515.666 28.222M300.915 19.071L311.332 28.223M300.915 19.071H248.529M311.332 28.223H260.248M493.106 -11.419H436.383M436.383 -11.419L428.333 -22.735M253.333 -22.735L266.213 -11.419M253.333 -22.735H195M322.936 -11.42H266.213M401.185 -60.9L410.779 -47.413H472.623M401.185 -60.9H337.422M401.185 -60.9L390.977 -75.25M337.422 -60.9L325.172 -75.25M337.422 -60.9H273.659M325.172 -75.25H390.977M325.172 -75.25H259.367M273.659 -60.9L259.367 -75.25M273.659 -60.9H209.896M259.367 -75.25H193.563M368.464 -106.897L356.013 -124.402M368.464 -106.897H438.772M193.563 -75.25L209.896 -60.9M209.896 -60.9H146.133M356.013 -124.402H283.215M356.013 -124.402L342.646 -143.193M356.013 -124.402H428.81M438.772 -106.897L428.81 -124.402M283.215 -124.402H210.417M210.417 -124.402H137.619M342.646 -143.193L328.26 -163.416M328.26 -163.416L312.733 -185.242M328.26 -163.416H406.608M312.733 -185.242L295.925 -208.87M312.733 -185.242H394.186M406.608 -163.416L394.186 -185.242M116.233 -143.193L137.619 -124.402M116.233 -143.193H40.762M137.619 -124.402L157.543 -106.897M137.619 -124.402H64.822M295.925 -208.87L277.671 -234.532M236.002 -293.108L212.079 -326.74M236.002 -293.108H332.802M12.273 -234.532L41.482 -208.869H-8.608M12.273 -234.532L-8.607 -234.531M12.273 -234.532L-8.607 -252.877M212.079 -326.74L185.667 -363.869M78.799 -363.869H185.667M78.799 -363.869H-8.608M-8.608 -363.869V-344.33V-326.739M-8.608 -326.739V-293.109V-262.503V-252.878V-234.532V-208.869M391.066 130.39L385.111 125.738M407.727 143.401L408.384 143.915L412.912 147.45M407.727 143.401H442.424M442.424 143.401L444.17 144.935L447.033 147.45M412.912 147.45H447.033M273.481 125.738L281.421 130.39M273.481 125.738H236.27M365.875 110.716L358.964 105.318M238.618 105.318L247.834 110.716M238.618 105.318H198.502M247.834 110.716L256.703 115.912M247.834 110.716H208.486M336.506 87.779L328.387 81.439H284.875M336.506 87.779H379.117M379.117 87.779L371.899 81.439L364.37 74.823M284.875 81.439H241.362M251.286 87.78H208.675M301.826 60.694H255.362H208.898M301.826 60.694L292.153 53.14M208.898 60.694H162.434M149.537 53.14L162.434 60.694M149.537 53.14H101.998M162.434 60.694H115.97M271.399 36.931L260.248 28.223M260.248 28.223L248.529 19.071M321.243 36.932L311.332 28.222M91.372 19.071L106.997 28.222M91.372 19.071L38.986 19.07M266.213 -11.419H209.49M209.49 -11.419L195 -22.735M19.999 -22.735L39.32 -11.42M19.999 -22.735H-8.608M146.133 -60.9L163.402 -47.413H225.247M146.133 -60.9H82.37H18.607M146.133 -60.9L127.758 -75.25M61.953 -75.25H127.758M61.953 -75.25H-3.852L18.607 -60.9M18.607 -60.9H-8.608M127.758 -75.25L108.166 -90.55M127.758 -75.25H193.562M108.166 -90.55L87.236 -106.897M108.166 -90.55H176.147M87.236 -106.897L64.822 -124.402M87.236 -106.897H157.543M-8.608 -75.25H-3.851L-8.608 -78.29M-8.608 -75.25V-78.29M-8.608 -75.25V-60.9M-8.608 -60.9V-47.413V-39.493V-34.713M64.822 -124.402H-7.975M64.822 -124.402L40.762 -143.193M-7.975 -124.402H-8.608M-7.975 -124.402L-8.608 -124.846M-8.608 -124.402V-124.846M-8.608 -124.846V-143.192M40.762 -143.193L14.867 -163.415M40.762 -143.193L-8.608 -143.192M14.867 -163.415H-8.608M14.867 -163.415L-8.608 -181.748M-8.608 -181.748V-185.242V-208.869M-8.608 -181.748V-163.416V-143.192M199.06 125.738H236.27M199.06 125.738H161.851M244.873 130.39L253.175 134.878M244.873 130.39L236.27 125.738M244.873 130.39H281.421M253.175 134.878L261.192 139.213M253.175 134.878H289.085M261.192 139.213L268.938 143.401M289.085 134.878L281.421 130.39M268.938 143.401H234.241M268.938 143.401L269.887 143.915L276.426 147.45M268.938 143.401H303.635M234.241 143.401L242.306 147.45M303.635 143.401H338.332L344.668 147.45M303.635 143.401L304.511 143.915L310.547 147.45M161.851 125.738H124.641L135.228 130.39M135.228 130.39H98.681M208.486 110.716L198.502 105.318M158.387 105.318H198.502M198.502 105.318L188.12 99.704M188.12 99.704L177.316 93.863M188.12 99.704H229.034M78.157 105.318L90.446 110.716M78.157 105.318H38.042M90.446 110.716H51.099M166.065 87.779L154.337 81.439H110.824M166.065 87.779H208.675M208.675 87.779L197.849 81.439L186.555 74.823M110.824 81.439H67.312M23.799 81.438L38.235 87.78H80.845M115.97 60.694L101.998 53.14M72.02 36.931L55.914 28.223L38.986 19.07M121.865 36.932L106.997 28.222M106.997 28.222H55.914H4.83M4.83 28.222H-8.608M4.83 28.222L-8.608 21.477M-8.608 21.477L-8.756 21.402M-8.608 21.477V19.071M38.986 19.07L21.172 9.43799M38.986 19.07L-8.608 19.071M21.173 9.439L2.403 -0.709015M21.173 9.439H-8.607M-8.607 9.439L-8.608 -0.709991M-8.607 9.439L-8.608 19.071M2.402 -0.709991H-8.608M2.402 -0.709991L-8.608 -6.66299M-8.608 -0.709991V-6.66299M-8.608 -6.66299V-11.42V-22.736V-34.713M39.32 -11.419H-8.608M62.133 130.39L50.223 125.738M62.133 130.39H98.681M50.223 125.738H87.431M50.223 125.738H13.012M98.681 130.39L87.431 125.738M130.15 143.401H164.846M130.15 143.401L139.943 147.45M164.846 143.401L174.064 147.45M13.012 125.738H-8.608M51.099 110.716L38.042 105.318M-2.073 105.318H38.042M-2.073 105.318L-8.608 102.766M-2.073 105.318H-8.608M38.042 105.318L24.466 99.704M24.466 99.704L10.338 93.863M24.466 99.704H-8.608M10.338 93.863L-4.375 87.779M10.338 93.863H-8.608M-8.608 102.766V105.318M-4.375 87.779L-8.608 86.03M-4.376 87.78H-8.608M23.8 81.439H-8.608H-8.835M-8.608 67.916H-6.985L-8.608 67.203M-9 67.03L-8.608 67.202M-8.608 134.878V139.212V143.4M26.06 143.401L37.58 147.45M26.06 143.401H-8.608M37.58 147.45H3.46M310.548 147.45H276.427M174.065 147.45H139.944M3.46 147.45L-8.608 143.411M3.46 147.45H-8.608M1448.61 143.411V147.45M-8.608 45.228V36.93M-8.608 143.4H-8.638L-8.608 143.41M-8.608 143.4V143.41M-8.608 143.41V147.449V151.366" stroke="url(#paint0_linear_245_1551)" stroke-width="1.012" stroke-miterlimit="10" stroke-linecap="round" stroke-linejoin="round"/>
<defs>
<linearGradient id="paint0_linear_245_1551" x1="720" y1="155.158" x2="720" y2="-208.836" gradientUnits="userSpaceOnUse">
<stop stop-color="#CED2DF" stop-opacity="0"/>
<stop offset="1" stop-color="#CED2DF"/>
</linearGradient>
</defs>
</svg>
