<svg width="24" height="25" viewBox="0 0 24 25" fill="none" xmlns="http://www.w3.org/2000/svg">
<g clip-path="url(#clip0_245_1569)">
<g clip-path="url(#clip1_245_1569)">
<path d="M8.66 19.804C15.454 19.804 19.168 14.174 19.168 9.29295C19.168 9.13295 19.165 8.97295 19.158 8.81495C19.8808 8.29177 20.5045 7.64398 21 6.90195C20.3265 7.201 19.6118 7.39718 18.88 7.48395C19.6509 7.0219 20.2277 6.29551 20.503 5.43995C19.7781 5.87025 18.985 6.17361 18.158 6.33695C17.6019 5.74285 16.8651 5.349 16.0622 5.21659C15.2593 5.08418 14.4351 5.22061 13.7177 5.60469C13.0002 5.98877 12.4297 6.59901 12.0947 7.34063C11.7597 8.08225 11.6789 8.91374 11.865 9.70595C10.3965 9.63226 8.95987 9.25052 7.64848 8.58552C6.33708 7.92051 5.18021 6.98712 4.253 5.84595C3.92495 6.4098 3.75241 7.05062 3.753 7.70295C3.753 8.98495 4.405 10.116 5.396 10.778C4.80939 10.7601 4.23565 10.6016 3.723 10.316V10.363C3.72295 11.2159 4.01798 12.0426 4.55805 12.7028C5.09812 13.363 5.84996 13.816 6.686 13.985C6.14208 14.1329 5.57153 14.1545 5.018 14.048C5.25371 14.782 5.71301 15.424 6.33161 15.8841C6.95022 16.3442 7.69719 16.5994 8.468 16.614C7.15999 17.6413 5.54425 18.1986 3.881 18.196C3.587 18.196 3.292 18.179 3 18.144C4.68812 19.2293 6.65307 19.8056 8.66 19.804Z" fill="#1DA1F2"/>
</g>
</g>
<defs>
<clipPath id="clip0_245_1569">
<rect width="24" height="24" fill="white" transform="translate(0 0.169922)"/>
</clipPath>
<clipPath id="clip1_245_1569">
<rect width="24" height="24" fill="white" transform="translate(0 0.169922)"/>
</clipPath>
</defs>
</svg>
